<svg xmlns="http://www.w3.org/2000/svg" viewBox="25.08 131.18 304.59 334"><g id="freepik--Character--inject-4"><path d="M302.07,156.72S200,97,101.26,160.19,28.5,352.9,28.5,352.9s15.91-16.68,45.22-11.28c0,0-.54-40,42.75-36.33,0,0,21.74-50.47,68.69-36.64,0,0,8.76-45.12,65.53-39.39C250.69,229.26,263.24,177.81,302.07,156.72Z" style="fill:#FF725E"/><g style="opacity:0.4"><path d="M302.07,156.72S200,97,101.26,160.19,28.5,352.9,28.5,352.9s15.91-16.68,45.22-11.28c0,0-.54-40,42.75-36.33,0,0,21.74-50.47,68.69-36.64,0,0,8.76-45.12,65.53-39.39C250.69,229.26,263.24,177.81,302.07,156.72Z"/></g><path d="M111.87,331.82a19.42,19.42,0,0,1,11.3-19.77c5.48-2.34,12.41-2.35,16.14-7,4.13-5.12,2-13.18,5.61-18.67,4.15-6.28,14.06-6.66,18.05-13,3-4.79,1.53-11.31,4.23-16.26,2.81-5.18,9.27-7.2,13.09-11.7,4.23-5,5.25-13,11.2-15.73,3.39-1.56,7.49-.77,10.72,1.12s5.74,4.74,8.21,7.55l29.64,33.79a8.75,8.75,0,0,1,2,3.1c1,3.3-2,6.32-4.36,8.82A38.61,38.61,0,0,0,227.35,307c-.47,5.33-.19,11.58-4.34,15-3.22,2.62-8.2,2.53-11,5.6-4,4.41-.75,11.51-1.82,17.39-1,5.5-5.81,9.5-10.81,12s-10.5,4-15.13,7.12-8.35,8.58-7.18,14a108,108,0,0,1-27.23-18.8q3.57-5.19,7.15-10.39l-12.66,7.92c-1.67-3-5-4.47-7.77-6.44s-5.29-5.33-4.15-8.53c1.39-3.86,7.28-5.06,7.78-9.12a25.14,25.14,0,0,0-14,8.87c-5.65-2.28-11.33-4.51-14.36-9.8" style="fill:#263238"/><path d="M198.41,311.28c-9.89-7.81-18.45-5.24-27.75-2.92s-16.83,11.11-23.53,18-12.58,14.53-19.78,20.86-16.14,11.35-25.73,11.46c-7.06.08-14.08-2.5-21.08-1.52a21.39,21.39,0,0,0-16.13,12l8,19.69c3.31-8.26,13.3-11.65,22.19-11.84s17.91,1.8,26.61,0c10.45-2.2,19-9.6,26.28-17.42s13.91-16.46,22.78-22.42,20.81-8.8,30.27-3.83" style="fill:#FF725E"/><g style="opacity:0.4"><path d="M198.41,311.28c-9.89-7.81-18.45-5.24-27.75-2.92s-16.83,11.11-23.53,18-12.58,14.53-19.78,20.86-16.14,11.35-25.73,11.46c-7.06.08-14.08-2.5-21.08-1.52a21.39,21.39,0,0,0-16.13,12l8,19.69c3.31-8.26,13.3-11.65,22.19-11.84s17.91,1.8,26.61,0c10.45-2.2,19-9.6,26.28-17.42s13.91-16.46,22.78-22.42,20.81-8.8,30.27-3.83"/></g><path d="M81.8,380a17.39,17.39,0,0,1-1.38-3c-.77-1.87-1.75-4.49-2.68-7.44s-1.63-5.65-2.08-7.63a19.44,19.44,0,0,1-.58-3.22,21.17,21.17,0,0,1,.94,3.13c.54,2,1.29,4.63,2.22,7.57s1.85,5.56,2.52,7.46A23.94,23.94,0,0,1,81.8,380Z" style="fill:#fafafa"/><path d="M98.29,376.66A13.56,13.56,0,0,1,97.15,374c-.62-1.66-1.4-4-2.13-6.59s-1.27-5-1.6-6.74a14.55,14.55,0,0,1-.41-2.84,16.51,16.51,0,0,1,.77,2.76c.42,1.72,1,4.09,1.74,6.68s1.45,4.93,2,6.62A18.18,18.18,0,0,1,98.29,376.66Z" style="fill:#fafafa"/><path d="M116,378.06c-.13.05-1.94-4.4-4-9.93s-3.67-10.05-3.54-10.1,1.94,4.39,4,9.92A106.88,106.88,0,0,1,116,378.06Z" style="fill:#fafafa"/><path d="M129.12,372.86a18.71,18.71,0,0,1-1.31-3.05c-.74-1.92-1.7-4.58-2.66-7.56s-1.77-5.7-2.3-7.68a19,19,0,0,1-.73-3.23,22.46,22.46,0,0,1,1.09,3.13c.67,2.09,1.5,4.72,2.43,7.62s1.82,5.51,2.51,7.59A22.15,22.15,0,0,1,129.12,372.86Z" style="fill:#fafafa"/><path d="M140.75,365.27c-.14.05-2-5.14-4.16-11.57s-3.8-11.7-3.67-11.75,2,5.14,4.16,11.58S140.88,365.23,140.75,365.27Z" style="fill:#fafafa"/><path d="M147.59,342.17a39.18,39.18,0,0,1-2.66-5.68,38.3,38.3,0,0,1-2.19-5.88,37.39,37.39,0,0,1,2.67,5.68A36.38,36.38,0,0,1,147.59,342.17Z" style="fill:#fafafa"/><path d="M158.65,327.29a40.21,40.21,0,0,1-4.3-8.09,40.94,40.94,0,0,1,4.3,8.09Z" style="fill:#fafafa"/><path d="M174,318.05a32.76,32.76,0,0,1-2-4.51,32.93,32.93,0,0,1-1.79-4.6,18.86,18.86,0,0,1,2.27,4.4A18,18,0,0,1,174,318.05Z" style="fill:#fafafa"/><path d="M188.36,314.3a11.06,11.06,0,0,1-.26-4.09,11.27,11.27,0,0,1,.76-4,28.82,28.82,0,0,1-.24,4.06A30.31,30.31,0,0,1,188.36,314.3Z" style="fill:#fafafa"/><path d="M176.64,408.91l-14.91-84a46.5,46.5,0,0,1,29.32-10.75l49.15.42a40.9,40.9,0,0,1,7.65,1.56c6,.43,17.29,2.7,25.8,16.68,9,14.86,22.13,45.44,22.13,45.44L298.54,344l21.89-6.66c18.18,48.49,6.51,85.17-13.63,88.17-16.75,2.49-32.86-17.78-32.86-17.78l-8.13-14L264,402.94l-4.84,22.89,17.52,39.23c-6.14,0-10.24.26-17.79,0H165.2c.7-7.08,9.66-16,9.66-16,6.47-11,4.8-27.57,1.78-40.16" style="fill:#FF725E"/><path d="M266.29,454.64a3.91,3.91,0,0,1-.57-.45,18.64,18.64,0,0,0-1.63-1.26,22.93,22.93,0,0,0-6.83-3.17,36,36,0,0,0-11.1-1.16,104.49,104.49,0,0,0-13.65,1.84A76.7,76.7,0,0,1,218.74,452a32.12,32.12,0,0,1-11.13-2,20.75,20.75,0,0,1-6.52-3.94,14.63,14.63,0,0,1-1.43-1.51,4.2,4.2,0,0,1-.44-.57,4.32,4.32,0,0,1,.52.5,18.25,18.25,0,0,0,1.49,1.43,21.25,21.25,0,0,0,6.51,3.74,32.3,32.3,0,0,0,11,1.83,80.25,80.25,0,0,0,13.68-1.54,100.81,100.81,0,0,1,13.72-1.81,35.08,35.08,0,0,1,11.23,1.29,21.74,21.74,0,0,1,6.84,3.36,16.33,16.33,0,0,1,1.58,1.34A3.27,3.27,0,0,1,266.29,454.64Z" style="fill:#fafafa"/><path d="M296.32,393.62c-.32,0-.69-3.68-.83-8.23s0-8.25.31-8.26.69,3.67.83,8.23S296.63,393.61,296.32,393.62Z" style="fill:#263238"/><g style="opacity:0.2"><path d="M172.05,452.13c-.36.11-2.36,3-1.81,4.29a3.81,3.81,0,0,0,3.39,2,11.21,11.21,0,0,0,4.06-.84l47-16,21.51-7.33c2.46-.84,5.29-2.09,5.79-4.64a17.75,17.75,0,0,1,.32-2.43,4.44,4.44,0,0,1,2.9-2.41,13.09,13.09,0,0,0,3.59-1.49c1-.78,1.79-3.28,1.1-4.38.09.19-7.77,1.13-11.73,3.12.27,1.57,1.31,5.57,1.31,5.57s-4.2,1.12-5.72,1.73c-24.88,10-46.81,14.3-71.67,22.78"/></g><polygon points="298.43 277.48 264.86 331.88 291.28 339.23 320.58 294.03 298.43 277.48" style="fill:#455a64"/><path d="M296.33,323.83l1.15,7.95,4.68,6,.47,4.94,16.84-5.13-6.8-24s1.09-7,.65-9.84l-4.62,6.15-1.28-10-9.49-7.63a2.31,2.31,0,0,0-3.25.5h0a2.3,2.3,0,0,0,.26,3l7.62,6.72.49,8.3-5.51-5.13a4,4,0,0,0-1.94-1l-7.66-1.53a2,2,0,0,0-2.38,1.76h0A2,2,0,0,0,287,307l7,2.14,7.05,7.11-6.88-2.62-9.37,1.31a1.82,1.82,0,0,0-1.57,1.8h0a1.82,1.82,0,0,0,1.92,1.81l5.95-.33,3.5,1.1-8.06,2.13a1.63,1.63,0,0,0-1.2,1.65h0A1.62,1.62,0,0,0,287,324.6Z" style="fill:#ffbe9d"/><path d="M264.86,331.88s-2.26-3.06-2.08-3.58,32-52.82,32-52.82l3.7,2Z" style="fill:#263238"/><path d="M306.83,291.15a1.19,1.19,0,1,1-.06.07" style="fill:#263238"/><path d="M171.14,319.2s-25,7.6-30.44,45c-1.88,12.94-4.17,42.72-5,64.83-.52,14.5,4.86,22.66,13.63,25.71a23.07,23.07,0,0,0,14.28,0l85.6-26.63-7.44-35.86-64.35,17.35,1.61-26.56Z" style="fill:#FF725E"/><path d="M165.67,423.13a13.32,13.32,0,0,1,1.72-4.5,26.67,26.67,0,0,1,9.92-9.29l0,0h0l63.63-16,.55-.13.13.54c1.71,7.3,3.51,14.95,5.36,22.81l2.57,10.95.12.51-.49.16c-25.72,8.46-48.66,15.72-65.2,20.73-8.27,2.51-15,4.45-19.57,5.73L159.16,456l-1.38.34a2,2,0,0,1-.48.09s.14-.09.45-.19l1.36-.44,5.26-1.62,19.45-6.05c16.48-5.21,39.37-12.59,65.07-21.09l-.37.67-2.57-11L240.61,394l.67.41-63.75,15.56.07,0a27,27,0,0,0-9.92,8.9A26.52,26.52,0,0,0,165.67,423.13Z" style="fill:#263238"/><path d="M177.36,377.13c.31,0,.31,7.42,0,16.55s-.83,16.52-1.14,16.51-.31-7.42,0-16.55S177.05,377.12,177.36,377.13Z" style="fill:#263238"/><path d="M286.59,358.39a12.6,12.6,0,0,0-1.64-.13,10.14,10.14,0,0,0-4.5,1.2,23.23,23.23,0,0,0-5.87,4.54c-1.05,1-2.16,2.13-3.44,3.19a16.13,16.13,0,0,1-4.49,2.77c-3.48,1.41-7.71,1.44-12,.69s-8.68-2.28-13.44-3.16a26.88,26.88,0,0,0-7.36-.47,18.91,18.91,0,0,0-7.28,2.28c-4.65,2.48-8.56,6.41-13.21,9.61a26.8,26.8,0,0,1-7.48,3.71,24.72,24.72,0,0,1-8.06,1,23.74,23.74,0,0,1-7.67-1.59,30.91,30.91,0,0,1-6.57-3.63c-4-2.82-7.4-6-10.94-8.42a26.49,26.49,0,0,0-10.85-4.75,25.36,25.36,0,0,0-16.69,3,27,27,0,0,0-5.07,3.84s.09-.11.29-.31l.87-.87c.39-.37.92-.79,1.53-1.3a25.33,25.33,0,0,1,2.27-1.53,24.87,24.87,0,0,1,6.95-2.82,25.16,25.16,0,0,1,9.91-.4,23.36,23.36,0,0,1,5.57,1.65,32.3,32.3,0,0,1,5.46,3.11c3.58,2.46,7,5.6,11,8.37a30.1,30.1,0,0,0,6.48,3.56,23.33,23.33,0,0,0,7.51,1.55,24.19,24.19,0,0,0,7.89-1,26.51,26.51,0,0,0,7.34-3.65c4.59-3.16,8.52-7.1,13.26-9.63a19.46,19.46,0,0,1,7.48-2.32,27.76,27.76,0,0,1,7.49.48c4.81.91,9.17,2.5,13.42,3.21s8.36.75,11.75-.61,5.75-3.85,7.86-5.82a23.45,23.45,0,0,1,6-4.52,10,10,0,0,1,4.59-1.11A5.74,5.74,0,0,1,286.59,358.39Z" style="fill:#fafafa"/><path d="M273.73,334.36a1.51,1.51,0,0,1-.21.28c-.15.17-.35.45-.66.76a16.84,16.84,0,0,1-3,2.54,18.71,18.71,0,0,1-13.79,2.94c-3-.46-6.18-1.54-9.69-2A16.94,16.94,0,0,0,235.58,341c-3.51,1.88-6.72,4.61-10.25,7.18a40.16,40.16,0,0,1-5.68,3.53,28.79,28.79,0,0,1-6.5,2.28,29.2,29.2,0,0,1-13.48-.13,44.72,44.72,0,0,1-11.56-5c-3.47-2-6.62-4.17-9.65-6a60.09,60.09,0,0,0-8.75-4.57,26.61,26.61,0,0,0-14-2,19.37,19.37,0,0,0-3.76,1c-.42.14-.72.29-.94.37a2.77,2.77,0,0,1-.32.12,1.2,1.2,0,0,1,.3-.17c.21-.09.51-.26.93-.42a17.69,17.69,0,0,1,3.76-1.06,26.43,26.43,0,0,1,14.12,1.88,59.9,59.9,0,0,1,8.83,4.54c3.06,1.84,6.22,4,9.67,6a44.1,44.1,0,0,0,11.44,4.93,28.62,28.62,0,0,0,13.25.12,29,29,0,0,0,6.39-2.23,39,39,0,0,0,5.6-3.49c3.51-2.54,6.75-5.28,10.33-7.19a19.17,19.17,0,0,1,5.54-2,18.08,18.08,0,0,1,2.82-.28,19,19,0,0,1,2.74.19c3.56.5,6.72,1.6,9.69,2.08a18.72,18.72,0,0,0,8-.28,19.14,19.14,0,0,0,5.58-2.47,18.43,18.43,0,0,0,3-2.44c.33-.3.54-.57.7-.73S273.72,334.35,273.73,334.36Z" style="fill:#fafafa"/><path d="M176.32,403.81c0,.12-2.23-1-6-1.95l-1.49-.36c-.52-.12-1.07-.18-1.63-.28a35,35,0,0,0-3.64-.43,39.35,39.35,0,0,0-16.46,2.44c-1.19.49-2.34.92-3.35,1.46-.51.26-1,.48-1.49.75l-1.32.77c-3.34,2-5.11,3.72-5.19,3.62a10.78,10.78,0,0,1,1.25-1.17,13.87,13.87,0,0,1,1.56-1.25,23.49,23.49,0,0,1,2.19-1.51l1.32-.81c.46-.28,1-.51,1.48-.78a35.6,35.6,0,0,1,3.38-1.53,41,41,0,0,1,8.2-2.17,41.59,41.59,0,0,1,8.47-.3c1.3.14,2.53.24,3.67.48.57.11,1.13.19,1.65.32l1.5.39a24.53,24.53,0,0,1,2.53.81,14.85,14.85,0,0,1,1.86.75A10.33,10.33,0,0,1,176.32,403.81Z" style="fill:#fafafa"/><path d="M199.77,404.55a11.56,11.56,0,0,0-1.33,1.52,11,11,0,0,0-1.73,5.15c-.3,2.31.08,5.09,0,8.22a14.48,14.48,0,0,1-.83,4.86,16.05,16.05,0,0,1-2.7,4.55c-2.31,2.82-5.07,4.89-7.32,7a21.11,21.11,0,0,0-5,6.37,11.39,11.39,0,0,0-1.19,5.3c.06,1.3.31,2,.25,2a2.07,2.07,0,0,1-.18-.5,8.24,8.24,0,0,1-.28-1.5,11.16,11.16,0,0,1,1.07-5.47,20.79,20.79,0,0,1,5-6.56c2.25-2.15,5-4.23,7.24-7a15.68,15.68,0,0,0,2.62-4.4,14.33,14.33,0,0,0,.84-4.69c.06-3.07-.28-5.89.07-8.26a10.78,10.78,0,0,1,1.94-5.22A4.8,4.8,0,0,1,199.77,404.55Z" style="fill:#fafafa"/><path d="M238.81,430.38s-.05-.51-.18-1.4a9.43,9.43,0,0,0-1.31-3.54,36.09,36.09,0,0,0-3.42-4.52c-1.4-1.62-3.06-3.32-4.54-5.35a25.36,25.36,0,0,1-4.58-11.83,34.7,34.7,0,0,1-.32-3.86,6.43,6.43,0,0,1,0-1.41,8.7,8.7,0,0,1,.17,1.4c.09.91.22,2.21.48,3.81a26.32,26.32,0,0,0,4.64,11.58c1.45,2,3.09,3.7,4.48,5.35a32.33,32.33,0,0,1,3.38,4.65,8.82,8.82,0,0,1,1.19,3.69,8.37,8.37,0,0,1,0,1.06C238.85,430.25,238.83,430.38,238.81,430.38Z" style="fill:#fafafa"/><path d="M294.2,383.81a3.13,3.13,0,0,1-.23.94,9.16,9.16,0,0,1-.39,1.07c-.18.4-.35.88-.62,1.37a21.6,21.6,0,0,1-2,3.34,25,25,0,0,1-3.25,3.52,25.33,25.33,0,0,1-3.92,2.78,21.82,21.82,0,0,1-3.57,1.61,15.39,15.39,0,0,1-2.54.68,3.77,3.77,0,0,1-1,.12c0-.1,1.33-.35,3.38-1.15a25.42,25.42,0,0,0,3.46-1.67,27.77,27.77,0,0,0,3.81-2.76,28,28,0,0,0,3.21-3.42,25,25,0,0,0,2.11-3.22C293.68,385.09,294.11,383.78,294.2,383.81Z" style="fill:#fafafa"/><path d="M329.68,385.59c-.09.07-1.27-1.75-3.75-4.15a32.68,32.68,0,0,0-4.72-3.78,34.63,34.63,0,0,0-6.58-3.36,33.85,33.85,0,0,0-10.24-2.18,35.94,35.94,0,0,0-6.87.39l-.24,0,.13-.19a8.22,8.22,0,0,1,1-1.32,11,11,0,0,1-.83,1.43l-.11-.16a30.25,30.25,0,0,1,6.93-.61,32.34,32.34,0,0,1,10.4,2.13,33.92,33.92,0,0,1,6.67,3.44,31,31,0,0,1,4.71,3.92,19.62,19.62,0,0,1,1.58,1.74l.62.74.47.66A8.06,8.06,0,0,1,329.68,385.59Z" style="fill:#fafafa"/><path d="M248.29,225.74c-.29,4,2.37,7.64,5.06,10.67s5.68,6.18,6.26,10.19c1,7.1-5.93,13.69-4.49,20.72.77,3.77,3.85,6.8,4.4,10.6s-1.44,7.29-3.89,10.09-5.42,5.14-7.58,8.16c-2.28,3.19-3.54,7-5.17,10.53s-3.84,7.1-7.28,9c-5.18,2.81-12.43,1.48-16.4,5.84-3.84,4.2-2.63,11.89-7.36,15.06" style="fill:#263238"/><path d="M186.24,231.91c-.1-3.66,3.28-6.49,6.69-7.83s7.2-1.85,10.24-3.89c2.69-1.81,4.5-4.64,6.77-6.95a22.54,22.54,0,0,1,37.92,10.35c1.31,5.21.42,11.38-3.69,14.84-4.77,4-11.84,3.13-18,1.88s-13-2.49-18.13,1.1c-3.08,2.17-4.84,5.69-6.72,9s-4.25,6.59-7.81,7.81-8.39-.89-8.52-4.65" style="fill:#263238"/><path d="M200.68,232.66a6.13,6.13,0,0,0-5.47,6.23h0l3.66,82.74c.15,9.78,14.25,10.5,24.71,10.25v-1c10.57-.25,11.1.36,11.23-8.94.22-15.53.2-21.36.21-21.28s13.34-2.24,16.07-19.67c1.36-8.66.89-22.87.13-34.48-.68-10.45-7.63-23.25-18-22.13Z" style="fill:#ffbe9d"/><path d="M247.92,256.46a2.23,2.23,0,0,1-2.15,2.26,2.13,2.13,0,0,1-2.3-2,2.22,2.22,0,0,1,2.14-2.26A2.14,2.14,0,0,1,247.92,256.46Z" style="fill:#263238"/><path d="M248.16,253.9c-.28.29-2-1-4.38-1s-4.16,1.22-4.42.93c-.13-.13.15-.66.92-1.22a6.12,6.12,0,0,1,3.54-1.1,5.84,5.84,0,0,1,3.48,1.12C248,253.24,248.29,253.77,248.16,253.9Z" style="fill:#263238"/><path d="M224,257.08a2.22,2.22,0,0,1-2.15,2.25,2.14,2.14,0,0,1-2.31-2,2.25,2.25,0,0,1,2.15-2.26A2.16,2.16,0,0,1,224,257.08Z" style="fill:#263238"/><path d="M224.53,254.4c-.28.29-2-1-4.38-.94s-4.16,1.21-4.42.92c-.13-.13.15-.66.92-1.22a6.12,6.12,0,0,1,3.54-1.1,5.84,5.84,0,0,1,3.48,1.12C224.41,253.74,224.66,254.27,224.53,254.4Z" style="fill:#263238"/><path d="M233.29,272.21c0-.14,1.48-.4,3.91-.71.61-.07,1.19-.19,1.29-.61a3.07,3.07,0,0,0-.41-1.82l-1.83-4.67c-2.53-6.65-4.37-12.12-4.1-12.22s2.54,5.21,5.08,11.86l1.75,4.7a3.59,3.59,0,0,1,.32,2.41,1.53,1.53,0,0,1-1,.9,4.27,4.27,0,0,1-1,.15C234.81,272.33,233.3,272.35,233.29,272.21Z" style="fill:#263238"/><path d="M235,300.65a44.25,44.25,0,0,1-23.35-6.17s5.69,12,23.12,10.29Z" style="fill:#eb996e"/><path d="M232.29,278a4.3,4.3,0,0,0-3.89-1.6,4,4,0,0,0-2.73,1.47,2.5,2.5,0,0,0-.18,2.86,2.9,2.9,0,0,0,3.15.79,9,9,0,0,0,3.07-1.84,2.73,2.73,0,0,0,.69-.71.82.82,0,0,0,0-.9" style="fill:#eb996e"/><path d="M226.22,273.89c.39,0,.4,2.58,2.64,4.43s5,1.56,5,1.92c0,.16-.62.51-1.8.54a6.5,6.5,0,0,1-4.2-1.45,5.66,5.66,0,0,1-2-3.72C225.75,274.52,226,273.87,226.22,273.89Z" style="fill:#263238"/><path d="M225.6,250.19c-.23.65-2.64.35-5.46.69s-5.09,1.12-5.47.54c-.17-.28.23-.9,1.15-1.53a9,9,0,0,1,4.05-1.43,9.19,9.19,0,0,1,4.27.49C225.18,249.37,225.7,249.88,225.6,250.19Z" style="fill:#263238"/><path d="M247.26,246.94c-.42.55-2.08,0-4.07,0s-3.68.37-4.07-.2c-.17-.28.1-.82.83-1.34a5.86,5.86,0,0,1,6.56.19C247.21,246.12,247.45,246.68,247.26,246.94Z" style="fill:#263238"/><path d="M188.77,316c-.12-4.39-.21-8.92,1.54-12.95s5.86-7.47,10.53-7.18c3.28.2,6.14,2.11,9.12,3.48a28.84,28.84,0,0,0,16.1,2.28,58.08,58.08,0,0,1,6.8-1c2.31-.05,4.8.56,6.3,2.23,1.81,2,1.71,4.93,1.51,7.54a49.4,49.4,0,0,1-1.95,12,17.3,17.3,0,0,1-7.38,9.65c-5.14,3-11.73,2.47-17.79,1.69-5.68-.73-11.51-1.66-16.46-4.43s-8.92-7.82-8.58-13.18" style="fill:#FF725E"/><g style="opacity:0.4"><path d="M188.77,316c-.12-4.39-.21-8.92,1.54-12.95s5.86-7.47,10.53-7.18c3.28.2,6.14,2.11,9.12,3.48a28.84,28.84,0,0,0,16.1,2.28,58.08,58.08,0,0,1,6.8-1c2.31-.05,4.8.56,6.3,2.23,1.81,2,1.71,4.93,1.51,7.54a49.4,49.4,0,0,1-1.95,12,17.3,17.3,0,0,1-7.38,9.65c-5.14,3-11.73,2.47-17.79,1.69-5.68-.73-11.51-1.66-16.46-4.43s-8.92-7.82-8.58-13.18"/></g><path d="M200.39,330.57a1.14,1.14,0,0,1-.34-.16,3.28,3.28,0,0,1-.78-.73,7.58,7.58,0,0,1-1.18-3.69,122.86,122.86,0,0,1-.92-12.69,51.59,51.59,0,0,1,.4-7,15,15,0,0,1,1.67-5.51,8,8,0,0,1,2.64-2.84,5.06,5.06,0,0,1,1-.47,1.3,1.3,0,0,1,.36-.1c0,.05-.47.22-1.2.74a8.37,8.37,0,0,0-2.43,2.85c-1.56,2.83-1.85,7.43-1.87,12.34s.51,9.42.76,12.66a7.74,7.74,0,0,0,1,3.61A5.8,5.8,0,0,0,200.39,330.57Z" style="fill:#fafafa"/><path d="M212.16,333.89a5.37,5.37,0,0,1,.08-1.28c.1-.92.22-2.09.37-3.47.34-2.92.79-7,1.24-11.44s.8-8.52,1.06-11.45c.12-1.39.23-2.55.31-3.48a7.6,7.6,0,0,1,.18-1.27,5.34,5.34,0,0,1,0,1.28c0,.83-.07,2-.16,3.49-.16,2.94-.45,7-.9,11.49s-1,8.51-1.39,11.43c-.21,1.46-.4,2.64-.54,3.45A5.86,5.86,0,0,1,212.16,333.89Z" style="fill:#fafafa"/><path d="M229.46,301.78a.75.75,0,0,1,.37,0,2,2,0,0,1,.93.53,6,6,0,0,1,1.44,3.57,25.52,25.52,0,0,1,.17,5.71c-.14,2.15-.47,4.48-.8,6.93a42.62,42.62,0,0,1-1.43,6.85,20.23,20.23,0,0,1-2.42,5.19,14.2,14.2,0,0,1-2.52,2.92,10.19,10.19,0,0,1-.83.64,1.21,1.21,0,0,1-.32.18,19.06,19.06,0,0,0,3.36-3.94,21.37,21.37,0,0,0,2.27-5.13,46.07,46.07,0,0,0,1.38-6.78c.32-2.44.66-4.77.83-6.89a26.71,26.71,0,0,0,0-5.63,6.18,6.18,0,0,0-1.22-3.48A2.67,2.67,0,0,0,229.46,301.78Z" style="fill:#fafafa"/><path d="M235.44,300.82c-3.65,1.5-3.59,7.47-6.33,10.31-3.58,3.72-10.12,1.12-14.81,3.29-6.21,2.87-6.15,12.2-11.38,16.61-3.22,2.71-8.1,3.23-10.63,6.58s-1,9.34,3.1,10.93l3.86-2.45c-1.11,1.8-.54,4.24.79,5.88a15.63,15.63,0,0,0,5.13,3.63c2.36-.27,3.65-2.87,4.17-5.18s.85-4.92,2.69-6.41c2.22-1.79,5.63-1.08,8.1-2.51,4.89-2.82,2.81-11.23,7.16-14.82,2.75-2.28,6.89-1.6,10.19-3,4.76-2,6.66-7.74,7.15-12.88s.22-10.61,2.77-15.1" style="fill:#263238"/><path d="M188.52,290a15.46,15.46,0,0,0,18.4-17.1c-.54-4.28-2.85-8.63-1.37-12.68,2-5.36,9.47-7,11.46-12.35,1.16-3.1.12-6.73,1.43-9.78,1.24-2.86,4.25-4.51,7.18-5.57s6.07-1.79,8.53-3.7,4-5.52,2.41-8.2a165.13,165.13,0,0,0-38.07,9.25c-2.84,1.06-5.83,2.33-7.51,4.86-1.78,2.68-1.69,6.13-1.54,9.34L191.63,291" style="fill:#263238"/><path d="M179.13,304.45a5.29,5.29,0,0,1-.07-1.17,9.46,9.46,0,0,1,.72-3.27,13.73,13.73,0,0,1,2.94-4.42,22.8,22.8,0,0,1,5.68-4.15c2.27-1.28,4.88-2.43,7.51-4a18.61,18.61,0,0,0,6.93-6.53,9.74,9.74,0,0,0,1.35-4.9,26.29,26.29,0,0,0-.79-5.39,14.71,14.71,0,0,1-.37-5.75,6.49,6.49,0,0,1,1.24-2.74,8.36,8.36,0,0,1,2.31-2c1.75-1,3.63-1.63,5.36-2.44a8.78,8.78,0,0,0,4.2-3.48,11.39,11.39,0,0,0,1.24-5.18c.07-1.78,0-3.54,0-5.27a15,15,0,0,1,.77-5,5.75,5.75,0,0,1,.51-1.13,9.11,9.11,0,0,1,.65-1A8.94,8.94,0,0,1,221,235c2.56-1.84,5.46-2.43,8-3a19.81,19.81,0,0,0,6.47-2.45,7.77,7.77,0,0,0,3.09-4.07,5.53,5.53,0,0,0,.07-3.25,9.3,9.3,0,0,0-.47-1.06,3.26,3.26,0,0,1,.57,1,5.43,5.43,0,0,1,0,3.34,7.85,7.85,0,0,1-3.12,4.25,19.73,19.73,0,0,1-6.54,2.56c-2.5.64-5.35,1.25-7.79,3a7.77,7.77,0,0,0-1.61,1.58,7.63,7.63,0,0,0-.61,1,5.23,5.23,0,0,0-.48,1.08,14.59,14.59,0,0,0-.72,4.86c0,1.71.09,3.47,0,5.28a11.92,11.92,0,0,1-1.28,5.42,9.38,9.38,0,0,1-4.43,3.69c-1.76.83-3.64,1.43-5.31,2.42a7.55,7.55,0,0,0-2.17,1.83,6,6,0,0,0-1.14,2.53,14.21,14.21,0,0,0,.36,5.54,26.35,26.35,0,0,1,.79,5.49,10.31,10.31,0,0,1-1.43,5.14,18.87,18.87,0,0,1-7.14,6.66c-2.66,1.53-5.28,2.66-7.55,3.91a23,23,0,0,0-5.64,4,14,14,0,0,0-3,4.29,9.72,9.72,0,0,0-.79,3.21C179.12,304.05,179.16,304.45,179.13,304.45Z" style="fill:#263238"/><path d="M229.9,316.4a22,22,0,0,0,3.41.26,15.75,15.75,0,0,0,8.67-2.94,14.7,14.7,0,0,0,4.3-4.66,20.35,20.35,0,0,0,2.19-7c.47-2.56.85-5.37,2.3-7.94s4.09-4.24,6.28-6.24a12,12,0,0,0,4.05-7.42,12.72,12.72,0,0,0-.09-4.09,12.14,12.14,0,0,0-1.4-3.67c-1.27-2.24-2.89-4.24-3.62-6.52a15.6,15.6,0,0,1-.69-6.48,33.79,33.79,0,0,1,2.45-9.07c.41-1,.76-1.82,1-2.35a5.17,5.17,0,0,1,.39-.8,5.3,5.3,0,0,1-.3.84l-.9,2.38a35.28,35.28,0,0,0-2.27,9,15.45,15.45,0,0,0,.73,6.31c.71,2.19,2.31,4.13,3.63,6.42a12.9,12.9,0,0,1,1.47,3.81,13.2,13.2,0,0,1,.11,4.26,12.86,12.86,0,0,1-1.37,4.2,13.07,13.07,0,0,1-2.84,3.54c-2.25,2-4.8,3.65-6.19,6.11s-1.79,5.2-2.27,7.76a20.43,20.43,0,0,1-2.29,7.11,14.82,14.82,0,0,1-4.46,4.75,15.6,15.6,0,0,1-8.87,2.84,8.35,8.35,0,0,1-1.48-.08,6.27,6.27,0,0,1-1.07-.16A5.73,5.73,0,0,1,229.9,316.4Z" style="fill:#263238"/><path d="M290.17,422.71a23.69,23.69,0,0,1-20.24-11.42L146.1,208.83a2.19,2.19,0,0,1,3.73-2.28L273.66,409a19.42,19.42,0,1,0,32.91-20.62l-3.77-5.86a2.19,2.19,0,1,1,3.68-2.36l3.76,5.87a23.79,23.79,0,0,1-8.15,33.46A23.91,23.91,0,0,1,290.17,422.71Z" style="fill:#455a64"/><path d="M301.84,157s-43.46,2.62-64.64,45.68c0,0-47.91-3.95-62.65,35.25,0,0-55.45-6.3-67.35,44.84,0,0-44.4-1.63-47,38.8,0,0-30,1.16-32,31.61,0,0-25.16-124.07,67.53-189.22C193.79,95,301.84,157,301.84,157Z" style="fill:#FF725E"/><path d="M248.13,422.05l-5.22-23.18,5.64-2.34a56.89,56.89,0,0,0,7.55-6.88,15.35,15.35,0,0,0,2.88-4.37,24,24,0,0,0,2-6.2c.14-2,2.65-2.79,3.62-1.24s.69,7.07-2.43,12.73c-2.11,3.82,1.5,3.33,5.14,2.2a5.56,5.56,0,0,1,6.72,3.1l3.34,7.62a9.17,9.17,0,0,1-5.25,12.28l-2.82,1h0l-21.18,5.24" style="fill:#ffbe9d"/><path d="M54.06,257.43c0,.1-1.69.07-4.36.51a30.48,30.48,0,0,0-4.61,1.12,34.58,34.58,0,0,0-5.33,2.3A35,35,0,0,0,35,264.59a30.75,30.75,0,0,0-3.44,3.27c-1.82,2-2.71,3.45-2.79,3.39a4.82,4.82,0,0,1,.58-1,11,11,0,0,1,.79-1.15,15.51,15.51,0,0,1,1.14-1.45,28,28,0,0,1,3.41-3.4,32,32,0,0,1,4.88-3.32A32.86,32.86,0,0,1,45,258.6a29.06,29.06,0,0,1,4.7-1c.67-.11,1.29-.13,1.84-.17a11.56,11.56,0,0,1,1.39,0A4.8,4.8,0,0,1,54.06,257.43Z" style="fill:#fafafa"/><path d="M93.2,236.13a20.18,20.18,0,0,1-2-.67,30,30,0,0,0-13.83-1.19A27.72,27.72,0,0,0,60,244.06a29.83,29.83,0,0,0-6.18,12.43c-.29,1.3-.4,2-.45,2a1.85,1.85,0,0,1,0-.54c.05-.35.08-.88.22-1.54A26.15,26.15,0,0,1,55.24,251,27.93,27.93,0,0,1,77.33,233.8a28.94,28.94,0,0,1,8.45,0,26.92,26.92,0,0,1,5.51,1.44c.64.22,1.1.47,1.43.61A3.17,3.17,0,0,1,93.2,236.13Z" style="fill:#fafafa"/><path d="M143.64,195.55c0,.06-1-.26-2.83-.62a28.23,28.23,0,0,0-7.83-.34,37.09,37.09,0,0,0-5.34.91,39.2,39.2,0,0,0-5.89,2,38,38,0,0,0-6,3.25,35.8,35.8,0,0,0-5.77,4.58,59.14,59.14,0,0,0-8.78,11.24,108.23,108.23,0,0,0-5.5,10.33c-1.41,3-2.49,5.49-3.25,7.2l-.87,2a3,3,0,0,1-.34.67,5.43,5.43,0,0,1,.24-.71l.79-2c.69-1.74,1.72-4.24,3.1-7.28a102.29,102.29,0,0,1,5.42-10.42A57.74,57.74,0,0,1,109.57,205a36.1,36.1,0,0,1,5.85-4.64,38,38,0,0,1,6.14-3.26,39.12,39.12,0,0,1,6-2,35.1,35.1,0,0,1,5.42-.85,27,27,0,0,1,7.91.5,18.55,18.55,0,0,1,2.07.57A5.2,5.2,0,0,1,143.64,195.55Z" style="fill:#fafafa"/><path d="M191.79,165.81c0,.05-.86-.24-2.41-.64a30,30,0,0,0-6.7-.9,36.4,36.4,0,0,0-21,6.33,46.31,46.31,0,0,0-5,3.94,49.25,49.25,0,0,0-4.08,4.3,53,53,0,0,0-5.62,8.32,67.33,67.33,0,0,0-3,6.11c-.33.73-.55,1.31-.72,1.7a2.7,2.7,0,0,1-.28.58,3.24,3.24,0,0,1,.18-.62c.14-.4.33-1,.63-1.74a57.88,57.88,0,0,1,2.84-6.2,50,50,0,0,1,5.57-8.45,46.15,46.15,0,0,1,4.11-4.37,43.22,43.22,0,0,1,5-4,36,36,0,0,1,21.33-6.27,27.9,27.9,0,0,1,6.74,1.07c.78.2,1.36.46,1.76.59A3.2,3.2,0,0,1,191.79,165.81Z" style="fill:#fafafa"/><path d="M242.1,142.72s-.79-.25-2.22-.68a36.67,36.67,0,0,0-15.48-1.25,34.58,34.58,0,0,0-20.14,9.88,36.77,36.77,0,0,0-8.49,13c-.53,1.39-.78,2.18-.82,2.17a2.61,2.61,0,0,1,.13-.59c.11-.37.24-.95.5-1.65a33.45,33.45,0,0,1,2.62-5.78,35.81,35.81,0,0,1,15.08-14.24,35.84,35.84,0,0,1,11.06-3.27,35.34,35.34,0,0,1,9.42.07,31.62,31.62,0,0,1,6.18,1.47c.72.22,1.25.47,1.62.61A2.12,2.12,0,0,1,242.1,142.72Z" style="fill:#fafafa"/><path d="M258.84,138.22c0,.08-.72.08-1.83.29a12.26,12.26,0,0,0-4.11,1.57,12.51,12.51,0,0,0-3.27,2.94,15,15,0,0,1-1.09,1.51,4.47,4.47,0,0,1,.79-1.72,10.6,10.6,0,0,1,3.3-3.17,10.39,10.39,0,0,1,4.32-1.5A4.29,4.29,0,0,1,258.84,138.22Z" style="fill:#fafafa"/><path d="M56.25,298.59c0,.12-2.16-.13-5.58.29l-1.34.19c-.46.07-.93.2-1.43.31a31.12,31.12,0,0,0-3.11.85,35.33,35.33,0,0,0-6.68,3.13,34.93,34.93,0,0,0-5.8,4.56c-.78.83-1.55,1.59-2.16,2.39-.32.4-.65.76-.92,1.15l-.77,1.11c-1.92,2.86-2.66,4.89-2.78,4.84a9.46,9.46,0,0,1,.53-1.41,11.85,11.85,0,0,1,.77-1.6,19.83,19.83,0,0,1,1.17-2l.76-1.14c.26-.39.59-.77.9-1.18A29.26,29.26,0,0,1,32,307.58a34.54,34.54,0,0,1,5.86-4.67,33.92,33.92,0,0,1,6.81-3.13,29.88,29.88,0,0,1,3.17-.83c.5-.09,1-.21,1.46-.27l1.36-.16a20.38,20.38,0,0,1,2.34-.14,14.1,14.1,0,0,1,1.78,0A7.38,7.38,0,0,1,56.25,298.59Z" style="fill:#fafafa"/><path d="M102.35,269.29a3,3,0,0,1-.63-.07c-.41-.06-1-.21-1.8-.3a41,41,0,0,0-16.45.88,39.8,39.8,0,0,0-25.57,21A39.53,39.53,0,0,0,55.43,297c-.25.75-.38,1.35-.51,1.75a2.29,2.29,0,0,1-.2.6,3,3,0,0,1,.1-.63c.09-.4.19-1,.41-1.78a37.08,37.08,0,0,1,2.33-6.31,40,40,0,0,1,14.55-16.5,39.87,39.87,0,0,1,21.14-6,35.78,35.78,0,0,1,6.71.61c.78.13,1.38.3,1.78.39A3.1,3.1,0,0,1,102.35,269.29Z" style="fill:#fafafa"/><path d="M166.46,225.56a4.82,4.82,0,0,1-.89-.12c-.58-.07-1.42-.26-2.52-.39a47.61,47.61,0,0,0-9.36-.4,41.45,41.45,0,0,0-6.4.88,45.4,45.4,0,0,0-7.09,2.15,82.77,82.77,0,0,0-15,8,63.53,63.53,0,0,0-6.94,5.42,65.27,65.27,0,0,0-5.69,5.91,62.74,62.74,0,0,0-7.74,11.52,65,65,0,0,0-3.72,8.61c-.38,1-.6,1.88-.79,2.43a6.64,6.64,0,0,1-.31.84s.06-.3.2-.87.36-1.41.71-2.46a59.46,59.46,0,0,1,3.58-8.72,61.49,61.49,0,0,1,7.7-11.66,60.89,60.89,0,0,1,12.71-11.46,82.06,82.06,0,0,1,15.14-8,44,44,0,0,1,7.18-2.12,40.83,40.83,0,0,1,6.47-.83,45,45,0,0,1,9.41.57c1.1.16,1.94.38,2.51.49A6.22,6.22,0,0,1,166.46,225.56Z" style="fill:#fafafa"/><path d="M229.3,192.52a3.42,3.42,0,0,1-.77-.1c-.51-.07-1.25-.24-2.21-.36a56.24,56.24,0,0,0-8.19-.6,54.27,54.27,0,0,0-12.07,1.32,52.52,52.52,0,0,0-6.89,2,51.33,51.33,0,0,0-7,3.16,64.69,64.69,0,0,0-12.22,8.48,44.2,44.2,0,0,0-11.64,16.5c-.39.89-.62,1.61-.81,2.09a7.67,7.67,0,0,1-.31.72,3.48,3.48,0,0,1,.21-.76c.16-.48.36-1.22.72-2.12a41.8,41.8,0,0,1,3.64-7.41,44,44,0,0,1,7.87-9.37,63.69,63.69,0,0,1,12.3-8.59,51,51,0,0,1,7.09-3.18,52.24,52.24,0,0,1,7-2,53,53,0,0,1,12.19-1.22,51,51,0,0,1,8.21.77c1,.16,1.7.36,2.2.46A6,6,0,0,1,229.3,192.52Z" style="fill:#fafafa"/><path d="M275.71,154.74a2.78,2.78,0,0,1-.67,0c-.44,0-1.09,0-1.92.05a48.56,48.56,0,0,0-7,.8,46.09,46.09,0,0,0-34.48,28.09,46.34,46.34,0,0,0-2.2,6.68c-.22.8-.33,1.44-.44,1.87a3.09,3.09,0,0,1-.18.65,3,3,0,0,1,.08-.67c.07-.43.15-1.08.34-1.89a42.66,42.66,0,0,1,2.05-6.78,45.46,45.46,0,0,1,34.76-28.31,43,43,0,0,1,7.05-.64c.84,0,1.49,0,1.93,0A5.93,5.93,0,0,1,275.71,154.74Z" style="fill:#fafafa"/><path d="M289,151.37a13,13,0,0,1-1.77-.06,12.33,12.33,0,0,0-4.14.7,12.14,12.14,0,0,0-3.63,2.11,15.81,15.81,0,0,1-1.32,1.18,3.82,3.82,0,0,1,1.08-1.45,10.18,10.18,0,0,1,8-2.9A4.2,4.2,0,0,1,289,151.37Z" style="fill:#fafafa"/><path d="M61.47,213.11a14.35,14.35,0,0,1-1.53-.78,8.36,8.36,0,0,0-3.94-.78,11.12,11.12,0,0,0-3.94,1,9.65,9.65,0,0,1-1.58.71,4.31,4.31,0,0,1,1.42-1A9.48,9.48,0,0,1,56,211a7.66,7.66,0,0,1,4.14,1A3.66,3.66,0,0,1,61.47,213.11Z" style="fill:#fafafa"/><path d="M88.79,202.43a33.36,33.36,0,0,0-4.8-1.52A19.85,19.85,0,0,0,63,209.65a33.15,33.15,0,0,0-2.29,4.48,5.19,5.19,0,0,1,.36-1.31,17.67,17.67,0,0,1,1.61-3.36,19.56,19.56,0,0,1,21.35-8.91,17.91,17.91,0,0,1,3.52,1.21A5.46,5.46,0,0,1,88.79,202.43Z" style="fill:#fafafa"/><path d="M122.51,175.51a13.93,13.93,0,0,1-1.87.18,42.38,42.38,0,0,0-5,.76,44.31,44.31,0,0,0-7.22,2.19,36.63,36.63,0,0,0-20.94,21.68,13,13,0,0,1-.66,1.75,2.81,2.81,0,0,1,.09-.48c.09-.3.18-.77.38-1.34a31.66,31.66,0,0,1,1.91-4.76A35.52,35.52,0,0,1,100,182.59a36.1,36.1,0,0,1,8.23-4.4,41.35,41.35,0,0,1,7.32-2.1,34.52,34.52,0,0,1,5.1-.6c.6,0,1.07,0,1.39,0A2.08,2.08,0,0,1,122.51,175.51Z" style="fill:#fafafa"/><path d="M149.3,151.11c0,.12-2.13.37-5.4,1.5a24.84,24.84,0,0,0-2.62,1.06,31.28,31.28,0,0,0-2.88,1.46,37.76,37.76,0,0,0-6,4.36,36.82,36.82,0,0,0-4.9,5.54,32.22,32.22,0,0,0-1.73,2.74c-.24.44-.5.86-.71,1.28s-.4.83-.58,1.23c-1.43,3.14-1.86,5.27-2,5.23a7.64,7.64,0,0,1,.3-1.48,14.06,14.06,0,0,1,.5-1.7,21.85,21.85,0,0,1,.84-2.2l.56-1.26c.2-.43.45-.86.69-1.31a32.47,32.47,0,0,1,1.71-2.8,36.34,36.34,0,0,1,5-5.66,35.81,35.81,0,0,1,6.1-4.38,32,32,0,0,1,3-1.45,23.76,23.76,0,0,1,2.67-1c.82-.3,1.6-.45,2.27-.63a14.54,14.54,0,0,1,1.75-.35A9.48,9.48,0,0,1,149.3,151.11Z" style="fill:#fafafa"/><path d="M160.63,139.16c0,.08-.79.37-2,1a17.39,17.39,0,0,0-4.29,3.24,17.6,17.6,0,0,0-3.06,4.42c-.6,1.25-.84,2.08-.93,2.06a6.4,6.4,0,0,1,.6-2.21,14.9,14.9,0,0,1,7.52-7.84A6,6,0,0,1,160.63,139.16Z" style="fill:#fafafa"/><path d="M94.82,164.55a10.62,10.62,0,0,1-1.25,1.19c-.84.75-2.12,1.81-3.62,3.33a100.12,100.12,0,0,0-11.74,13.71,131.16,131.16,0,0,0-18.9,38,110.12,110.12,0,0,0-3.62,16.54c-2.93,23.16-1.21,44.4.37,59.57.81,7.61,1.62,13.75,2.17,18,.27,2,.47,3.67.63,4.9a9.48,9.48,0,0,1,.14,1.71,10,10,0,0,1-.37-1.68c-.21-1.22-.48-2.83-.83-4.86-.69-4.23-1.62-10.36-2.54-18-1.78-15.17-3.65-36.49-.7-59.8a109.41,109.41,0,0,1,3.69-16.73,134.46,134.46,0,0,1,5.66-14.89A132.35,132.35,0,0,1,77.56,182.3a92.56,92.56,0,0,1,12.09-13.55,48.82,48.82,0,0,1,3.77-3.19A10.11,10.11,0,0,1,94.82,164.55Z" style="fill:#263238"/><path d="M94.82,164.55c.1.08-1.06,1.37-2.52,4.08A37,37,0,0,0,88.5,181a92.75,92.75,0,0,0-.27,19.37c.46,7.31,1.19,15.33,2.36,23.7a249.59,249.59,0,0,0,9.53,42.17c1.69,5.28,3.22,9.49,4.3,12.4.5,1.36.91,2.47,1.24,3.35a5.24,5.24,0,0,1,.36,1.2,5.17,5.17,0,0,1-.57-1.11c-.38-.86-.86-1.94-1.44-3.27-1.21-2.87-2.86-7-4.66-12.32a228.36,228.36,0,0,1-9.89-42.26c-1.17-8.41-1.87-16.46-2.27-23.8a88.54,88.54,0,0,1,.52-19.55,35.28,35.28,0,0,1,4.2-12.49A19.82,19.82,0,0,1,94,165.47,4.93,4.93,0,0,1,94.82,164.55Z" style="fill:#263238"/><path d="M98.76,161.8a8.67,8.67,0,0,1,1.37-.81c.93-.49,2.27-1.25,4.07-2.11a98.59,98.59,0,0,1,15.72-6.1,74.93,74.93,0,0,1,24.83-2.89c9.46.46,19.68,2.8,29.95,6.38,20.65,7.21,37,19,47.54,28.42a151,151,0,0,1,12,11.86c1.35,1.46,2.31,2.67,3,3.47a7.86,7.86,0,0,1,1,1.27,8.51,8.51,0,0,1-1.15-1.12c-.73-.75-1.75-1.91-3.14-3.32-2.75-2.86-6.82-6.92-12.18-11.56-10.67-9.23-26.92-20.8-47.39-27.95-10.19-3.55-20.3-5.89-29.63-6.4a75.56,75.56,0,0,0-24.55,2.62,109.83,109.83,0,0,0-15.76,5.72c-1.81.79-3.19,1.49-4.15,1.91A7.69,7.69,0,0,1,98.76,161.8Z" style="fill:#263238"/><path d="M288,159a2.23,2.23,0,0,1-.49-.17l-1.36-.61-5.2-2.41-3.75-1.76-4.57-1.83c-3.28-1.31-7-2.89-11.24-4.19l-6.61-2.22c-2.33-.68-4.78-1.3-7.3-2-5-1.51-10.51-2.47-16.25-3.71a234.83,234.83,0,0,0-38-3.59,215.21,215.21,0,0,0-38,3.51c-5.72,1.32-11.22,2.33-16.18,4-2.5.76-4.94,1.42-7.23,2.2l-6.52,2.48a109.66,109.66,0,0,0-11,4.78c-1.59.76-3.09,1.43-4.44,2.1l-3.6,2-5,2.81-1.32.71a2.45,2.45,0,0,1-.47.21s.13-.12.41-.31l1.26-.8,4.89-3,3.56-2.15c1.34-.7,2.84-1.4,4.42-2.19a106.51,106.51,0,0,1,11-5l6.53-2.56c2.3-.81,4.75-1.48,7.25-2.27,5-1.71,10.5-2.76,16.25-4.12a210.58,210.58,0,0,1,38.2-3.61,229.9,229.9,0,0,1,38.18,3.69c5.76,1.28,11.29,2.28,16.31,3.83,2.52.72,5,1.36,7.31,2.07l6.62,2.29c4.25,1.36,7.94,3,11.21,4.37l4.55,1.91,3.72,1.86,5.11,2.61,1.32.7C287.9,158.93,288.05,159,288,159Z" style="fill:#263238"/><path d="M98.76,161.8a4.76,4.76,0,0,1,1,.35c.67.27,1.66.65,2.91,1.21A104.58,104.58,0,0,1,113,168.63a98.7,98.7,0,0,1,14.06,9.93,152.19,152.19,0,0,1,15,14.75,310.65,310.65,0,0,1,23.49,30.12c2.8,4,5,7.28,6.52,9.56l1.71,2.64a3.71,3.71,0,0,1,.53,1,4.41,4.41,0,0,1-.72-.83l-1.88-2.52L165,223.9a369.39,369.39,0,0,0-23.68-29.83,161.32,161.32,0,0,0-14.86-14.71,104.39,104.39,0,0,0-13.79-10c-4.15-2.53-7.66-4.34-10.1-5.56A31.94,31.94,0,0,1,98.76,161.8Z" style="fill:#263238"/></g></svg>