<svg xmlns="http://www.w3.org/2000/svg" viewBox="275.08 47.79 209.51 355.97"><g id="freepik--Character--inject-3"><g id="freepik--character--inject-3"><path d="M316.48,87.64c8.59,1.64,16.81,8.89,21.34,16.58,17.54-.89,39.53,5.07,60,15.45l15.43-59.95C379.78,53.41,347.21,59,316.48,87.64Z" style="fill:#BA68C8"/><path d="M337.82,104.22c17.54-.89,39.53,5.07,60,15.45l15.43-59.95C390.15,58.56,357.43,75.28,337.82,104.22Z" style="opacity:0.35000000000000003"/><path d="M316.48,87.64c30.73-28.69,63.3-34.23,96.81-27.92-23.14-1.17-55.86,15.56-75.47,44.5C333.29,96.53,325.07,89.28,316.48,87.64Z" style="opacity:0.25"/><path d="M484.59,130.9c-8.31-2.71-19-.33-26.69,4.22-14.93-9.24-37.07-14.64-60-15.45l15.43-59.95C445.68,70.37,471.53,90.94,484.59,130.9Z" style="fill:#BA68C8"/><path d="M457.9,135.12c-14.93-9.24-37.07-14.64-60-15.45l15.43-59.95C434.11,69.87,454.7,100.31,457.9,135.12Z" style="opacity:0.45"/><path d="M484.59,130.9c-13.06-40-38.91-60.53-71.3-71.18,20.82,10.15,41.4,40.59,44.61,75.4C465.57,130.57,476.28,128.19,484.59,130.9Z" style="opacity:0.55"/><path d="M409.94,72.77l.43,0,.52,0a3.1,3.1,0,0,0,.44,0c.67,0,.49-.35.63-.68l.7-2.83c.56-2.34,1.26-5.48,1.87-8.65.31-1.58.58-3.17.82-4.67.11-.75.24-1.47.33-2.16s.18-1.34.26-1.94.14-1.16.19-1.65.1-.92.13-1.28c.07-.71.09-1.12.09-1.12s-.18.37-.46,1c-.15.32-.32.72-.51,1.18s-.41,1-.63,1.53L414,53.42c-.26.65-.49,1.34-.75,2-.52,1.43-1,3-1.54,4.49-1,3.06-1.89,6.15-2.53,8.48l-.75,2.81c0,.36-.36.56.21.9.1.07.27.16.39.23l.47.21Z" style="fill:#455a64"/><g id="freepik--character--inject-3"><path d="M356.59,148.41c-6.83,2.27-8.5,2.77-13.24,10.14-4.55,7.07-9.23,20.14-13.3,30.62-7.52-2.14-20.43-9.09-25.52-12.43-4-2.61-4.72-4.58-6.88-7.14s-6.16-8.23-7.09-4.74c-.62,2.36,1.88,3.68,1.71,6.23-.14,1.36-8.35-3.79-11.59-6.06-2.15-1.51-7.14,3.21-5.14,8.33,1.77,4.53,4.61,7.4,9.69,9.55,5.37,2.28,8.18,3.41,14.92,6.44,7.05,3.16,32.86,19.54,35.73,17.74,6.54-3.23,12.53-23.46,16.49-32.2S353.72,157.15,356.59,148.41Z" style="fill:#b16668"/><path d="M358.25,147.57c-2.93,3.86-1.73,2.3-2.63,8.25-.73,4.8-10.81,51-19.94,52.88-4,.85-29.68-15.89-36.69-19.75,2.36-3.5,4.73-7.81,5.54-12.21,4.21,2.31,19.65,10,24.86,11.65,2.4-6.71,5.34-13.6,8.1-20.37C342.75,155.14,345.72,146,358.25,147.57Z" style="fill:#e0e0e0"/><rect x="387.22" y="356.72" width="11.35" height="21.19" transform="translate(-2.59 2.79) rotate(-0.41)" style="fill:#b16668"/><polygon points="356.38 364.32 344 364.84 343.83 343.4 357.85 342.84 356.38 364.32" style="fill:#b16668"/><path d="M396.16,224.54c.08,10.33,1.21,70.36,1.21,70.36.28,3,3.17,8.24,3.47,18.94.43,15.52-2.28,52.11-2.28,52.11s-4.57,3-11.39.23c0,0-8.92-51.58-11-66.93-1.78-13.39-6.86-48.44-6.86-48.44l-7,45.62a76.37,76.37,0,0,1,.73,16.49C362.62,320,357,355.4,357,355.4a18.93,18.93,0,0,1-13.06.21s-2.39-55-2.56-61.54c-.19-7.43,2.59-71.4,2.59-71.4Z" style="fill:#263238"/><path d="M387.25,372.35v-1.62c-.61,0-1,.6-1.21,2.06a31.16,31.16,0,0,1-.64,3.21,37,37,0,0,1-1.94,5.82c-1.57,4-2.91,5.45-6.55,10.1-.86,1.1-2.82,2.85-3.5,4.08s-.89,4.62.28,5.39c4.3,2.83,10.81,2.86,15.4,1.48a9.29,9.29,0,0,0,6.63-7.55c.16-1.05.09-2.12.2-3.17a15,15,0,0,1,2.8-6.61,20,20,0,0,0,2.15-3.61c.94-2.34.16-4.95-.47-7.27-.54-2-1.13-4.21-1.81-4,0,.24,0,1.23,0,1.23-.82.92-3.09,1.85-5.66,2C391.27,373.92,387.24,373.62,387.25,372.35Z" style="fill:#263238"/><path d="M344,360.74c-.64,0-1.28,1.22-2.69,2.76a27.09,27.09,0,0,1-7.25,5.3c-4.62,2.35-13.62,6-17.68,7.86-2.55,1.16-2.4,4.24.24,6s9,2.95,16.65,1.18c4.16-1,9.55-4.84,13-4.66s9.85.09,12.37-1.67,1.48-5.48.74-8.68c-.81-3.49-1.48-9.35-2.63-9.11l-.21,1.73c-1.47,2.26-11.64,2.83-12.51.67Z" style="fill:#263238"/><path d="M369.34,250.81s-9.67-3.08-16.13-9.23c0,0,2.94,5.42,11.62,10.42L363,292Z"/><path d="M377.56,147.39c2.28.55,9.13,1.12,13.16,2.27,3,.86,2.87,4.58,3.49,7.31,2,8.73,2.32,27.06,2.32,27.06l.12,47.74c-7.39,5.38-37.76,8.11-53.31-3.25,0,0,1.9-55.88,1.9-63.79s4.39-17.42,16.53-18.12Z" style="fill:#f0f0f0"/><path d="M375,113.35a14.24,14.24,0,1,1-14.24-14.24A14.25,14.25,0,0,1,375,113.35Z" style="fill:#263238"/><path d="M385.34,123.47S383,134.32,382.1,136.1a4.91,4.91,0,0,1-2.84,2.29l.17-7.63Z" style="fill:#263238"/><path d="M382.58,106.37a5.87,5.87,0,0,1,4.22,1.84c1.9,1.94.9,9.31-1.46,15.26L381,124Z" style="fill:#263238"/><path d="M379.68,124c.88.52,2.12-1.16,3.19-2.28s4.59-2.66,6.34,1-1.55,8.73-4.31,9.6c-4.76,1.49-5.47-1.56-5.47-1.56l-.36,17.7h0c-3.29,4.22-10.68,9.18-14.67,8.47-3.17-.56-3.87-5.93-.83-9.45v-5.23a29.62,29.62,0,0,1-6.41.33c-3.5-.54-5.71-3.3-6.77-7.09-1.71-6.09-2.35-11-.91-23,1.59-13.12,16.85-13.26,25.1-8.07S379.68,124,379.68,124Z" style="fill:#b16668"/><path d="M348.26,106.67a15.73,15.73,0,0,0,4,2.19,24.87,24.87,0,0,0,14.43.94c.31-.07,4.5-1.18,4.41-1.53a7.2,7.2,0,0,0,1.65,3.61,11,11,0,0,0,3.9,2.56c.3,2.36.29,5.39.43,7.76.05.81.05,5,1.95,3.79a10.1,10.1,0,0,0,1.66-1.86,28,28,0,0,1,2.18-2.43c.57-.51.53-1.7.56-2.38a33.86,33.86,0,0,0-.15-4.27c-.11-1.46-.36-2.92-.49-4.38a7,7,0,0,1,.59-2.43,8.78,8.78,0,0,0,.37-2.79c-.16-2.93-2.41-5.43-5.05-6.73-3.7-1.81-8.17-2.1-12.2-1.77-3.26.27-6.44.27-9.71.22-.82,0-9.91-.43-9.9-.55a8.94,8.94,0,0,0,1.32,5.77l-2.88.12c-.42,0,.72,2,.8,2.06a11.72,11.72,0,0,0,1.77,1.82Z" style="fill:#263238"/><path d="M383.44,107.9l5.27-2.83a2.91,2.91,0,0,0-4-1.32A3.14,3.14,0,0,0,383.44,107.9Z" style="fill:#263238"/><path d="M363.58,142.25s7.82-1.57,10.55-3a9,9,0,0,0,3.78-3.73,12.25,12.25,0,0,1-2.15,4.41c-2,2.55-12.18,4.43-12.18,4.43Z" style="fill:#9a4a4d"/><path d="M364.38,121.2a1.68,1.68,0,1,0,1.68-1.74A1.7,1.7,0,0,0,364.38,121.2Z" style="fill:#263238"/><path d="M366.06,115.52l3.46,1.92a2.07,2.07,0,0,0-.8-2.76A1.93,1.93,0,0,0,366.06,115.52Z" style="fill:#263238"/><path d="M364.24,132.61l-3.87,1.45a2,2,0,0,0,2.63,1.29A2.16,2.16,0,0,0,364.24,132.61Z" style="fill:#9a4a4d"/><path d="M350.54,116.92l3.16-2.44a1.92,1.92,0,0,0-2.75-.42A2.1,2.1,0,0,0,350.54,116.92Z" style="fill:#263238"/><path d="M351.25,120.89a1.63,1.63,0,1,0,1.63-1.69A1.65,1.65,0,0,0,351.25,120.89Z" style="fill:#263238"/><polygon points="359.94 119.55 359.38 129.77 354.05 127.95 359.94 119.55" style="fill:#9a4a4d"/><path d="M358,155.81c1,2.36,2.83,3.33,6.15,3.7a12.42,12.42,0,0,0,9.21-3.2l-4.14-4.12L364,156.14l-.45-4.41Z" style="fill:#BA68C8"/><path d="M358,155.81c1,2.36,2.83,3.33,6.15,3.7a12.42,12.42,0,0,0,9.21-3.2l-4.14-4.12L364,156.14l-.45-4.41Z" style="opacity:0.2"/><path d="M360.62,154.52a10.93,10.93,0,0,0-.54,4.43,7.57,7.57,0,0,0,1.47,3.69,4.07,4.07,0,0,0,3.58.39,9.77,9.77,0,0,0,3.4-7.41l-4.54.52Z" style="fill:#BA68C8"/><path d="M361.54,162.64s-6.77,37.37-7,40.39,3.89,13.73,6.47,13.82,7.65-9.61,7.73-12.35-3.26-41.77-3.26-41.77Z" style="fill:#BA68C8"/><path d="M365.44,162.73a3,3,0,0,1-3.9-.09l-.1.59s1.29,1.32,4.07.53Z" style="opacity:0.2"/><path d="M364,156.14l15.16-11.56.06-3s3.55.94,4.34,7.17c-2.16,5-6.08,9.3-11.83,12.58l-3.19-5.68Z" style="fill:#e0e0e0"/><path d="M363.58,143s-3.56,1.65-5.08,4.16S357,157.82,357,157.82l3.63-3.3,3.37,1.62c-.32-3.19-.42-8.66-.42-8.66Z" style="fill:#e0e0e0"/></g><path d="M426.38,198c-6.33-10.8-16.33-30.28-21.4-37-7.08-9.4-6.67-9.22-13.26-11.27-1.07,3.17-3.53,16.25,1.2,25.65l16.37,23.3c-6.65,1.59-18.55,4.7-22.58,3.87l-1.29,12c23.76-2,34.7-2.35,41.49-6.72C429.87,205.87,428.35,201.34,426.38,198Z" style="fill:#b16668"/><path d="M393.83,177c-3.59-4.26-6.18-17.75-3.11-27.34,6.23.53,7.71,1.79,12.21,7.34,6.56,8.07,13.78,22.55,16.71,27.38s10,17.3,9.69,20-2.53,5.27-8.32,6.87-31.2,3.27-31.2,3.27a54,54,0,0,1-1.1-12c7.64-1.49,14.59-2.93,19.09-4.21C407.8,198.28,397,180.79,393.83,177Z" style="fill:#e0e0e0"/><path d="M387.78,202.71a6.39,6.39,0,0,1-3.15-1.24c-1.05-.72-2-1.53-3.15-2.18a63.75,63.75,0,0,0-8.58-3.77,1.73,1.73,0,0,0-.89-.17,1.15,1.15,0,0,0-.75.66,3.08,3.08,0,0,0-.21,1c-.07.72.11,1.45,0,2.18C370.19,206.45,386.14,206.28,387.78,202.71Z" style="fill:#b16668"/><path d="M375.89,218.52h0l4.87-19.34-5.85-1.47-4.86,19.34a1.43,1.43,0,0,0,.53,1.5,4.66,4.66,0,0,0,4.13,1A1.45,1.45,0,0,0,375.89,218.52Z" style="fill:#BA68C8"/><path d="M375.89,218.52h0l4.87-19.34-5.85-1.47-4.86,19.34a1.43,1.43,0,0,0,.53,1.5,4.66,4.66,0,0,0,4.13,1A1.45,1.45,0,0,0,375.89,218.52Z" style="opacity:0.25"/><path d="M376.06,196.73a4.69,4.69,0,0,1,4.14,1c1,.94.71,2-.6,2.38a4.69,4.69,0,0,1-4.14-1A1.3,1.3,0,0,1,376.06,196.73Z" style="fill:#BA68C8"/><path d="M376.06,196.73a4.69,4.69,0,0,1,4.14,1c1,.94.71,2-.6,2.38a4.69,4.69,0,0,1-4.14-1A1.3,1.3,0,0,1,376.06,196.73Z" style="opacity:0.1"/><path d="M376.33,198,409.85,67.3a1.68,1.68,0,1,1,3.25.84L379.59,198.8C378.74,199.48,376.56,198.89,376.33,198Z" style="fill:#263238"/><path d="M387.78,202.77c-1.61.66-4.71,0-7.9-.23-2.57,1.81-5.78-.29-5.85-1.44l-.69-2.46s-2.67-.14-3.88,1-.5,2.79-1,3.47a9.23,9.23,0,0,0-1.28,2.75c-.22.86-1.29,2.58-1.22,3.44s0,2.81,0,2.81a7.39,7.39,0,0,0,6.33,4c4.77.34,13.14-1.64,13.14-1.64Z" style="fill:#b16668"/><path d="M404.73,93a91.8,91.8,0,0,1,50,19.36c15.12,2.63,24.44,9.25,29.84,18.57-11.65-40.65-40.19-63.18-71.3-71.18s-67-2.06-96.81,27.92c9.23-5.55,20.58-6.85,35.1-1.86A91.77,91.77,0,0,1,404.73,93Z" style="fill:#BA68C8"/><path d="M351.57,85.78A91.79,91.79,0,0,1,404.73,93l8.56-33.25C377.74,50.57,351.57,85.78,351.57,85.78Z" style="opacity:0.15"/><path d="M316.48,87.64c29.83-30,65.69-35.93,96.81-27.92-35.55-9.15-61.71,26.06-61.71,26.06C337.06,80.79,325.71,82.09,316.48,87.64Z" style="opacity:0.1"/><path d="M454.75,112.33a91.8,91.8,0,0,0-50-19.36l8.56-33.25C448.83,68.87,454.75,112.33,454.75,112.33Z" style="opacity:0.2"/><path d="M484.59,130.9c-11.65-40.65-40.19-63.18-71.3-71.18,35.54,9.14,41.46,52.61,41.46,52.61C469.87,115,479.19,121.58,484.59,130.9Z" style="opacity:0.25"/></g></g></svg>