<svg xmlns="http://www.w3.org/2000/svg" viewBox="76.95 43.57 359.71 379.71"><g id="freepik--Character--inject-11"><path d="M353.63,195.27c.23-.36-2.77-5.79-8.45-9.41s-11.89-4-12.12-3.67c.23-.36-3.6-6.32-10.29-10.57s-13.72-5.2-13.95-4.84c.23-.36-5.3-7.4-14.1-13s-17.52-7.61-17.75-7.25c.23-.36-3.6-6.32-10.3-10.58s-13.72-5.2-14-4.84c.23-.36-2.78-5.79-8.46-9.41s-11.88-4-12.11-3.67c7.69-12.09,47.17-15.35,80.36,5.48l1,.65c.35.22.7.44,1,.67C347.53,146.05,361.32,183.18,353.63,195.27Z" style="fill:#263238"/><path d="M192.16,175.25l-8.73-3.43,7.77-4.2s4.69,3,4.4,6.62Z" style="fill:#263238"/><polygon points="179.73 165.52 186.43 162.36 192.33 168.47 183.43 171.81 179.73 165.52" style="fill:#263238"/><path d="M239.4,186.31,238,187.88c-.46.49-.94,1-1.41,1.44-.93,1-1.91,1.86-2.9,2.77a74.34,74.34,0,0,1-6.35,5.17,47.66,47.66,0,0,1-7.56,4.58,27.29,27.29,0,0,1-4.9,1.82,16.75,16.75,0,0,1-6.95.42,12.55,12.55,0,0,1-1.67-.4,13.65,13.65,0,0,1-1.41-.46,19.33,19.33,0,0,1-2.65-1.21,22.53,22.53,0,0,1-7.66-7.17,27.94,27.94,0,0,1-2.3-4,38.56,38.56,0,0,1-2.71-8.17c-.3-1.36-.5-2.72-.67-4.08-.08-.68-.14-1.37-.19-2.06s0-1.33-.08-2.16l8.22-1.34.67,1.48c.23.52.47,1,.72,1.55.48,1,1,2,1.53,3a35.81,35.81,0,0,0,3.45,5.34,16.07,16.07,0,0,0,3.77,3.6,6.87,6.87,0,0,0,1.74.81,6.33,6.33,0,0,0,.79.18,1.72,1.72,0,0,0,.39,0c.11,0,.33.05.14,0-.38-.1-.1-.13.38-.37a17.9,17.9,0,0,0,2-1,46.4,46.4,0,0,0,4.86-3.56c1.66-1.38,3.35-2.87,5-4.43l2.48-2.36,2.36-2.31Z" style="fill:#407BFF"/><path d="M253.11,167.65c12.82,7.85,34.46-.07,41.29,10.11,0,0-7.94,4.23-7.69,13.43,0,0-9.14-11.63-27.75-13.26C246.65,176.86,253.11,167.65,253.11,167.65Z" style="fill:#263238"/><path d="M233.75,170.94c-2.08-7.64,23.22-6.64,29.55-6.25s5.66,10.34,2.87,19.5S238.74,189.28,233.75,170.94Z" style="fill:#407BFF"/><path d="M226.41,178.88c-.14,6.29.74,19.39,5.17,46.6h35.26c-.52-12.74-1.13-21.25,3.53-43.59a8.94,8.94,0,0,0-7.86-10.72c-1.39-.14-2.88-.26-4.39-.33a111.12,111.12,0,0,0-16,0c-3.44.32-7.13.87-9.94,1.35A6.93,6.93,0,0,0,226.41,178.88Z" style="fill:#407BFF"/><path d="M226.41,178.88c-.14,6.29.74,19.39,5.17,46.6h35.26c-.52-12.74-1.13-21.25,3.53-43.59a8.94,8.94,0,0,0-7.86-10.72c-1.39-.14-2.88-.26-4.39-.33a111.12,111.12,0,0,0-16,0c-3.44.32-7.13.87-9.94,1.35A6.93,6.93,0,0,0,226.41,178.88Z" style="fill:#fff;opacity:0.30000000000000004"/><path d="M244,130.94c-3,1.49-8.8,6.5-9.41,16-.29,4.63-1.11,11.69-5.78,10.41,6.08,9.11,13.61,2.16,13.93-.58,2.77,3,25,9.55,22.44-3.23C266.52,143.38,265.51,130.3,244,130.94Z" style="fill:#263238"/><path d="M256.53,152.81c-1,5.15-2,14.59,1.59,18,0,0-2.65,3.31-11.41,7-6.9-4.32-4.61-7-4.61-7,5.75-1.37,5.6-5.63,4.6-9.64Z" style="fill:#ffc3bd"/><path d="M252.52,156.23l-5.81,5a16.73,16.73,0,0,1,.49,2.84c2.19-.32,5.21-2.73,5.44-5A7.57,7.57,0,0,0,252.52,156.23Z" style="opacity:0.2"/><path d="M263.69,145.31c-2.93,8.1-4,11.6-9.41,14.61-8.14,4.53-17.45-.84-17-9.65.4-7.94,5.12-19.86,14.16-20.78A11.76,11.76,0,0,1,263.69,145.31Z" style="fill:#ffc3bd"/><path d="M249.5,131.72c2.8,6.39,7.17,12.26,14.92,12.17C265.08,140.69,263.73,132.81,249.5,131.72Z" style="fill:#263238"/><path d="M243.51,131c.53,3.77,8.66,8.75,14.61,8.33-4.36-.56-10.35-5.7-10.8-8.33A21.3,21.3,0,0,0,243.51,131Z" style="fill:#263238"/><path d="M259.74,150.59c-1.14-4-.22-9.72,1.92-11.39s6.08,7.54,5.8,10.38S259.74,150.59,259.74,150.59Z" style="fill:#263238"/><path d="M231.58,225.48s3,65.39,3.54,91.87c.6,27.54,16.23,91.87,16.23,91.87h7s-4.28-53.46-7.56-91.87c5-29.5,8.32-91.87,8.32-91.87Z" style="fill:#ffc3bd"/><path d="M231.58,225.48s3,65.39,3.54,91.87c.6,27.54,16.23,91.87,16.23,91.87h7s-4.28-53.46-7.56-91.87c5-29.5,8.32-91.87,8.32-91.87Z" style="fill:#263238;opacity:0.9"/><path d="M250.33,405.66l11.1,2,1.29,6.95a1.5,1.5,0,0,1-1.5,1.65c-3.64-.06-5.4-.28-10-.28-2.83,0-10.38.3-14.29.3s-4.12-3.87-2.49-4.22c7.3-1.56,11.87-3.73,14.33-5.79A2.44,2.44,0,0,1,250.33,405.66Z" style="fill:#407BFF"/><path d="M240.79,225.48s16.56,68.47,23.34,94.08c7.11,26.9,37.9,74,38.65,75.81l5.63-2.11S288.8,339,279.29,315.13c0-29.9-12.45-89.65-12.45-89.65Z" style="fill:#ffc3bd"/><path d="M240.79,225.48s16.56,68.47,23.34,94.08c7.11,26.9,37.9,74,38.65,75.81l5.63-2.11S288.8,339,279.29,315.13c0-29.9-12.45-89.65-12.45-89.65Z" style="fill:#263238;opacity:0.9"/><path d="M249.51,142.79c-.2.67-.71,1.11-1.15,1s-.64-.77-.44-1.45.71-1.11,1.15-1S249.71,142.12,249.51,142.79Z" style="fill:#263238"/><path d="M241.91,140.56c-.19.67-.71,1.11-1.15,1s-.63-.78-.44-1.45.72-1.12,1.16-1S242.11,139.89,241.91,140.56Z" style="fill:#263238"/><path d="M241.66,139.21l-1.48-.94S240.64,139.77,241.66,139.21Z" style="fill:#263238"/><path d="M244.57,143.46a18.46,18.46,0,0,1-3.66,3.58,3,3,0,0,0,2.27,1.16Z" style="fill:#ed847e"/><path d="M245.92,151.77a7.66,7.66,0,0,1-1.16-.23.22.22,0,0,1-.14-.26.22.22,0,0,1,.26-.14,5.51,5.51,0,0,0,5-.81.21.21,0,0,1,.29,0,.2.2,0,0,1,0,.29A5.76,5.76,0,0,1,245.92,151.77Z" style="fill:#263238"/><path d="M264.71,152a6.3,6.3,0,0,1-4.55,1.58c-2.2-.14-2.57-2.29-1.35-4,1.1-1.53,3.57-3.29,5.49-2.31A2.83,2.83,0,0,1,264.71,152Z" style="fill:#ffc3bd"/><path d="M252.32,141.22a.43.43,0,0,1-.22-.24,3.26,3.26,0,0,0-2.09-2.11.42.42,0,0,1-.3-.5.41.41,0,0,1,.5-.3,4.11,4.11,0,0,1,2.67,2.64.41.41,0,0,1-.56.51Z" style="fill:#263238"/><path d="M241,136.76a.37.37,0,0,1-.25-.18.41.41,0,0,1,.13-.56,4.08,4.08,0,0,1,3.73-.45.42.42,0,0,1-.34.76,3.22,3.22,0,0,0-3,.38A.4.4,0,0,1,241,136.76Z" style="fill:#263238"/><path d="M249.26,141.43l-1.48-.93S248.24,142,249.26,141.43Z" style="fill:#263238"/><path d="M231.58,225.48l1.32,73.61,48.5-6c1.89-38.26-7.47-59.5-14.56-67.6Z" style="fill:#263238"/><polygon points="257.3 285.3 251.12 261.77 242.56 251.47 257.3 285.3" style="opacity:0.2"/><path d="M242.5,385.29c.94,3,7.14,19.14,5.21,21.88l13.72.45s-2-15.41-1.62-19.3S241.57,382.25,242.5,385.29Z" style="fill:#407BFF"/><path d="M300,392.61l11.28-2.13,2.82,4.45a1.43,1.43,0,0,1-.3,2.16,50.44,50.44,0,0,0-6.23,4.3c-3.61,2.85-6.56,8-10.15,9.59s-5.15-1.55-4.11-2.81c2.42-2.93,5.17-11.5,5.45-14.48C298.81,393.12,299.47,392.81,300,392.61Z" style="fill:#407BFF"/><path d="M288.36,376.7c5.55,5.83,10.55,15.35,10.29,18.38l12.62-4.6s-4.26-12.94-7-20.64C302.94,366.15,286,374.2,288.36,376.7Z" style="fill:#407BFF"/><path d="M237.26,164.55c2.45,2.45-1.69,2.77-.64,5.81.56,1.62-5.63-1-2.27,7.36,1.66,4.11,3.07,7.14,9.93,6.86s10.82-4.9,15.63-6.26,9.15-1.61,7.18-4.68-5.16-4.22-4.16-7,0-5.81-4.37-4.16S233.39,160.69,237.26,164.55Z" style="fill:#263238"/><path d="M259.25,165c18,6.83,42.53-4.9,53.89,7.13,0,0-7.15,5.46-5.4,14.5,0,0-15.88-13.37-41-12.44C254.35,174.69,259.25,165,259.25,165Z" style="fill:#263238"/><path d="M268.64,169.41c-5.5.13-14.11,5.26-14.5,9.55-1,10.56,1.06,57.82,4.68,65.64a34,34,0,0,0,17.53-5.92c4.61-3.4,5.72-6,3.73-10s-5.29-27.7-4.71-36.81S278.8,169.18,268.64,169.41Z" style="fill:#407BFF"/><path d="M266.82,213.93l-7.75-5.29.9,8.79s5.13,2.18,7.95-.09Z" style="fill:#263238"/><path d="M256.37,209.66,255,215.17a1.17,1.17,0,0,0,.9,1.42l4,.84-.9-8.79-1.65.13A1.18,1.18,0,0,0,256.37,209.66Z" style="fill:#263238"/><path d="M273.68,171.44c1.19,1,2.21,1.86,3.27,2.83s2.06,1.91,3.07,2.89c2,2,4,4,5.89,6.18a79.14,79.14,0,0,1,5.5,7A47.61,47.61,0,0,1,294,194.4a26.64,26.64,0,0,1,2.26,5.19,17.07,17.07,0,0,1,.73,3.69c0,.35,0,.74,0,1.14v.29l0,.22,0,.45a15.31,15.31,0,0,1-3.54,8.75,16.57,16.57,0,0,1-5.36,4.11A23.6,23.6,0,0,1,282.8,220a35.29,35.29,0,0,1-9.44.55c-1.5-.08-3-.28-4.41-.5s-2.82-.54-4.38-.95l.88-8.28c4.78-.65,10-1.53,13.67-3.21,1.81-.79,3-1.94,2.93-2.32,0-.2-.13-.19-.17-.37s-.07-.43-.09-.09c0,.13-.07,0-.19-.22a21.09,21.09,0,0,0-1.23-2c-.56-.82-1.23-1.69-1.95-2.57-1.47-1.75-3.09-3.57-4.83-5.33s-3.53-3.55-5.36-5.31l-2.77-2.62-2.72-2.54Z" style="fill:#407BFF"/><path d="M231.14,171.24c4.82-2.66,3.37-.29,3.22,4-.37,10.6,5.55,61.53,1.93,69.35-2.56.29-7,.1-8.12-3.33s-1.22-5.6-1.22-11.35c0-16-3-37.62-2.33-46.72S228.65,172.63,231.14,171.24Z" style="fill:#407BFF"/><path d="M260.66,192c-.15,2-1.41,3.49-2.82,3.38s-2.41-1.8-2.26-3.78,1.41-3.49,2.81-3.38S260.81,190.05,260.66,192Z" style="fill:#263238;opacity:0.4"/><path d="M261.61,208.15c0,2-1.11,3.6-2.52,3.61s-2.56-1.58-2.58-3.56,1.11-3.6,2.52-3.62S261.59,206.17,261.61,208.15Z" style="fill:#263238;opacity:0.4"/><path d="M262.82,224.74c.2,2-.78,3.68-2.18,3.82s-2.7-1.35-2.89-3.32.78-3.69,2.18-3.83S262.63,222.76,262.82,224.74Z" style="fill:#263238;opacity:0.4"/><path d="M235.17,239.48l-.53,0c.51-8.74-.54-22.87-1.56-36.54-.73-9.78-1.41-19-1.41-25.09h.52c0,6.05.69,15.28,1.42,25.05C234.62,216.56,235.68,230.71,235.17,239.48Z" style="fill:#263238;opacity:0.2"/><path d="M278.32,133.5c1.84-1.9,5.33-.27,6.9,3.26s-1.56,7.43-5.65,7.13-6.38-4.71-3.91-6.29S277.07,134.77,278.32,133.5Z" style="fill:#407BFF"/><path d="M246.71,128.74c-.25-3.66,5.88-4.27,12.54-4.42s14.66,6,18.79,8.72,3.79,9.2-2,9.6-3.77,8.89-7,7.64S266.86,131.08,246.71,128.74Z" style="fill:#407BFF"/><path d="M246.71,128.74c-.25-3.66,5.88-4.27,12.54-4.42s14.66,6,18.79,8.72,3.79,9.2-2,9.6-3.77,8.89-7,7.64S266.86,131.08,246.71,128.74Z" style="fill:#fff;opacity:0.30000000000000004"/><path d="M246.43,127.21c-2.55,1.17-6.09,3.85-4.9,4.78,1.56,1.22,7.23-.54,13.85,3.68,7.39,4.73,8.67,12.25,9.24,17.62a1.09,1.09,0,0,0,1.47.9c2.3-.81,3.87-2.61,3.82-3.91-.06-1.53.74-8.22-6.32-16.5C259.28,128.71,248,126.48,246.43,127.21Z" style="fill:#407BFF"/><path d="M251.49,220.2a7.88,7.88,0,0,1-6.74-11.93,1.06,1.06,0,0,1,1.45-.35,1,1,0,0,1,.35,1.44,5.77,5.77,0,1,0,9.89,5.94l67.09-110.76a1.05,1.05,0,0,1,1.8,1.09L258.24,216.39A7.86,7.86,0,0,1,251.49,220.2Z" style="fill:#263238"/><path d="M353.63,195.27c.36-.14,1.14-7.92-1.91-15.35s-8.43-11-8.72-10.72c.34-.2-.85-8.51-6.26-15.54s-12.44-9.49-12.67-9.15c.3-.25-4.24-9.11-13.81-15.17s-19.5-6.45-19.6-6.07c.21-.35-5-5.69-13.65-7.59s-16.7.53-16.74.92c.13-.38-5.39-3.76-13.4-3.35s-14.75,4.4-14.72,4.78c-1.72-12.87,45.82-35,89.06-8.74l1.29.8,1.28.83C365.93,138.92,366,191.37,353.63,195.27Z" style="fill:#407BFF"/></g><g id="freepik--Leafs--inject-11"><path d="M108.78,89s-4.08,3.17-3.49,6.74c-1.09-2.4-5.26-6.69-7.94-6.67-1.2,4.39,3.79,9.31,3.79,9.31s-5.5-.69-7,1c4.19,5.12,11.61,4.55,13.24,4.36a39.63,39.63,0,0,1,2.35,3.55l.44-.24a38.5,38.5,0,0,0-2.36-3.56C112,95.5,108.78,89,108.78,89Z" style="fill:#407BFF"/><path d="M108.78,89s-4.08,3.17-3.49,6.74c-1.09-2.4-5.26-6.69-7.94-6.67-1.2,4.39,3.79,9.31,3.79,9.31s-5.5-.69-7,1c4.19,5.12,11.61,4.55,13.24,4.36a39.63,39.63,0,0,1,2.35,3.55l.44-.24a38.5,38.5,0,0,0-2.36-3.56C112,95.5,108.78,89,108.78,89Z" style="fill:#fff;opacity:0.30000000000000004"/><path d="M370.64,342.08s-5.68-1.34-8.39,1.7c1.33-2.65,2.15-9.35.25-11.69-4.72,2-5.51,9.91-5.51,9.91s-3.28-5.33-5.79-5.42c-1.55,7.3,4.2,13.43,5.52,14.72a45.17,45.17,0,0,1-1.46,4.58l.52.21a43.74,43.74,0,0,0,1.47-4.59C367.22,349.5,370.64,342.08,370.64,342.08Z" style="fill:#407BFF"/><path d="M370.64,342.08s-5.68-1.34-8.39,1.7c1.33-2.65,2.15-9.35.25-11.69-4.72,2-5.51,9.91-5.51,9.91s-3.28-5.33-5.79-5.42c-1.55,7.3,4.2,13.43,5.52,14.72a45.17,45.17,0,0,1-1.46,4.58l.52.21a43.74,43.74,0,0,0,1.47-4.59C367.22,349.5,370.64,342.08,370.64,342.08Z" style="fill:#fff;opacity:0.30000000000000004"/><path d="M159.78,245.52s-5.33-2.74-8.79-.37c2-2.32,4.45-8.81,3.12-11.61-5.21.88-7.93,8.54-7.93,8.54s-2-6.12-4.46-6.83c-3.33,6.91.9,14.44,1.9,16.05a45.3,45.3,0,0,1-2.58,4.22l.47.33a43.35,43.35,0,0,0,2.59-4.22C154.55,252.09,159.78,245.52,159.78,245.52Z" style="fill:#407BFF"/><path d="M191.67,419.12a5.18,5.18,0,0,0-4.31-4.05c3,.12,9.81-.93,11.49-2.45-3.48-2-11.41-.71-11.41-.71s4.16-2.91,3.45-4.25a19.52,19.52,0,0,0-12.62,6.16c-1.57.12-3.38.23-4.94.25l0,.32c1.57,0,3.37-.12,5-.24C183.34,419,191.67,419.12,191.67,419.12Z" style="fill:#407BFF"/><path d="M420.66,104.74s-3.83-1.83-6.24-.09c1.36-1.68,3-6.32,2-8.28-3.66.72-5.45,6.2-5.45,6.2s-1.51-4.29-3.28-4.75c-2.23,5,.91,10.21,1.65,11.33a28.45,28.45,0,0,1-1.74,3l.34.23a32.76,32.76,0,0,0,1.75-3A13.77,13.77,0,0,0,420.66,104.74Z" style="fill:#407BFF"/><path d="M420.66,104.74s-3.83-1.83-6.24-.09c1.36-1.68,3-6.32,2-8.28-3.66.72-5.45,6.2-5.45,6.2s-1.51-4.29-3.28-4.75c-2.23,5,.91,10.21,1.65,11.33a28.45,28.45,0,0,1-1.74,3l.34.23a32.76,32.76,0,0,0,1.75-3A13.77,13.77,0,0,0,420.66,104.74Z" style="opacity:0.4"/><path d="M191.65,120.89c.33-2.84-.39-5.79-1.75-6-1.74-.28-2.58,1.59-2.58,1.59s.71-3.49-1.21-5.25-3.23,1.59-3.23,1.59a3.52,3.52,0,0,0-5.26-1.36h0c-3.37,2.33,1,5.29,1,5.29s-3.48,1-1.86,3,4.64,1.91,4.64,1.91-2.81.83-1.64,2.81c1,1.75,3.36,1.5,6.1,1.14-2.83,1.56-1.3,4.89,2,4.18a19.45,19.45,0,0,1,6,0c.55.63,1.08,1.28,1.54,1.9l.41-.3c-.48-.64-1-1.31-1.6-1.95a16.52,16.52,0,0,1,.65-5.85C195.89,120.16,193.26,118.34,191.65,120.89Z" style="fill:#407BFF"/><path d="M191.65,120.89c.33-2.84-.39-5.79-1.75-6-1.74-.28-2.58,1.59-2.58,1.59s.71-3.49-1.21-5.25-3.23,1.59-3.23,1.59a3.52,3.52,0,0,0-5.26-1.36h0c-3.37,2.33,1,5.29,1,5.29s-3.48,1-1.86,3,4.64,1.91,4.64,1.91-2.81.83-1.64,2.81c1,1.75,3.36,1.5,6.1,1.14-2.83,1.56-1.3,4.89,2,4.18a19.45,19.45,0,0,1,6,0c.55.63,1.08,1.28,1.54,1.9l.41-.3c-.48-.64-1-1.31-1.6-1.95a16.52,16.52,0,0,1,.65-5.85C195.89,120.16,193.26,118.34,191.65,120.89Z" style="fill:#fff;opacity:0.6000000000000001"/><path d="M413.79,308.47c2.81.55,5.8.06,6.12-1.28.41-1.71-1.39-2.7-1.39-2.7s3.43,1,5.33-.8-1.34-3.34-1.34-3.34a3.52,3.52,0,0,0,1.77-5.14h0c-2.06-3.55-5.35.55-5.35.55s-.76-3.55-2.9-2.09-2.26,4.47-2.26,4.47-.61-2.86-2.68-1.84c-1.82.89-1.75,3.23-1.61,6-1.34-2.94-4.77-1.67-4.31,1.69a19.72,19.72,0,0,1-.46,6c-.66.5-1.35,1-2,1.4l.26.42c.68-.43,1.39-.93,2.07-1.44a16.5,16.5,0,0,1,5.79,1.1C414.19,312.75,416.2,310.28,413.79,308.47Z" style="fill:#407BFF"/><path d="M413.79,308.47c2.81.55,5.8.06,6.12-1.28.41-1.71-1.39-2.7-1.39-2.7s3.43,1,5.33-.8-1.34-3.34-1.34-3.34a3.52,3.52,0,0,0,1.77-5.14h0c-2.06-3.55-5.35.55-5.35.55s-.76-3.55-2.9-2.09-2.26,4.47-2.26,4.47-.61-2.86-2.68-1.84c-1.82.89-1.75,3.23-1.61,6-1.34-2.94-4.77-1.67-4.31,1.69a19.72,19.72,0,0,1-.46,6c-.66.5-1.35,1-2,1.4l.26.42c.68-.43,1.39-.93,2.07-1.44a16.5,16.5,0,0,1,5.79,1.1C414.19,312.75,416.2,310.28,413.79,308.47Z" style="fill:#fff;opacity:0.5"/><path d="M294.25,419.1c-1.91-.68-4.58-1.08-5.65-.73-1.36.45-.51,1.08-.51,1.08a11.05,11.05,0,0,0-4.73-.73c-2.59.19-.95,1.26-.95,1.26s-3.85-.21-4.51,1.25h0c-.49,1.46,4.6.81,4.6.81s-1.54,1.23,1.05,1.18a12.26,12.26,0,0,0,4.5-1s-1.24,1,1,1.06a8.78,8.78,0,0,0,4.89-1.54c-.7,1.14,2.8,1.39,4.46.27a21.33,21.33,0,0,1,4-1.74l2.44-.06,0-.18-2.51.06a17,17,0,0,1-4-1.39C296.51,417.72,293.42,418.1,294.25,419.1Z" style="fill:#407BFF"/><path d="M294.25,419.1c-1.91-.68-4.58-1.08-5.65-.73-1.36.45-.51,1.08-.51,1.08a11.05,11.05,0,0,0-4.73-.73c-2.59.19-.95,1.26-.95,1.26s-3.85-.21-4.51,1.25h0c-.49,1.46,4.6.81,4.6.81s-1.54,1.23,1.05,1.18a12.26,12.26,0,0,0,4.5-1s-1.24,1,1,1.06a8.78,8.78,0,0,0,4.89-1.54c-.7,1.14,2.8,1.39,4.46.27a21.33,21.33,0,0,1,4-1.74l2.44-.06,0-.18-2.51.06a17,17,0,0,1-4-1.39C296.51,417.72,293.42,418.1,294.25,419.1Z" style="fill:#fff;opacity:0.30000000000000004"/><path d="M173.83,145.8c-8.61-.42-10.91,6.09-11.31,7.55-.56.36-1.12.7-1.66,1l.24.44c.59-.33,1.2-.7,1.81-1.1C164.71,153.82,171.24,153.73,173.83,145.8Z" style="fill:#407BFF"/><path d="M85.58,291.72c1.44,8.5,8.29,9.35,9.8,9.43.47.47.93,1,1.33,1.41l.38-.33c-.44-.51-.94-1-1.46-1.54C95.37,298.91,93.88,292.55,85.58,291.72Z" style="fill:#407BFF"/><path d="M85.58,291.72c1.44,8.5,8.29,9.35,9.8,9.43.47.47.93,1,1.33,1.41l.38-.33c-.44-.51-.94-1-1.46-1.54C95.37,298.91,93.88,292.55,85.58,291.72Z" style="fill:#fff;opacity:0.30000000000000004"/><path d="M174.71,335.38c5.11,11.49,15.09,10.2,17.26,9.77.83.49,1.64,1,2.38,1.51l.41-.6c-.81-.56-1.7-1.11-2.61-1.64C191.14,342,186.73,333.56,174.71,335.38Z" style="fill:#407BFF"/><path d="M174.71,335.38c5.11,11.49,15.09,10.2,17.26,9.77.83.49,1.64,1,2.38,1.51l.41-.6c-.81-.56-1.7-1.11-2.61-1.64C191.14,342,186.73,333.56,174.71,335.38Z" style="opacity:0.30000000000000004"/><path d="M421.44,181.58c5.5,6.65,11.86,4,13.21,3.27.64.17,1.27.36,1.85.56l.16-.47c-.64-.22-1.33-.42-2-.61C433.52,182.92,429,178.16,421.44,181.58Z" style="fill:#407BFF"/><path d="M128.75,416c6.55,5.6,12.35,1.86,13.57,1,.66.06,1.31.13,1.92.23l.08-.5c-.67-.1-1.38-.18-2.1-.24C140.88,415.23,135.65,411.3,128.75,416Z" style="fill:#407BFF"/><path d="M128.75,416c6.55,5.6,12.35,1.86,13.57,1,.66.06,1.31.13,1.92.23l.08-.5c-.67-.1-1.38-.18-2.1-.24C140.88,415.23,135.65,411.3,128.75,416Z" style="fill:#fff;opacity:0.5"/><path d="M372.21,412c-6.95,5.11-12.46,1-13.6,0-.66,0-1.32,0-1.94.09l0-.5c.67-.06,1.39-.08,2.12-.09C360.17,410.32,365.67,406.79,372.21,412Z" style="fill:#407BFF"/><path d="M372.21,412c-6.95,5.11-12.46,1-13.6,0-.66,0-1.32,0-1.94.09l0-.5c.67-.06,1.39-.08,2.12-.09C360.17,410.32,365.67,406.79,372.21,412Z" style="opacity:0.30000000000000004"/><path d="M331.7,419.31a15.75,15.75,0,0,1-13.6-.22c-.66,0-1.32,0-1.93,0l-.05-.3c.67,0,1.39,0,2.12,0A15.77,15.77,0,0,1,331.7,419.31Z" style="fill:#407BFF"/><path d="M82.78,197.17a10.56,10.56,0,0,1-2-1.18c1.66-.62,3.31-1.25,4.9-1.87a12.24,12.24,0,0,0,2.31,1c.59,1.24,2.74,4.7,7.8,2.79-2.47-5.21-6.8-3.72-7.78-3.31a12.42,12.42,0,0,1-1.71-.68c2.17-.84,4.19-1.65,5.9-2.34a11.87,11.87,0,0,0,1.92,1c.45,1.29,2.22,5,7.46,3.61-1.91-5.43-6.36-4.42-7.38-4.11a12.4,12.4,0,0,1-1.42-.69c2.05-.83,3.58-1.47,4.29-1.77,1.29.27,5.45.67,6.94-4.6-5.51-1.07-7,3-7.26,4.2-.95.39-3,1.26-5.73,2.34a11.17,11.17,0,0,1,.77-1c1-.2,5.45-1.39,4.6-7.08-5.28,1.24-5.12,5.33-4.91,6.68a12.3,12.3,0,0,0-1.25,1.75c-1.37.55-2.88,1.15-4.46,1.76a12.59,12.59,0,0,1,.85-1.58c1-.31,5.28-2,3.81-7.54-5.09,1.8-4.51,5.83-4.16,7.16a11.94,11.94,0,0,0-1.14,2.21l-4.23,1.61a10.78,10.78,0,0,1,.66-2.28c1.2-.61,4.66-2.86,2.58-7.9-5,2.59-3.56,6.76-3.09,7.82a11.63,11.63,0,0,0-.69,2.56l-3.41,1.24.16.47c1-.36,2.07-.74,3.11-1.13a11.62,11.62,0,0,0,2.29,1.39c.38,1.1,2.19,5.13,7.62,3.54C88.13,196,84.06,196.78,82.78,197.17Z" style="fill:#407BFF"/><path d="M82.78,197.17a10.56,10.56,0,0,1-2-1.18c1.66-.62,3.31-1.25,4.9-1.87a12.24,12.24,0,0,0,2.31,1c.59,1.24,2.74,4.7,7.8,2.79-2.47-5.21-6.8-3.72-7.78-3.31a12.42,12.42,0,0,1-1.71-.68c2.17-.84,4.19-1.65,5.9-2.34a11.87,11.87,0,0,0,1.92,1c.45,1.29,2.22,5,7.46,3.61-1.91-5.43-6.36-4.42-7.38-4.11a12.4,12.4,0,0,1-1.42-.69c2.05-.83,3.58-1.47,4.29-1.77,1.29.27,5.45.67,6.94-4.6-5.51-1.07-7,3-7.26,4.2-.95.39-3,1.26-5.73,2.34a11.17,11.17,0,0,1,.77-1c1-.2,5.45-1.39,4.6-7.08-5.28,1.24-5.12,5.33-4.91,6.68a12.3,12.3,0,0,0-1.25,1.75c-1.37.55-2.88,1.15-4.46,1.76a12.59,12.59,0,0,1,.85-1.58c1-.31,5.28-2,3.81-7.54-5.09,1.8-4.51,5.83-4.16,7.16a11.94,11.94,0,0,0-1.14,2.21l-4.23,1.61a10.78,10.78,0,0,1,.66-2.28c1.2-.61,4.66-2.86,2.58-7.9-5,2.59-3.56,6.76-3.09,7.82a11.63,11.63,0,0,0-.69,2.56l-3.41,1.24.16.47c1-.36,2.07-.74,3.11-1.13a11.62,11.62,0,0,0,2.29,1.39c.38,1.1,2.19,5.13,7.62,3.54C88.13,196,84.06,196.78,82.78,197.17Z" style="opacity:0.4"/><path d="M312.88,58.48a8.41,8.41,0,0,0,.52,1.9c.85-1.21,1.71-2.41,2.55-3.56a10,10,0,0,1-.28-2.07c-.88-.74-3.21-3.21-.59-6.89,3.68,3.11,1.55,6.29,1,7a9.72,9.72,0,0,0,.19,1.52c1.14-1.56,2.22-3,3.14-4.26a11.85,11.85,0,0,1-.37-1.75c-.94-.64-3.54-2.86-1.31-6.8,4,2.7,2.21,6.08,1.74,6.84a8.42,8.42,0,0,0,.26,1.29c1.1-1.47,1.94-2.58,2.33-3.09.07-1.1.63-4.53,5.2-4.61-.31,4.67-3.92,5-4.94,5-.52.69-1.66,2.19-3.11,4.13a9.92,9.92,0,0,0,1-.4c.39-.81,2.29-4.11,6.7-2.2-2.13,4-5.39,3-6.44,2.53a10.59,10.59,0,0,1-1.68.64c-.74,1-1.54,2.08-2.37,3.22a10.34,10.34,0,0,0,1.46-.35c.46-.75,2.71-3.84,6.9-1.46-2.54,3.73-5.67,2.39-6.67,1.83a10.23,10.23,0,0,1-2,.45l-2.2,3.07a8.67,8.67,0,0,0,2,0c.75-.84,3.31-3.15,6.93-.39-3.17,3.51-6.22,1.43-7,.82a9.62,9.62,0,0,1-2.21,0c-.58.83-1.17,1.67-1.73,2.49l-.34-.23c.51-.75,1-1.51,1.57-2.27a9.72,9.72,0,0,1-.63-2.14c-.8-.55-3.67-2.87-1.23-6.91C314.94,54.41,313.46,57.53,312.88,58.48Z" style="fill:#407BFF"/><path d="M312.88,58.48a8.41,8.41,0,0,0,.52,1.9c.85-1.21,1.71-2.41,2.55-3.56a10,10,0,0,1-.28-2.07c-.88-.74-3.21-3.21-.59-6.89,3.68,3.11,1.55,6.29,1,7a9.72,9.72,0,0,0,.19,1.52c1.14-1.56,2.22-3,3.14-4.26a11.85,11.85,0,0,1-.37-1.75c-.94-.64-3.54-2.86-1.31-6.8,4,2.7,2.21,6.08,1.74,6.84a8.42,8.42,0,0,0,.26,1.29c1.1-1.47,1.94-2.58,2.33-3.09.07-1.1.63-4.53,5.2-4.61-.31,4.67-3.92,5-4.94,5-.52.69-1.66,2.19-3.11,4.13a9.92,9.92,0,0,0,1-.4c.39-.81,2.29-4.11,6.7-2.2-2.13,4-5.39,3-6.44,2.53a10.59,10.59,0,0,1-1.68.64c-.74,1-1.54,2.08-2.37,3.22a10.34,10.34,0,0,0,1.46-.35c.46-.75,2.71-3.84,6.9-1.46-2.54,3.73-5.67,2.39-6.67,1.83a10.23,10.23,0,0,1-2,.45l-2.2,3.07a8.67,8.67,0,0,0,2,0c.75-.84,3.31-3.15,6.93-.39-3.17,3.51-6.22,1.43-7,.82a9.62,9.62,0,0,1-2.21,0c-.58.83-1.17,1.67-1.73,2.49l-.34-.23c.51-.75,1-1.51,1.57-2.27a9.72,9.72,0,0,1-.63-2.14c-.8-.55-3.67-2.87-1.23-6.91C314.94,54.41,313.46,57.53,312.88,58.48Z" style="fill:#fff;opacity:0.30000000000000004"/><path d="M344.08,261.57a12,12,0,0,1-.07,2.67c-1.52-1.32-3-2.63-4.51-3.88a13.62,13.62,0,0,0-.29-2.81c.92-1.26,3.2-5.27-1.43-9.27-3.85,5.27,0,8.78.9,9.52a13.15,13.15,0,0,1,.25,2.07c-2-1.69-3.9-3.27-5.51-4.6a14,14,0,0,0-.08-2.43c1-1.15,3.76-4.9-.44-9.38-4.37,4.83-1,8.71-.11,9.57a13.18,13.18,0,0,1,.08,1.78c-1.93-1.59-3.4-2.77-4.07-3.32-.44-1.43-2.28-5.78-8.33-4.42,1.9,6.06,6.76,5.3,8.1,5,.9.74,2.89,2.35,5.42,4.45-.49-.05-1-.12-1.45-.21-.77-.94-4.33-4.68-9.53-.76,4.08,4.58,8.06,2.22,9.3,1.28a13.8,13.8,0,0,0,2.42.3c1.29,1.07,2.69,2.25,4.15,3.49a13.76,13.76,0,0,1-2,0c-.85-.84-4.8-4.2-9.57.28,4.55,4.1,8.25,1.34,9.38.27a13.1,13.1,0,0,0,2.82-.05c1.28,1.08,2.58,2.2,3.89,3.34a12,12,0,0,1-2.63.57c-1.25-.87-5.37-3.1-9.26,1.7,5.3,3.61,8.66-.1,9.46-1.15a13,13,0,0,0,2.92-.69c1,.91,2.07,1.82,3.08,2.73l.38-.43-2.81-2.48a12.94,12.94,0,0,0,.15-3c.89-1,3.93-5-.59-9.5C340.06,256.86,343,260.5,344.08,261.57Z" style="fill:#407BFF"/></g></svg>