<svg xmlns="http://www.w3.org/2000/svg" viewBox="15.32 34.64 468.68 448.33"><g id="freepik--Floor--inject-45"><ellipse id="freepik--floor--inject-45" cx="249.66" cy="364.37" rx="234.34" ry="118.6" style="fill:#e0e0e0"/></g><g id="freepik--Shadows--inject-45"><ellipse id="freepik--Shadow--inject-45" cx="300.34" cy="351.83" rx="50.93" ry="29.4" style="opacity:0.1"/><ellipse id="freepik--shadow--inject-45" cx="184.65" cy="351.83" rx="50.93" ry="29.4" style="opacity:0.1"/></g><g id="freepik--Flowers--inject-45"><g id="freepik--flowers--inject-45"><path d="M421.78,342.17s-.21-2.86-2.46-3.17c0,0-1.84-.3-2.86,2.56a5.92,5.92,0,0,0-5.32.61,3.32,3.32,0,0,0,2.45,3.69s-1.74,1.33-.92,4.5c0,0,4.61,1.53,5.73-1.33,0,0,.41,2.56,4.91,2.56a4.3,4.3,0,0,0,0-5.12s3.17-.1,3.68-2.45C427,344,424.85,340.44,421.78,342.17Z" style="fill:#fafafa"/><path d="M419,342.63a3.13,3.13,0,0,0-3.4,2.11s0,1.67,2.87,1.91,3.3-1.43,3.3-1.43A2.81,2.81,0,0,0,419,342.63Z" style="fill:#BA68C8"/><path d="M436,336.29s-1-2-2.65-2.28a4.55,4.55,0,0,0-1.64,2.93,4.2,4.2,0,0,0-3.62.89,3.87,3.87,0,0,0,2.3,2.66,5.09,5.09,0,0,0,.12,3.77s3.18.23,4.3-2.42c0,0,1.18,1.76,4.42,1.15a3.31,3.31,0,0,0-1.18-3.86s2-1.16,1.77-3.08A5,5,0,0,0,436,336.29Z" style="fill:#fafafa"/><path d="M434.23,337.49a2.31,2.31,0,0,0-2.25,1.92s.19,1.22,2.32,1.08,2.26-1.42,2.26-1.42A2.09,2.09,0,0,0,434.23,337.49Z" style="fill:#BA68C8"/><path d="M420.76,333s-.62-1.82-1.82-1.2-.78,1.77.26,2c0,0-2.24.73-1.61,1.93s2.55-.06,3-.68c0,0,.42,1.83,2,1.18s0-2.23,0-2.23,2.39-.93,1.09-2S420.76,333,420.76,333Z" style="fill:#fafafa"/><path d="M434.71,350.4s.18-1.92-1.16-1.84-1.45,1.29-.61,1.95c0,0-2.33-.26-2.26,1.09s2.34,1,3,.61c0,0-.38,1.84,1.31,1.89s.92-2,.92-2,2.57.14,1.83-1.4S434.71,350.4,434.71,350.4Z" style="fill:#fafafa"/><path d="M404.78,349.3s-1.55-2-.38-2.54,1.68,1.27,1.68,1.27,1.17-1.39,1.73-.4-.87,2-.87,2,1.61.87.68,1.73-2-.49-2-.49S405,352.46,404,352,403.6,349.8,404.78,349.3Z" style="fill:#fafafa"/></g><g id="freepik--flowers--inject-45"><path d="M83.57,389.35s-.74-3.18-3-4.05a6.59,6.59,0,0,0-3.25,3.57,6,6,0,0,0-5.35.07,5.55,5.55,0,0,0,2.35,4.46,7.4,7.4,0,0,0-1.06,5.32s4.38,1.37,6.81-2c0,0,1.08,2.85,5.82,3.05a4.78,4.78,0,0,0-.39-5.79s3.18-1,3.48-3.74A7.21,7.21,0,0,0,83.57,389.35Z" style="fill:#fafafa"/><path d="M80.65,390.44a3.35,3.35,0,0,0-3.79,2s-.13,1.77,2.89,2.27,3.63-1.25,3.63-1.25A3,3,0,0,0,80.65,390.44Z" style="fill:#BA68C8"/><path d="M56,377.9s-1.18-2.31-3.06-2.56a5.21,5.21,0,0,0-1.84,3.36A4.78,4.78,0,0,0,47,379.75a4.43,4.43,0,0,0,2.66,3,5.86,5.86,0,0,0,.18,4.3s3.63.23,4.88-2.81c0,0,1.36,2,5.06,1.26a3.79,3.79,0,0,0-1.39-4.39s2.27-1.34,2-3.54A5.7,5.7,0,0,0,56,377.9Z" style="fill:#fafafa"/><path d="M53.94,379.29a2.66,2.66,0,0,0-2.56,2.22s.23,1.4,2.66,1.21,2.56-1.64,2.56-1.64A2.38,2.38,0,0,0,53.94,379.29Z" style="fill:#BA68C8"/><path d="M70,376.57s-1.57-2.28-3-.95-.39,2.76,1.15,2.71c0,0-2.81,1.88-1.48,3.29s3.51-1.06,3.84-2.09c0,0,1.29,2.37,3.2.86s-.87-3.08-.87-3.08,3-2.22.72-3.22S70,376.57,70,376.57Z" style="fill:#fafafa"/><path d="M60.81,397.16s-2.94-2.23-1.51-3.37,2.81,1.1,2.81,1.1,1.08-2.38,2.24-1.23-.4,3.17-.4,3.17,2.56.57,1.62,2.13-3,.11-3,.11-.28,2.39-1.81,2.17S59.37,398.3,60.81,397.16Z" style="fill:#fafafa"/></g></g><g id="freepik--Trees--inject-45"><g id="freepik--Tree--inject-45"><path id="freepik--Bush--inject-45" d="M436.7,309.34c-7.92,1.27-15-.92-16.24-9.5a76.15,76.15,0,0,1,0-21.27c.36-2.54,1.26-5.55,3.75-6.21,2.05-.55,4.19.95,5.11,2.87a13.92,13.92,0,0,1,.87,6.23c1.25-2.78,3.12-6,6.17-6.06,2.82-.06,4.95,2.9,5,5.72s-1.26,5.46-2.58,7.95c2.14-.29,4.56-.44,6.18,1,1.95,1.68,1.73,4.94.23,7s-3.91,3.31-6.22,4.45a2.82,2.82,0,0,1,3.78,1.85,4.26,4.26,0,0,1-1.62,4.26A9.2,9.2,0,0,1,436.7,309.34Z" style="fill:#BA68C8"/><path id="freepik--bush--inject-45" d="M436.7,309.34c-7.92,1.27-15-.92-16.24-9.5a76.15,76.15,0,0,1,0-21.27c.36-2.54,1.26-5.55,3.75-6.21,2.05-.55,4.19.95,5.11,2.87a13.92,13.92,0,0,1,.87,6.23c1.25-2.78,3.12-6,6.17-6.06,2.82-.06,4.95,2.9,5,5.72s-1.26,5.46-2.58,7.95c2.14-.29,4.56-.44,6.18,1,1.95,1.68,1.73,4.94.23,7s-3.91,3.31-6.22,4.45a2.82,2.82,0,0,1,3.78,1.85,4.26,4.26,0,0,1-1.62,4.26A9.2,9.2,0,0,1,436.7,309.34Z" style="opacity:0.30000000000000004"/><g id="freepik--tree--inject-45"><path d="M389.08,182l26.63,52.78V198.58h6.64v29.59L451.61,177l-29.26,62.8V303a1.63,1.63,0,0,1-1,1.35,5.19,5.19,0,0,1-4.7,0,1.63,1.63,0,0,1-1-1.35V248.21Z" style="fill:#874c4c"/><path d="M466.12,84.73a47.18,47.18,0,1,0-94.27-2.92c0,.6,0,1.19,0,1.79a51.89,51.89,0,0,1-6.9,28.11,62.49,62.49,0,1,0,107.93-.29A47.07,47.07,0,0,1,466.12,84.73Z" style="fill:#BA68C8"/><path d="M418.09,205.57a62.5,62.5,0,0,0,54.82-94.15,47.07,47.07,0,0,1-6.79-26.69,47.11,47.11,0,0,0-24.71-44.42c7.88,4.93,12.2,14,14.15,22.11,2.85,11.82-2.08,19.43-.13,31.87,1.5,9.56,6,15.59,7.47,27,1,7.7.07,19-3.55,26-10.69,20.44-27.05,30.45-54.13,30.35a70.32,70.32,0,0,1-31.33-8.18,63,63,0,0,1-12.32-8.75,33.15,33.15,0,0,1-4-6.41A62.8,62.8,0,0,0,418.09,205.57Z" style="opacity:0.1"/></g><path id="freepik--bush--inject-45" d="M416.84,312.85s-20.28-11.69-24.95-14.4a20,20,0,0,1-5.42-5.1,14.34,14.34,0,0,1-3-6.46,3.4,3.4,0,0,1,.26-2.46c.9-1.32,3-.86,4.22.21s2.14,2,3.4,3.35a36.94,36.94,0,0,1-.48-8.66,3.87,3.87,0,0,1,1.05-2.88,3.23,3.23,0,0,1,3.48.08c3.27,1.76,4.66,5.65,5.79,9.19a29.76,29.76,0,0,1,.33-11c.87-3.94,5.38-5.48,6.91-1.72a22,22,0,0,1,1.32,6.28c.19,1.75.15,6.64-.56,8.28a26.22,26.22,0,0,1,6.65-9.21c1.07-.95,2.51-1.86,3.84-1.34,1.58.61,1.85,2.71,1.68,4.39a23.69,23.69,0,0,1-3.39,10,21,21,0,0,1,8.43-3.28A2.5,2.5,0,0,1,429,289c.72,1.21-.08,2.82-.58,3.46a21,21,0,0,1-6.71,6.23,21.72,21.72,0,0,1,8.17-.85,2.8,2.8,0,0,1,2.19.91c.71,1-.12,2.44-1,3.32-1.61,1.56-3.86,2.43-5.83,3.48a8.41,8.41,0,0,1,3.6.6,2.87,2.87,0,0,1,1.71,3c-.25,1.2-1.47,1.92-2.64,2.32C423,313.1,421.68,313.65,416.84,312.85Z" style="fill:#BA68C8"/></g><g id="freepik--tree--inject-45"><path id="freepik--bush--inject-45" d="M61.29,309.34c7.92,1.27,15-.92,16.24-9.5a76.15,76.15,0,0,0,0-21.27c-.36-2.54-1.26-5.55-3.75-6.21-2.05-.55-4.19.95-5.11,2.87a13.92,13.92,0,0,0-.87,6.23c-1.25-2.78-3.12-6-6.17-6.06-2.82-.06-5,2.9-5,5.72s1.26,5.46,2.57,7.95c-2.13-.29-4.55-.44-6.17,1-2,1.68-1.73,4.94-.23,7s3.9,3.31,6.22,4.45a2.82,2.82,0,0,0-3.78,1.85,4.26,4.26,0,0,0,1.62,4.26A9.2,9.2,0,0,0,61.29,309.34Z" style="fill:#BA68C8"/><path id="freepik--bush--inject-45" d="M61.29,309.34c7.92,1.27,15-.92,16.24-9.5a76.15,76.15,0,0,0,0-21.27c-.36-2.54-1.26-5.55-3.75-6.21-2.05-.55-4.19.95-5.11,2.87a13.92,13.92,0,0,0-.87,6.23c-1.25-2.78-3.12-6-6.17-6.06-2.82-.06-5,2.9-5,5.72s1.26,5.46,2.57,7.95c-2.13-.29-4.55-.44-6.17,1-2,1.68-1.73,4.94-.23,7s3.9,3.31,6.22,4.45a2.82,2.82,0,0,0-3.78,1.85,4.26,4.26,0,0,0,1.62,4.26A9.2,9.2,0,0,0,61.29,309.34Z" style="opacity:0.30000000000000004"/><g id="freepik--tree--inject-45"><path d="M49,182l26.62,52.78V198.58h6.65v29.59L111.53,177l-29.26,62.8V303a1.64,1.64,0,0,1-1,1.35,5.19,5.19,0,0,1-4.7,0,1.65,1.65,0,0,1-1-1.35V248.21Z" style="fill:#874c4c"/><path d="M126,84.73a46.21,46.21,0,0,0-.09-7,47.18,47.18,0,0,0-94.18,4.13c0,.6,0,1.19,0,1.79a51.81,51.81,0,0,1-6.91,28.11,62.5,62.5,0,1,0,107.94-.29A47.08,47.08,0,0,1,126,84.73Z" style="fill:#BA68C8"/><path d="M78,205.57a62.5,62.5,0,0,0,54.82-94.15A47.08,47.08,0,0,1,126,84.73a47.12,47.12,0,0,0-24.7-44.42c7.87,4.93,12.19,14,14.14,22.11,2.86,11.82-2.07,19.43-.13,31.87,1.5,9.56,6,15.59,7.48,27,1,7.7.07,19-3.56,26-10.69,20.44-27.05,30.45-54.13,30.35a70.32,70.32,0,0,1-31.33-8.18,63,63,0,0,1-12.32-8.75,32.69,32.69,0,0,1-4-6.41A62.79,62.79,0,0,0,78,205.57Z" style="opacity:0.1"/></g><path id="freepik--bush--inject-45" d="M81.15,312.85s20.28-11.69,24.95-14.4a20,20,0,0,0,5.42-5.1,14.34,14.34,0,0,0,3-6.46,3.4,3.4,0,0,0-.26-2.46c-.9-1.32-3-.86-4.23.21s-2.13,2-3.39,3.35a37.49,37.49,0,0,0,.48-8.66,3.87,3.87,0,0,0-1-2.88,3.23,3.23,0,0,0-3.48.08c-3.27,1.76-4.67,5.65-5.79,9.19a29.76,29.76,0,0,0-.33-11c-.87-3.94-5.38-5.48-6.91-1.72a22,22,0,0,0-1.32,6.28c-.19,1.75-.15,6.64.56,8.28a26.22,26.22,0,0,0-6.65-9.21c-1.07-.95-2.51-1.86-3.84-1.34-1.58.61-1.85,2.71-1.68,4.39a23.69,23.69,0,0,0,3.39,10,21,21,0,0,0-8.43-3.28A2.5,2.5,0,0,0,69,289c-.72,1.21.08,2.82.58,3.46a20.84,20.84,0,0,0,6.71,6.23,21.72,21.72,0,0,0-8.17-.85,2.8,2.8,0,0,0-2.19.91c-.71,1,.12,2.44,1,3.32,1.61,1.56,3.86,2.43,5.83,3.48a8.41,8.41,0,0,0-3.6.6,2.89,2.89,0,0,0-1.72,3,3.67,3.67,0,0,0,2.64,2.32C75,313.1,76.31,313.65,81.15,312.85Z" style="fill:#BA68C8"/></g></g><g id="freepik--Leaves--inject-45"><g id="freepik--leaves--inject-45"><path d="M241.45,174s4.58-.29,6.29-1.1-.14-2.2-3.06-2.58a38.61,38.61,0,0,0,5.93-3.43c2.11-1.66-2.18-.55-2.18-.55s3.9-5.62,2.39-6.79-7.07,3.51-7.07,3.51-.15-3.71-1.15-2.48a14.77,14.77,0,0,0-1.8,4.19,42.64,42.64,0,0,0-2.06-5.67c-.66-1-1.51,1.85-1.51,1.85s-5.26-5.8-6.3-5.38.09,6,.55,7.87c0,0-3.07-.72-2.84.31s2.23,3.22,4,4.61c0,0-4.5-.86-5.15-.35s1,2.08,1,2.08-4.81,1.21-5,3.08,6.55,1.06,6.55,1.06-1.85,1.53-.83,2.15,7.22-2.27,7.22-2.27-1.35,4.22-.29,4.8C237.66,179.77,241.45,174,241.45,174Z" style="fill:#455a64"/><path d="M246.56,187.75a.24.24,0,0,1-.23-.19c0-.05-.82-4.91-5.09-13.45s-9.44-16.69-9.49-16.77a.23.23,0,0,1,.39-.25c.05.08,5.22,8.22,9.51,16.81s5.13,13.53,5.14,13.58a.24.24,0,0,1-.19.27Z" style="fill:#BA68C8"/><path d="M238.64,168.71l-7.6-3.57a.21.21,0,0,1-.11-.3.23.23,0,0,1,.3-.12l7.08,3.33a14.1,14.1,0,0,0-.12-6,.23.23,0,1,1,.45-.11,14.61,14.61,0,0,1,.07,6.52Z" style="fill:#BA68C8"/><path d="M225.86,172.92a.23.23,0,0,1-.05-.45A53.94,53.94,0,0,1,240,171.21c1.76-5,8.22-9.83,8.5-10a.22.22,0,0,1,.32,0,.24.24,0,0,1,0,.33c-.07,0-6.78,5.08-8.39,10l-.06.17h-.18a53.21,53.21,0,0,0-14.2,1.23Z" style="fill:#BA68C8"/><path d="M231.25,175.13a.22.22,0,0,1-.19-.1.23.23,0,0,1,.07-.32A19.22,19.22,0,0,0,235,171.5l-4.71-1.92a.24.24,0,0,1-.13-.31.24.24,0,0,1,.3-.12l5.24,2.14-.15.24a17.57,17.57,0,0,1-4.17,3.57A.28.28,0,0,1,231.25,175.13Z" style="fill:#BA68C8"/><path d="M242.51,168.4a3.1,3.1,0,0,1-.55,0l-.23,0,.6-4.32a.23.23,0,1,1,.45.06l-.52,3.84a18.38,18.38,0,0,0,5-.72.22.22,0,0,1,.28.16.24.24,0,0,1-.17.29A19.81,19.81,0,0,1,242.51,168.4Z" style="fill:#BA68C8"/><path d="M237.44,176.69a.23.23,0,0,1-.2-.34l2.76-5.14,6.12.58a.24.24,0,0,1,.21.26.26.26,0,0,1-.26.21l-5.8-.56-2.62,4.87A.25.25,0,0,1,237.44,176.69Z" style="fill:#BA68C8"/></g><g id="freepik--leaves--inject-45"><path d="M213.45,125.94s-4.71-2.21-6.16-3.77,1.06-2.26,4.29-1.45a42.85,42.85,0,0,1-4.81-6.07c-1.53-2.61,2.51.33,2.51.33s-1.76-7.52.32-8.12,6,6.62,6,6.62,1.7-3.84,2.24-2.13a16.91,16.91,0,0,1,.14,5.15,48.74,48.74,0,0,1,4.53-5.1c1.1-.78.82,2.57.82,2.57s7.93-3.91,8.86-3-2.61,6.31-3.85,8c0,0,3.53.53,2.86,1.51s-3.68,2.46-6.12,3.18c0,0,5.08,1,5.56,1.78s-1.89,1.78-1.89,1.78,4.55,3.27,4,5.31-7.32-1.6-7.32-1.6,1.31,2.37,0,2.6-6.64-5.39-6.64-5.39-.34,5-1.69,5.17C215,133.56,213.45,125.94,213.45,125.94Z" style="fill:#BA68C8"/><path d="M202.46,138.28a.33.33,0,0,1-.13,0,.25.25,0,0,1-.09-.36s2.93-4.87,11-12.14,16.9-13.66,17-13.72a.27.27,0,0,1,.37,0,.26.26,0,0,1-.06.37c-.09.06-8.88,6.46-16.94,13.69s-10.91,12-10.93,12A.28.28,0,0,1,202.46,138.28Z" style="fill:#455a64"/><path d="M218.6,121.54l0-.32a16.42,16.42,0,0,1,2.78-6.83.26.26,0,0,1,.36-.06.26.26,0,0,1,.06.37,16.29,16.29,0,0,0-2.63,6.27l8.83-.55a.26.26,0,0,1,.27.24.26.26,0,0,1-.24.28Z" style="fill:#455a64"/><path d="M230.37,131.29a.3.3,0,0,1-.15,0c-.07-.05-7.25-5-14.41-7.19l-.2-.06v-.21c.34-5.82-4.62-13.89-4.67-14a.26.26,0,1,1,.44-.28c.21.33,5,8.11,4.77,14.07a61.71,61.71,0,0,1,14.36,7.21.27.27,0,0,1,.07.37A.27.27,0,0,1,230.37,131.29Z" style="fill:#455a64"/><path d="M223.79,131.37a.26.26,0,0,1-.21-.11,19.39,19.39,0,0,1-2.9-5.49l-.07-.3,6.4-.08h0a.26.26,0,0,1,0,.52l-5.75.07a21.56,21.56,0,0,0,2.73,5,.26.26,0,0,1-.06.37A.27.27,0,0,1,223.79,131.37Z" style="fill:#455a64"/><path d="M215.5,119.87l-.26-.07a18.37,18.37,0,0,1-5.33-3,.27.27,0,0,1,.31-.43,20.59,20.59,0,0,0,4.9,2.82l1-4.26a.26.26,0,0,1,.51.13Z" style="fill:#455a64"/><path d="M216.64,130.44a.27.27,0,0,1-.26-.24l-.73-6.2-6.34-1.83a.26.26,0,0,1-.18-.32.26.26,0,0,1,.33-.18l6.67,1.92.77,6.55a.25.25,0,0,1-.23.29Z" style="fill:#455a64"/></g><g id="freepik--leaves--inject-45"><path d="M138.38,418.29s6.65,1.88,8.67,3.19-1.56,1.84-6.14,1.13a47.53,47.53,0,0,1,6.7,5.06c2.12,2.18-3.58-.3-3.58-.3s2.33,6.21-.65,6.68-8.35-5.54-8.35-5.54-2.52,3.13-3.25,1.72-.07-4.24-.07-4.24a62.91,62.91,0,0,1-6.58,4.13c-1.6.63-1.11-2.13-1.11-2.13s-11.41,3.11-12.7,2.37,3.87-5.15,5.69-6.56c0,0-5-.48-4-1.28s5.31-2,8.8-2.53c0,0-7.21-.88-7.88-1.55s2.74-1.44,2.74-1.44-6.41-2.75-5.52-4.43S121.52,414,121.52,414s-1.81-2,.09-2.14,9.33,4.53,9.33,4.53.62-4.1,2.54-4.23C136.31,412,138.38,418.29,138.38,418.29Z" style="fill:#455a64"/><path d="M113.84,429.63a.3.3,0,0,1-.28-.19.31.31,0,0,1,.17-.4c.12-.05,12.83-5.19,24.51-11s15.86-9.69,15.9-9.73a.31.31,0,0,1,.42.45c-.17.16-4.31,4-16.05,9.83s-24.43,11-24.55,11.05Z" style="fill:#BA68C8"/><path d="M126.42,427.85a.3.3,0,0,1-.24-.12.3.3,0,0,1,0-.43,11.47,11.47,0,0,0,3.82-4.92l-12.63.33a.3.3,0,0,1-.31-.3.32.32,0,0,1,.3-.32l13.47-.35-.1.4a11.6,11.6,0,0,1-4.18,5.65A.3.3,0,0,1,126.42,427.85Z" style="fill:#BA68C8"/><path d="M141.21,432a.31.31,0,0,1-.22-.09c-.28-.27-6.84-6.7-6.48-11.67a118.26,118.26,0,0,1-20.26-6.13.3.3,0,0,1-.16-.4.3.3,0,0,1,.4-.16,116.83,116.83,0,0,0,20.41,6.14l.28.06,0,.28c-.62,4.71,6.2,11.38,6.27,11.44a.32.32,0,0,1,0,.44A.31.31,0,0,1,141.21,432Z" style="fill:#BA68C8"/><path d="M128.11,418.66l-9.09,0a.31.31,0,0,1-.3-.31.3.3,0,0,1,.31-.3h0l8.19,0a18.49,18.49,0,0,0-3.66-3.94.31.31,0,0,1,0-.43.3.3,0,0,1,.43,0c1.35,1.13,3.64,3.37,4,4.62Z" style="fill:#BA68C8"/><path d="M133.87,427.54a.28.28,0,0,1-.13,0,.3.3,0,0,1-.15-.4l1.79-3.93.23,0a34.74,34.74,0,0,1,7.48,2.52.3.3,0,0,1,.15.4.3.3,0,0,1-.4.16,36.72,36.72,0,0,0-7.1-2.43l-1.6,3.49A.3.3,0,0,1,133.87,427.54Z" style="fill:#BA68C8"/><path d="M144.07,422H144l-9.43-1.67-1-5.48a.3.3,0,1,1,.6-.1l.88,5.05,9,1.6a.31.31,0,0,1,.25.36A.32.32,0,0,1,144.07,422Z" style="fill:#BA68C8"/><path d="M440.36,377.31s-5.24,1.48-6.83,2.51,1.23,1.45,4.83.89a37.14,37.14,0,0,0-5.27,4c-1.67,1.72,2.82-.24,2.82-.24s-1.83,4.89.51,5.26,6.56-4.36,6.56-4.36,2,2.47,2.56,1.35.06-3.33.06-3.33a47.71,47.71,0,0,0,5.18,3.25c1.25.49.86-1.67.86-1.67s9,2.44,10,1.86-3.05-4.06-4.48-5.16c0,0,3.95-.38,3.18-1s-4.18-1.55-6.92-2c0,0,5.67-.69,6.19-1.22s-2.15-1.13-2.15-1.13,5-2.17,4.34-3.48-8.18,1.12-8.18,1.12,1.42-1.55-.07-1.69-7.35,3.57-7.35,3.57-.48-3.23-2-3.33C442,372.35,440.36,377.31,440.36,377.31Z" style="fill:#455a64"/><path d="M459.65,386.23a.15.15,0,0,1-.09,0c-.1,0-10.1-4.08-19.31-8.68s-12.49-7.61-12.62-7.74a.24.24,0,1,1,.33-.35s3.35,3.08,12.5,7.66,19.18,8.63,19.28,8.67a.24.24,0,0,1,.14.31A.25.25,0,0,1,459.65,386.23Z" style="fill:#BA68C8"/><path d="M449.76,384.83a.19.19,0,0,1-.14-.05,9,9,0,0,1-3.29-4.44l-.08-.31,10.6.28a.23.23,0,0,1,.23.24.25.25,0,0,1-.24.24l-9.94-.26a9.06,9.06,0,0,0,3,3.87.25.25,0,0,1,0,.34A.23.23,0,0,1,449.76,384.83Z" style="fill:#BA68C8"/><path d="M438.13,388.11A.22.22,0,0,1,438,388a.25.25,0,0,1,0-.34c.06-.05,5.42-5.3,4.94-9l0-.23.22,0a92.46,92.46,0,0,0,16.06-4.83.23.23,0,0,1,.31.13.24.24,0,0,1-.13.31,92.44,92.44,0,0,1-15.93,4.82c.28,3.91-4.88,9-5.1,9.18A.23.23,0,0,1,438.13,388.11Z" style="fill:#BA68C8"/><path d="M448.43,377.6l.1-.31c.31-1,2.11-2.75,3.17-3.63a.23.23,0,0,1,.34,0,.25.25,0,0,1,0,.34,14.3,14.3,0,0,0-2.88,3.09l6.45,0h0a.24.24,0,1,1,0,.48Z" style="fill:#BA68C8"/><path d="M443.9,384.59a.25.25,0,0,1-.22-.14l-1.25-2.75a29.22,29.22,0,0,0-5.59,1.91.23.23,0,0,1-.31-.12.24.24,0,0,1,.12-.32,28,28,0,0,1,5.88-2l.19,0,1.4,3.09a.24.24,0,0,1-.12.32Z" style="fill:#BA68C8"/><path d="M435.88,380.2a.24.24,0,0,1-.24-.2.25.25,0,0,1,.2-.28l7.09-1.26.69-4a.24.24,0,0,1,.27-.2.25.25,0,0,1,.2.28l-.75,4.31-7.42,1.31Z" style="fill:#BA68C8"/><path d="M327.69,425.78s-6.39,1.81-8.33,3.07,1.49,1.77,5.9,1.08a45.68,45.68,0,0,0-6.44,4.87c-2,2.09,3.44-.3,3.44-.3s-2.24,6,.63,6.43,8-5.33,8-5.33,2.43,3,3.13,1.65.07-4.07.07-4.07a59.19,59.19,0,0,0,6.32,4c1.53.6,1.06-2,1.06-2s11,3,12.21,2.27-3.72-4.95-5.47-6.3c0,0,4.82-.46,3.88-1.24s-5.1-1.89-8.46-2.43c0,0,6.93-.83,7.57-1.48s-2.63-1.38-2.63-1.38,6.16-2.65,5.3-4.26-10,1.38-10,1.38,1.74-1.9-.09-2.07-9,4.36-9,4.36-.59-3.94-2.44-4.06C329.67,419.73,327.69,425.78,327.69,425.78Z" style="fill:#455a64"/><path d="M351.26,436.68l-.11,0c-.12-.05-12.34-5-23.59-10.62s-15.25-9.29-15.41-9.44a.29.29,0,0,1,.4-.43s4.09,3.76,15.27,9.35,23.43,10.54,23.55,10.59a.3.3,0,0,1,.17.38A.3.3,0,0,1,351.26,436.68Z" style="fill:#BA68C8"/><path d="M339.18,435a.32.32,0,0,1-.18-.06,11.09,11.09,0,0,1-4-5.43l-.1-.38,12.95.34a.28.28,0,0,1,.28.3.3.3,0,0,1-.3.29l-12.13-.32a11.1,11.1,0,0,0,3.67,4.73.29.29,0,0,1,.05.41A.27.27,0,0,1,339.18,435Z" style="fill:#BA68C8"/><path d="M325,439a.3.3,0,0,1-.21-.09.29.29,0,0,1,0-.41c.07-.07,6.62-6.47,6-11l0-.28.27-.05a112.3,112.3,0,0,0,19.61-5.9.29.29,0,1,1,.23.54,113.07,113.07,0,0,1-19.46,5.89c.35,4.77-6,10.95-6.23,11.21A.28.28,0,0,1,325,439Z" style="fill:#BA68C8"/><path d="M337.55,426.14l.12-.38c.38-1.2,2.58-3.36,3.88-4.44a.29.29,0,0,1,.41,0,.28.28,0,0,1,0,.41,18.11,18.11,0,0,0-3.51,3.78l7.87,0h0a.3.3,0,0,1,.3.3.29.29,0,0,1-.3.29Z" style="fill:#BA68C8"/><path d="M332,434.67a.29.29,0,0,1-.27-.17l-1.53-3.36a36.28,36.28,0,0,0-6.83,2.34.29.29,0,0,1-.23-.54,33.16,33.16,0,0,1,7.18-2.42l.23,0,1.71,3.77a.29.29,0,0,1-.14.39A.27.27,0,0,1,332,434.67Z" style="fill:#BA68C8"/><path d="M322.23,429.31a.29.29,0,0,1-.29-.24.28.28,0,0,1,.23-.34l8.66-1.54.84-4.86a.29.29,0,0,1,.34-.23.29.29,0,0,1,.24.34l-.91,5.25-9.06,1.61Z" style="fill:#BA68C8"/><path d="M382.71,380.23a31.4,31.4,0,0,1,5.24,1.93c1.23.79-.94,1.12-3.71.68a29.21,29.21,0,0,1,4.05,3.06c1.28,1.32-2.16-.18-2.16-.18s1.4,3.75-.4,4-5-3.35-5-3.35-1.52,1.89-2,1a5,5,0,0,1-.05-2.57,37.64,37.64,0,0,1-4,2.5c-1,.38-.67-1.28-.67-1.28s-6.89,1.87-7.67,1.43,2.33-3.12,3.44-4c0,0-3-.3-2.45-.78s3.21-1.19,5.32-1.53c0,0-4.35-.53-4.76-.93s1.66-.87,1.66-.87-3.87-1.67-3.34-2.68,6.29.87,6.29.87-1.09-1.19.05-1.3,5.64,2.74,5.64,2.74.37-2.48,1.54-2.56C381.47,376.43,382.71,380.23,382.71,380.23Z" style="fill:#BA68C8"/><path d="M367.89,387.09a.19.19,0,0,1-.17-.12.19.19,0,0,1,.1-.24c.08,0,7.75-3.14,14.81-6.66s9.58-5.86,9.6-5.88a.19.19,0,0,1,.26,0,.18.18,0,0,1,0,.26c-.1.1-2.6,2.4-9.69,5.94S368,387,368,387.07Z" style="fill:#455a64"/><path d="M375.49,386a.21.21,0,0,1-.15-.07.19.19,0,0,1,0-.26,6.9,6.9,0,0,0,2.3-3l-7.63.2a.19.19,0,0,1,0-.37l8.14-.21-.06.24A6.94,6.94,0,0,1,375.6,386,.15.15,0,0,1,375.49,386Z" style="fill:#455a64"/><path d="M384.42,388.53a.24.24,0,0,1-.13,0c-.17-.17-4.13-4.05-3.91-7.05a71,71,0,0,1-12.24-3.71.18.18,0,0,1-.1-.24.19.19,0,0,1,.24-.1,70.33,70.33,0,0,0,12.33,3.72l.17,0,0,.17c-.37,2.84,3.75,6.87,3.79,6.91a.19.19,0,0,1,0,.26A.16.16,0,0,1,384.42,388.53Z" style="fill:#455a64"/><path d="M376.51,380.46l-5.49,0a.18.18,0,0,1-.18-.18.18.18,0,0,1,.18-.19h0l5,0a11,11,0,0,0-2.21-2.38.18.18,0,1,1,.24-.28,9.56,9.56,0,0,1,2.44,2.79Z" style="fill:#455a64"/><path d="M380,385.82h-.08a.2.2,0,0,1-.09-.25l1.08-2.37.14,0a21.44,21.44,0,0,1,4.52,1.53.18.18,0,1,1-.15.33,23.57,23.57,0,0,0-4.29-1.47l-1,2.11A.17.17,0,0,1,380,385.82Z" style="fill:#455a64"/><path d="M386.15,382.45h0l-5.7-1-.58-3.31a.18.18,0,0,1,.16-.21.18.18,0,0,1,.21.15l.53,3.05,5.44,1a.19.19,0,0,1,.15.22A.17.17,0,0,1,386.15,382.45Z" style="fill:#455a64"/><path d="M212.11,405.27s-5.24,1.49-6.84,2.52,1.23,1.46,4.85.89a37.27,37.27,0,0,0-5.3,4c-1.67,1.72,2.83-.24,2.83-.24s-1.84,4.91.52,5.28,6.58-4.38,6.58-4.38,2,2.47,2.57,1.36.06-3.35.06-3.35a47.81,47.81,0,0,0,5.19,3.26c1.26.5.87-1.68.87-1.68s9,2.45,10,1.87-3.06-4.07-4.5-5.17c0,0,4-.39,3.2-1s-4.2-1.55-6.95-2c0,0,5.69-.68,6.21-1.22s-2.15-1.13-2.15-1.13,5.05-2.18,4.35-3.5-8.21,1.13-8.21,1.13,1.43-1.55-.07-1.69-7.37,3.58-7.37,3.58-.48-3.24-2-3.34C213.74,400.3,212.11,405.27,212.11,405.27Z" style="fill:#BA68C8"/><path d="M231.48,414.22h-.09c-.1,0-10.15-4.11-19.38-8.72s-12.53-7.63-12.67-7.76a.25.25,0,0,1,0-.34.24.24,0,0,1,.34,0s3.37,3.09,12.55,7.68,19.25,8.66,19.35,8.7a.24.24,0,0,1,.13.31A.23.23,0,0,1,231.48,414.22Z" style="fill:#455a64"/><path d="M221.55,412.82a.24.24,0,0,1-.14-.05,9.09,9.09,0,0,1-3.3-4.46L218,408l10.63.28a.24.24,0,0,1,.24.25.24.24,0,0,1-.25.23l-10-.26a9.19,9.19,0,0,0,3,3.89.24.24,0,0,1,0,.33A.22.22,0,0,1,221.55,412.82Z" style="fill:#455a64"/><path d="M209.88,416.11a.22.22,0,0,1-.17-.07.24.24,0,0,1,0-.34c.06-.06,5.44-5.32,4.95-9l0-.23.23,0A92.24,92.24,0,0,0,231,401.55a.24.24,0,1,1,.18.44,92.15,92.15,0,0,1-16,4.84c.29,3.92-4.89,9-5.11,9.21A.23.23,0,0,1,209.88,416.11Z" style="fill:#455a64"/><path d="M220.21,405.57l.1-.32c.31-1,2.12-2.76,3.19-3.64a.24.24,0,1,1,.3.37,14.82,14.82,0,0,0-2.88,3.1l6.46,0a.23.23,0,0,1,.25.24.24.24,0,0,1-.24.24Z" style="fill:#455a64"/><path d="M215.67,412.57a.25.25,0,0,1-.22-.14l-1.25-2.75a28.8,28.8,0,0,0-5.61,1.92.25.25,0,0,1-.32-.13.25.25,0,0,1,.13-.32,27.22,27.22,0,0,1,5.9-2l.18,0,1.41,3.09a.24.24,0,0,1-.12.32A.16.16,0,0,1,215.67,412.57Z" style="fill:#455a64"/><path d="M207.62,408.17a.24.24,0,0,1,0-.48l7.11-1.26.69-4a.25.25,0,0,1,.28-.19.24.24,0,0,1,.2.27l-.75,4.32-7.45,1.33Z" style="fill:#455a64"/><path d="M366.34,311.42a31.4,31.4,0,0,0-5.24,1.93c-1.22.79.94,1.12,3.71.68a29.21,29.21,0,0,0-4.05,3.06c-1.28,1.32,2.16-.18,2.16-.18s-1.4,3.75.4,4,5-3.35,5-3.35,1.52,1.89,2,1a5,5,0,0,0,.05-2.57,37.64,37.64,0,0,0,4,2.5c1,.38.67-1.28.67-1.28s6.89,1.87,7.67,1.43-2.33-3.12-3.44-4c0,0,3-.3,2.45-.78s-3.21-1.19-5.32-1.53c0,0,4.36-.53,4.76-.93s-1.66-.87-1.66-.87,3.88-1.67,3.34-2.68-6.29.87-6.29.87,1.1-1.19,0-1.3-5.64,2.74-5.64,2.74-.37-2.48-1.53-2.55C367.59,307.62,366.34,311.42,366.34,311.42Z" style="fill:#455a64"/><path d="M381.16,318.28l-.07,0c-.08,0-7.76-3.14-14.83-6.67s-9.59-5.84-9.69-5.94a.18.18,0,0,1,0-.26.19.19,0,0,1,.26,0s2.57,2.37,9.6,5.88,14.73,6.63,14.81,6.66a.19.19,0,0,1,.1.24A.19.19,0,0,1,381.16,318.28Z" style="fill:#BA68C8"/><path d="M373.56,317.2a.17.17,0,0,1-.11,0,6.9,6.9,0,0,1-2.52-3.41l-.06-.24,8.14.22a.18.18,0,1,1,0,.36l-7.63-.2a6.87,6.87,0,0,0,2.3,3,.18.18,0,0,1-.11.33Z" style="fill:#BA68C8"/><path d="M364.63,319.72a.18.18,0,0,1-.13-.06.19.19,0,0,1,0-.26s4.16-4.07,3.79-6.91l0-.17.17,0a70.33,70.33,0,0,0,12.33-3.72.18.18,0,0,1,.24.1.18.18,0,0,1-.1.24,70.69,70.69,0,0,1-12.24,3.71c.23,3-3.74,6.88-3.91,7.05A.21.21,0,0,1,364.63,319.72Z" style="fill:#BA68C8"/><path d="M372.54,311.65l.08-.24a9.49,9.49,0,0,1,2.43-2.79.19.19,0,0,1,.26,0,.18.18,0,0,1,0,.26,11.6,11.6,0,0,0-2.21,2.38l4.95,0h0a.18.18,0,0,1,.18.19.18.18,0,0,1-.18.18Z" style="fill:#BA68C8"/><path d="M369.06,317a.18.18,0,0,1-.16-.1l-1-2.11a22.09,22.09,0,0,0-4.3,1.46.18.18,0,0,1-.15-.33A21.44,21.44,0,0,1,368,314.4l.14,0,1.08,2.37a.2.2,0,0,1-.09.25Z" style="fill:#BA68C8"/><path d="M362.9,313.64a.18.18,0,0,1-.18-.15.18.18,0,0,1,.15-.21l5.44-1,.53-3.05a.19.19,0,0,1,.22-.15.19.19,0,0,1,.15.21l-.58,3.31-5.7,1Z" style="fill:#BA68C8"/><path d="M120.72,317.23a26.91,26.91,0,0,0-4.45,1.64c-1,.67.8.95,3.15.58a24.39,24.39,0,0,0-3.44,2.6c-1.09,1.12,1.84-.16,1.84-.16s-1.2,3.2.34,3.44,4.28-2.85,4.28-2.85,1.3,1.61,1.67.88a4.2,4.2,0,0,0,0-2.17,31.41,31.41,0,0,0,3.38,2.12c.82.32.56-1.09.56-1.09s5.86,1.59,6.53,1.21-2-2.65-2.93-3.37c0,0,2.58-.24,2.08-.66a15.14,15.14,0,0,0-4.52-1.3s3.7-.44,4-.79-1.4-.74-1.4-.74,3.29-1.41,2.83-2.27-5.34.73-5.34.73.93-1,0-1.1-4.79,2.33-4.79,2.33-.32-2.11-1.3-2.17C121.78,314,120.72,317.23,120.72,317.23Z" style="fill:#455a64"/><path d="M133.32,323.06l-.06,0c-.06,0-6.6-2.66-12.61-5.67s-8.15-5-8.23-5.05a.15.15,0,0,1,0-.22.16.16,0,0,1,.22,0s2.19,2,8.16,5,12.52,5.64,12.59,5.66a.17.17,0,0,1,.09.21A.18.18,0,0,1,133.32,323.06Z" style="fill:#BA68C8"/><path d="M126.86,322.14l-.09,0a5.78,5.78,0,0,1-2.14-2.9l-.06-.2,6.92.18a.15.15,0,0,1,.15.16.15.15,0,0,1-.15.15h0l-6.48-.17a5.88,5.88,0,0,0,2,2.53.16.16,0,0,1,0,.22A.16.16,0,0,1,126.86,322.14Z" style="fill:#BA68C8"/><path d="M119.27,324.28a.13.13,0,0,1-.11,0,.16.16,0,0,1,0-.22s3.54-3.46,3.22-5.87l0-.15.15,0A60,60,0,0,0,133,314.81a.14.14,0,0,1,.2.08.16.16,0,0,1-.08.21,60.5,60.5,0,0,1-10.4,3.15c.19,2.55-3.18,5.85-3.33,6A.15.15,0,0,1,119.27,324.28Z" style="fill:#BA68C8"/><path d="M126,317.42l.07-.2a8,8,0,0,1,2.07-2.37.15.15,0,0,1,.22,0,.16.16,0,0,1,0,.22,9.24,9.24,0,0,0-1.88,2l4.21,0h0a.16.16,0,0,1,.16.16.16.16,0,0,1-.16.16Z" style="fill:#BA68C8"/><path d="M123,322a.14.14,0,0,1-.14-.09l-.82-1.79a18.69,18.69,0,0,0-3.65,1.25.18.18,0,0,1-.21-.08.16.16,0,0,1,.08-.21,16.85,16.85,0,0,1,3.85-1.29l.11,0,.92,2a.16.16,0,0,1-.08.21Z" style="fill:#BA68C8"/><path d="M117.8,319.12a.16.16,0,0,1-.15-.13.15.15,0,0,1,.12-.18l4.63-.83.45-2.59a.15.15,0,0,1,.18-.13.16.16,0,0,1,.13.18l-.49,2.81-4.84.86Z" style="fill:#BA68C8"/><path d="M64.24,339.1s4.79,1.36,6.25,2.3-1.12,1.33-4.43.81a34.29,34.29,0,0,1,4.84,3.65c1.52,1.57-2.58-.22-2.58-.22s1.67,4.48-.48,4.82-6-4-6-4-1.82,2.26-2.35,1.23a5.88,5.88,0,0,1,0-3.05,44.06,44.06,0,0,1-4.74,3c-1.15.45-.8-1.54-.8-1.54s-8.22,2.24-9.16,1.71,2.79-3.72,4.11-4.73c0,0-3.62-.35-2.92-.92s3.83-1.42,6.35-1.83c0,0-5.2-.63-5.68-1.11s2-1,2-1-4.62-2-4-3.19,7.5,1,7.5,1-1.31-1.42.06-1.55,6.73,3.27,6.73,3.27.44-3,1.83-3.05C62.75,334.55,64.24,339.1,64.24,339.1Z" style="fill:#BA68C8"/><path d="M46.55,347.27a.22.22,0,0,1-.08-.42c.09,0,9.25-3.74,17.67-8s11.43-7,11.46-7a.22.22,0,0,1,.31,0,.21.21,0,0,1,0,.31c-.12.11-3.1,2.86-11.56,7.08s-17.61,7.93-17.71,8Z" style="fill:#455a64"/><path d="M55.62,346a.23.23,0,0,1-.18-.09.21.21,0,0,1,.05-.3A8.31,8.31,0,0,0,58.24,342l-9.11.24c-.12,0-.22-.09-.22-.21a.23.23,0,0,1,.21-.23l9.72-.25-.08.28a8.22,8.22,0,0,1-3,4.08A.2.2,0,0,1,55.62,346Z" style="fill:#455a64"/><path d="M66.28,349a.18.18,0,0,1-.15-.07c-.21-.2-4.94-4.83-4.68-8.41a85,85,0,0,1-14.6-4.42.22.22,0,0,1-.12-.29.23.23,0,0,1,.29-.12,84.37,84.37,0,0,0,14.71,4.44l.21,0,0,.21c-.44,3.39,4.47,8.2,4.52,8.25a.22.22,0,0,1,0,.31A.26.26,0,0,1,66.28,349Z" style="fill:#455a64"/><path d="M56.84,339.37l-6.55,0a.22.22,0,0,1,0-.44h0l5.91,0a13.7,13.7,0,0,0-2.64-2.83.22.22,0,0,1,0-.31.21.21,0,0,1,.31,0c1,.81,2.63,2.43,2.91,3.33Z" style="fill:#455a64"/><path d="M61,345.77l-.09,0a.22.22,0,0,1-.11-.29l1.29-2.83.16,0a25.71,25.71,0,0,1,5.4,1.82.22.22,0,1,1-.18.4,26.8,26.8,0,0,0-5.12-1.75l-1.15,2.52A.23.23,0,0,1,61,345.77Z" style="fill:#455a64"/><path d="M68.34,341.74h0l-6.8-1.21-.68-3.94a.23.23,0,0,1,.18-.26.22.22,0,0,1,.25.18l.63,3.64,6.5,1.16a.22.22,0,0,1,0,.43Z" style="fill:#455a64"/></g></g><g id="freepik--character-2--inject-45"><g id="freepik--Character--inject-45"><path d="M190,224.07l3.32-.29c9.15-.8,16-12.59,16.53-17.86.66-6.94-2.32-12-8.19-11.45a17.68,17.68,0,0,0-11.84-3.32h0a16.14,16.14,0,0,0-14.57,17.57l.09,1.18C176.37,218.92,183.08,222.67,190,224.07Z" style="fill:#37474f"/><path d="M173.65,220.24c1.31-2.24,1.1-5,.64-7.6a34.3,34.3,0,0,1-.95-7.65c.1-2,1-4.37,3.84-4.52a2,2,0,0,0,1.11-2.52,4.61,4.61,0,0,0-1.44-.57,9.46,9.46,0,0,0-4.55,0c-.22.06-.43.13-.64.21a7.1,7.1,0,0,0-3.93,3.33c-1.56,3-.49,6.46-1.12,9.65-.74,3.73-4.26,5.51-7.63,6.53a4.1,4.1,0,0,0-2.12,1.08c-.77,1-.35,2.45.4,3.44a8.94,8.94,0,0,0,6.33,3.21C167.58,225.24,171.56,223.82,173.65,220.24Z" style="fill:#37474f"/><path d="M232.64,266.59c3.08.79,6.17,1.5,9.31,2a22,22,0,0,0,5.42.4,9,9,0,0,0,5-1.86,4.89,4.89,0,0,0,1.68-2.45c.27-1,.53-3.06-.13-3.82-.89-1-2.13-.8-3.48-.71a34.67,34.67,0,0,1-3.95.08c-.23,0-2.18,0-1.74-.46a1,1,0,0,1,.4-.23,3,3,0,0,0,1.75-2.16.72.72,0,0,0-.06-.56c-.2-.27-.62-.18-.94-.06a32.73,32.73,0,0,1-4.36,1.21,11,11,0,0,1-4,.45c-.93-.2-14.16-5.13-17.26-6.88,0,0-6-12.31-9.12-18.75-2.79-5.83-7.86-5.88-12.06-5.75,0,0,9.43,28.79,12.68,32.42a9.39,9.39,0,0,0,4,2.42c4.15,1.43,8.43,2.47,12.66,3.6C229.89,265.88,231.27,266.25,232.64,266.59Z" style="fill:#ffa8a7"/><path d="M198.82,227s5.5-.76,8.25.91,3.62,2.79,6.75,9.37,6.81,13.91,6.81,13.91l12.65,5.74a11,11,0,0,0-2.16,4.43,7.79,7.79,0,0,0,0,4.85s-7.68-1.76-11.74-2.84-6.2-1.23-8.25-4.21-11.31-20.29-11.31-20.29Z" style="fill:#BA68C8"/><path d="M198.82,227s5.5-.76,8.25.91,3.62,2.79,6.75,9.37,6.81,13.91,6.81,13.91l12.65,5.74a11,11,0,0,0-2.16,4.43,7.79,7.79,0,0,0,0,4.85s-7.68-1.76-11.74-2.84-6.2-1.23-8.25-4.21-11.31-20.29-11.31-20.29Z" style="opacity:0.1"/><path d="M179.88,229.84c-3.06.55-4.51,3-5.19,6-.33,1.51-.15,3.31.3,6.51s2.88,20.25,2.88,20.25l-1.79,10.92c4.94,5.38,23,6.92,33.8-1,0,0-.54-27.53-1.35-32.95-1.4-9.43-6.46-12.3-11-11.95l-11,.64Z" style="fill:#fafafa"/><path d="M186.28,212.88c-1.16,1.16-1.95.27-2.73-.52a2.41,2.41,0,0,0-3.94.91c-1,2.77,1.5,5.07,2.9,5.34,2.31.46,2.59-1,2.59-1l1.41,11.34s9.58,2.59,12.09-.93l-.35-3.39a14.71,14.71,0,0,0,4.35-.88c1.83-.71,3.15-2,4.1-5,1.27-4,1.06-8.29-1-16.09a9.1,9.1,0,0,0-2.53-4.42c-.2,5.77-6.81,9.08-11,10.69A12.67,12.67,0,0,0,186.28,212.88Z" style="fill:#ffa8a7"/><path d="M195,210.94a1.25,1.25,0,0,1-1.1,1.41,1.29,1.29,0,0,1-.27-2.57A1.27,1.27,0,0,1,195,210.94Z" style="fill:#263238"/><path d="M194.43,217.31l4.85,1.27a2.46,2.46,0,0,1-3,1.87A2.61,2.61,0,0,1,194.43,217.31Z" style="fill:#455a64"/><path d="M194.51,218.82a2.08,2.08,0,0,1,1-.32,2.06,2.06,0,0,1,2.11,1.9,2.37,2.37,0,0,1-1.4,0A2.58,2.58,0,0,1,194.51,218.82Z" style="fill:#f28f8f"/><path d="M205.71,205.92l-3-.75a1.46,1.46,0,0,1,1.8-1.13A1.61,1.61,0,0,1,205.71,205.92Z" style="fill:#263238"/><path d="M205.37,209.77a1.25,1.25,0,1,1-1.38-1.16A1.27,1.27,0,0,1,205.37,209.77Z" style="fill:#263238"/><polygon points="198.62 209.21 199.66 215.79 202.99 214.26 198.62 209.21" style="fill:#f28f8f"/><path d="M198.25,224.61s-6,0-8.82-1.45a7.49,7.49,0,0,1-2.92-2.35,7.38,7.38,0,0,0,1.82,2.94c3,2.86,10.07,2.3,10.07,2.3Z" style="fill:#f28f8f"/><path d="M197.68,351.64a3.59,3.59,0,0,1-.38-1.08,5.76,5.76,0,0,1,.51-3.58,8.4,8.4,0,0,0,1-4.25c-.16-1.54-.42-3.07-.65-4.6-1.06-6.89-2.92-18.28-3-21a35.17,35.17,0,0,1,1-10.51l-4.81-16.57c-2.17-9.58-3.64-17-2.87-25.31.7-7.5-.12-10.68,4.26-15.71l.82-1.05s13.69,17,14.56,19.81a253.25,253.25,0,0,1,2.66,28.56c.24,7.27-.06,8.26-.9,16.79-.69,7-1.4,14.81-2.25,23.08-.26,2.62-.47,5.75.36,8.3,1.71,5.24,6.51,8.34,10.56,11.68a3.28,3.28,0,0,1,1.5,2.21,2.2,2.2,0,0,1-1.25,1.87,11.81,11.81,0,0,1-5.7,1,13.08,13.08,0,0,1-5.34-1.17,11,11,0,0,1-3.6-3.34,8.39,8.39,0,0,0-3.57-3.05A5.82,5.82,0,0,1,197.68,351.64Z" style="fill:#ffa8a7"/><path d="M154.18,344.89a5.53,5.53,0,0,1,1.59-2.31,28.86,28.86,0,0,0,2.31-2.12,9.92,9.92,0,0,0,1.33-2.64c.23-.57.8-2.46,1.54-5,1.94-6.7,5.05-17.81,6.13-20.31,1.84-4.25,3.63-7,6-8.92,0,0,.54-11.58.75-17.73.32-9.08,1.38-18.88,5.75-25.22s7.92-8.21,14-10.92l1.19-.6s2,28.66.78,27.41c-1.62,7.4-3.76,16.09-5.54,23.7-1.61,6.87-2,8.13-6.8,15.37-3.88,5.91-8.5,12.95-12.74,20.09-1.85,3.11-3.9,7.28-4.32,10.95a20.07,20.07,0,0,0,3.69,14,2.76,2.76,0,0,1,.8,1.69c0,.89-1,1.47-1.8,1.75a9.36,9.36,0,0,1-6.39-.17,9.09,9.09,0,0,1-5.69-8.68,10.91,10.91,0,0,0-1.2-6.1c-.59-1-1.42-2.05-1.48-3.25A2.81,2.81,0,0,1,154.18,344.89Z" style="fill:#ffa8a7"/><path d="M154.69,352.71,156,353s-.48-1.87-1-1.74S154.69,352.71,154.69,352.71Z" style="fill:#263238"/><path d="M153.31,346.3c-.4,0-.45.58-.59,1.57a3.19,3.19,0,0,0,0,1.14,10.63,10.63,0,0,0,2,3.7l.35-.82a5.13,5.13,0,0,1,.49,2.94c-.09,1.45-.25,5.26,2.11,7.71a10.83,10.83,0,0,0,7.5,3.52,7.81,7.81,0,0,0,5.11-1.19c.38-.41.82-1.92.41-2.25S153.31,346.3,153.31,346.3Z" style="fill:#37474f"/><path d="M160.54,334.22c-.92-.47-1.1.34-1.63,2.76-.5,2.23-1.62,3.34-3.27,4.85a7,7,0,0,0-2.33,4.79c.34,1.49,1.46,2.71,2.07,3.74a8.42,8.42,0,0,1,.82,4.95,9.1,9.1,0,0,0,4.34,8.06c3.42,1.89,7.07,2,9.81.37,0,0,1.45-1.38.46-2.76a31.6,31.6,0,0,1-3.5-7.18,15.09,15.09,0,0,1,0-9.14c1-2.69,3.28-6.16,2-7l-.54,1s-1.85,1.08-4.87-.36-3.71-3-3.71-3Z" style="fill:#BA68C8"/><path d="M160.54,334.22c-.92-.47-1.1.34-1.63,2.76-.5,2.23-1.62,3.34-3.27,4.85a7,7,0,0,0-2.33,4.79c.34,1.49,1.46,2.71,2.07,3.74a8.42,8.42,0,0,1,.82,4.95,9.1,9.1,0,0,0,4.34,8.06c3.42,1.89,7.07,2,9.81.37,0,0,1.45-1.38.46-2.76a31.6,31.6,0,0,1-3.5-7.18,15.09,15.09,0,0,1,0-9.14c1-2.69,3.28-6.16,2-7l-.54,1s-1.85,1.08-4.87-.36-3.71-3-3.71-3Z" style="opacity:0.5"/><path d="M200.36,356.52l1.61-.84s-1.26-1.11-2-1S200.36,356.52,200.36,356.52Z" style="fill:#263238"/><path d="M197,351.83c-.34.09-.22.73-.17,1.21a10.11,10.11,0,0,0,.15,1,7.37,7.37,0,0,0,3.39,2.43l0-1.06a6,6,0,0,1,2.73,2.17,12.52,12.52,0,0,0,4.74,4.24,15.05,15.05,0,0,0,8.68.73c3.21-.67,3.89-1.8,3.83-2.2s.38-1.17-.49-1.37S197,351.83,197,351.83Z" style="fill:#37474f"/><path d="M198.18,338.13c-1-.05-.78.81-.28,3.24a8.41,8.41,0,0,1-.69,5.73,6.24,6.24,0,0,0-.11,5c.92,1.22,2.26,1.55,3.91,2.47a13,13,0,0,1,3.48,3.24,9.16,9.16,0,0,0,6.61,3.69c3.89.42,7.52-.1,8.89-1.7,0,0,.95-2.07-.36-3.14-1.68-1.38-3.7-2.78-5.78-4.71s-4.73-4.69-5.49-7.48c-.83-3.07.64-6.42-.87-6.68l-.07,1.18s-1.15,1.31-4.49,1.41c-4.26.13-4.58-1.16-4.58-1.16Z" style="fill:#BA68C8"/><path d="M198.18,338.13c-1-.05-.78.81-.28,3.24a8.41,8.41,0,0,1-.69,5.73,6.24,6.24,0,0,0-.11,5c.92,1.22,2.26,1.55,3.91,2.47a13,13,0,0,1,3.48,3.24,9.16,9.16,0,0,0,6.61,3.69c3.89.42,7.52-.1,8.89-1.7,0,0,.95-2.07-.36-3.14-1.68-1.38-3.7-2.78-5.78-4.71s-4.73-4.69-5.49-7.48c-.83-3.07.64-6.42-.87-6.68l-.07,1.18s-1.15,1.31-4.49,1.41c-4.26.13-4.58-1.16-4.58-1.16Z" style="opacity:0.5"/><path d="M177.87,262.62a36.76,36.76,0,0,0-3.81,12.2c-1.21,7.82-1.84,28.72-1.84,28.72s-4.25,4.13-5.55,8-5,19-5,19,2.33,4.18,9.21,4.55c0,0,6.3-9.53,11-16.4s6-9.75,7-12.72,3.24-13.06,3.24-13.06l3.88,13.7a26.65,26.65,0,0,0-1.47,9.81c.34,5,3.18,18.27,3.18,18.27s6.53,1.69,10.25-.95c0,0,2.16-18.5,2.84-23.68s1.24-8.46.59-22.21-1.79-26.45-1.79-26.45-3.27,3-14.7,3.88S177.87,262.62,177.87,262.62Z" style="fill:#455a64"/><path d="M192.05,292.87l2.77-11.74s7.42-.23,11.07-4.47c0,0-1.6,4.67-9.15,6.19l-3,10.21,1.09,9.59Z" style="fill:#37474f"/><path d="M186.35,227.66l12.05,14.4.2-14.06-.11-1.05a15.67,15.67,0,0,1,4.5,1.38c2,1,5.63,4,6.54,15.37s2.7,39.41,2.7,39.41-7.17,6.22-22.77,4.93-18.3-6.12-18.3-6.12,1.83-12.82,4.63-18.21l.58-5.65-4.15-21.54s1.31-6,6.58-7.58a72,72,0,0,1,7.46-2Z" style="fill:#BA68C8"/><path d="M198.4,242.06c2.33,2.47,6.08,5.86,6.44,7.07s.89,31.43,1,35.55c0,0,.4-23.52.33-29.37s.75-6.59-1.87-8.88A55.92,55.92,0,0,0,198.4,242.06Z" style="opacity:0.2"/><path d="M176.37,258.06a64.83,64.83,0,0,0,20.73,2.75,30.37,30.37,0,0,0,13.39-4l.36,5.25s-3.75,3.76-14,4.23-21-2.61-21-2.61Z" style="fill:#BA68C8"/><path d="M176.37,258.06a64.83,64.83,0,0,0,20.73,2.75,30.37,30.37,0,0,0,13.39-4l.36,5.25s-3.75,3.76-14,4.23-21-2.61-21-2.61Z" style="opacity:0.2"/><circle cx="202.34" cy="250.54" r="1.28" style="opacity:0.2"/><circle cx="197.1" cy="251.1" r="1.28" style="opacity:0.2"/><path d="M203.74,256.22a1.28,1.28,0,1,1-1.28-1.28A1.28,1.28,0,0,1,203.74,256.22Z" style="opacity:0.2"/><circle cx="197.21" cy="256.78" r="1.28" style="opacity:0.2"/><circle cx="202.34" cy="269.75" r="1.28" style="opacity:0.2"/><circle cx="197.1" cy="270.31" r="1.28" style="opacity:0.2"/><path d="M155.48,198.21c.48-3.14,1-6.26,1.78-9.35a22,22,0,0,1,1.75-5.15,9,9,0,0,1,3.69-3.91,4.88,4.88,0,0,1,2.92-.58c1,.14,3,.71,3.46,1.62.59,1.22-.1,2.26-.71,3.47a35.16,35.16,0,0,0-1.63,3.6c-.07.23-.89,2-.26,1.79a1.13,1.13,0,0,0,.37-.28,3,3,0,0,1,2.68-.77.72.72,0,0,1,.48.28c.17.3-.08.65-.31.89a33,33,0,0,0-2.82,3.53,10.91,10.91,0,0,0-2,3.49c-.19.93-.84,15-.45,18.57,0,0,8.89,10.35,14.06,14.43,3.39,12.2-3.86,16.26-4.76,13.51,0,0-17.86-18.81-19.92-23.23a9.42,9.42,0,0,1-.65-4.64c.32-4.37,1-8.72,1.66-13.06C155.05,201,155.26,199.61,155.48,198.21Z" style="fill:#ffa8a7"/><path d="M180.06,228.56c-.64-1.61-2.62-1.91-4-2.95-1.54-1.16-11.29-10.63-11.29-10.63l-.36-8.31s-6.54,1.32-10-1.26c0,0-1.52,7.65-1.74,11.05s.93,5,3.41,8.1,16.35,18.88,17.53,19.94,4,.54,5.53-2.44A19.18,19.18,0,0,0,180.06,228.56Z" style="fill:#BA68C8"/><path d="M180.06,228.56c-.64-1.61-2.62-1.91-4-2.95-1.54-1.16-11.29-10.63-11.29-10.63l-.36-8.31s-6.54,1.32-10-1.26c0,0-1.52,7.65-1.74,11.05s.93,5,3.41,8.1,16.35,18.88,17.53,19.94,4,.54,5.53-2.44A19.18,19.18,0,0,0,180.06,228.56Z" style="opacity:0.1"/><path d="M175.75,179.64s2.49,4.8,4.18,6.24,2.31-1.19,1.32-4.52a44.89,44.89,0,0,0,6.53,4.75c2.79,1.48-.45-2.61-.45-2.61s7.9,1.52,8.44-.67-7.15-5.93-7.15-5.93,3.92-1.94,2.12-2.43-5.37.07-5.37.07,4.36-3.74,5.12-4.93-2.71-.74-2.71-.74,3.74-8.43,2.79-9.35-6.46,3-8.21,4.35c0,0-.69-3.66-1.69-2.92s-2.4,3.94-3,6.51c0,0-1.23-5.25-2.09-5.71s-1.78,2-1.78,2-3.59-4.6-5.69-3.9,2,7.56,2,7.56-2.52-1.27-2.71.12,5.9,6.69,5.9,6.69-5.19.57-5.31,2C167.74,178.31,175.75,179.64,175.75,179.64Z" style="fill:#BA68C8"/><path d="M163.64,191.86a.27.27,0,0,1-.23-.12.27.27,0,0,1,.08-.38s4.89-3.23,12-11.9,13.46-18.13,13.53-18.22a.27.27,0,1,1,.45.3c-.06.1-6.36,9.55-13.56,18.27s-12.12,12-12.17,12A.28.28,0,0,1,163.64,191.86Z" style="fill:#455a64"/><path d="M180.1,174.08l.22-9.88a.31.31,0,0,1,.28-.27.28.28,0,0,1,.27.28l-.2,9.21a16.92,16.92,0,0,0,6.41-3,.27.27,0,0,1,.39,0,.28.28,0,0,1,0,.38,17.24,17.24,0,0,1-7,3.19Z" style="fill:#455a64"/><path d="M192.78,181.58a.35.35,0,0,1-.14,0c-.08-.05-8.7-4.86-14.74-4.27l-.22,0-.07-.21c-2.56-7.36-8.05-14.62-8.1-14.69a.27.27,0,1,1,.43-.34,64.12,64.12,0,0,1,8.12,14.65c6.19-.48,14.5,4.16,14.85,4.36a.27.27,0,0,1-.13.51Z" style="fill:#455a64"/><path d="M175.93,172.15l-.33-.05c-1.54-.24-4.4-1.84-5.83-2.79a.26.26,0,0,1-.08-.37.27.27,0,0,1,.38-.08,22.11,22.11,0,0,0,5.29,2.63l-.17-6a.28.28,0,0,1,.27-.28.28.28,0,0,1,.28.26Z" style="fill:#455a64"/><path d="M185.6,183a.25.25,0,0,1-.21-.1,18.84,18.84,0,0,1-3.33-5.43l-.08-.26,4.93-1.42a.27.27,0,0,1,.34.18.27.27,0,0,1-.19.34l-4.38,1.26a21,21,0,0,0,3.14,5,.28.28,0,0,1-.22.44Z" style="fill:#455a64"/><path d="M180.1,184a.28.28,0,0,1-.26-.19l-2.17-6.52-6.49-.5a.28.28,0,0,1-.26-.29.29.29,0,0,1,.3-.25l6.85.53,2.29,6.86a.26.26,0,0,1-.17.34Z" style="fill:#455a64"/></g></g><g id="freepik--character-1--inject-45"><g id="freepik--character--inject-45"><path d="M220.34,203.66c.72.16,1.45.31,2.17.44,1,.18,2.79.3,3.77.47a6.33,6.33,0,0,1,1.51.21,15.86,15.86,0,0,1-2.7-2.59,2.25,2.25,0,0,1,.1-3.06c.38-.31,1.07.69,2.85,1.56,2.27,1.11,4.3,1.14,6.39,2.91a4.81,4.81,0,0,0,3.56.86l22.39-2.65s9.45-17.62,13.63-24.69c4.08-6.88,7.94-13.05,16.92-12.73L286,184.79s-9.63,17.2-15.86,26.06c-2.09,3-3.93,3.61-7.24,3.57-3.86,0-4,.6-20.62-.11a112.91,112.91,0,0,0-13.08.07c-3.36.23-7.42.25-10.34-1.7a6.83,6.83,0,0,1-3.11-4.65,6.94,6.94,0,0,0-.4-2.37,10.29,10.29,0,0,0-.82-1.14,1.5,1.5,0,0,1-.27-1.33,1.27,1.27,0,0,1,1.12-.71,3.65,3.65,0,0,1,1.38.24C217.94,203.07,219.13,203.38,220.34,203.66Z" style="fill:#ffbda7"/><path d="M291.84,164.25c-5.68-1-10.32.6-13.86,5s-17.91,32.1-17.91,32.1l-14.13,2s1.19,7.23,0,11.26c0,0,14.2.53,18,.45s3.89-.28,7.22-4.44S286,187.46,286,187.46Z" style="fill:#37474f"/><path d="M245.94,203.31l-7.42,1.09s.72,6.42,0,9.85l7.45.32a16.11,16.11,0,0,0,.7-5.89A20.13,20.13,0,0,0,245.94,203.31Z" style="fill:#263238"/><g id="freepik--Botom--inject-45"><path d="M328.14,349.38c-2.63,1.51-5.59,1.48-8.82.26l-2.13-17.3,10.48,1.07Z" style="fill:#ffbda7"/><path d="M295.82,340c-2.11,5-6.23,3.72-10.92.73l.29-17.46,11.08-.33Z" style="fill:#ffbda7"/><path d="M309.1,366.38a4,4,0,0,0,.19,2.67c.37.54,2.42,2.18,6,2.34s6.54-.42,8.53-1.77,2.93-2.8,3.06-4.77-.14-3.87.75-5.41,2.16-3,2.44-3.81a7.71,7.71,0,0,0-.1-4Z" style="fill:#263238"/><path d="M318.07,348.91a9.44,9.44,0,0,1-.36,2.2,20.71,20.71,0,0,1-2,4.4,17.73,17.73,0,0,1-1.38,2.07c-1,1.28-2.28,2.34-3.35,3.56a7.08,7.08,0,0,0-2,4.31c-.07,2.71,2.9,3.54,5.18,3.88a16.58,16.58,0,0,0,7.34-.59,6.75,6.75,0,0,0,4.8-5.55c.1-.75,0-1.52.1-2.28a10.66,10.66,0,0,1,2-4.81,14.74,14.74,0,0,0,1.54-2.62c.65-1.7,0-3.57-.47-5.23-.43-1.43-.92-3.05-1.43-2.9a1.83,1.83,0,0,1-.09.87,4.16,4.16,0,0,0-.38.86,6.23,6.23,0,0,1-.37,1.13,3,3,0,0,1-1.17,1.37c-.06-1-.13-2.05-.19-3.07a1.42,1.42,0,0,0-.26-.89,1.38,1.38,0,0,0-.88-.35,19.28,19.28,0,0,0-5.81-.31,1.06,1.06,0,0,0-.77.36,1.18,1.18,0,0,0-.11.7A28.12,28.12,0,0,1,318.07,348.91Z" style="fill:#455a64"/><path d="M315.37,356.08c1-.78,3.25-.86,4.49-.76a7.45,7.45,0,0,1,3.55,1.13.8.8,0,0,0,1-.12h0a.75.75,0,0,0-.11-1.15,7.61,7.61,0,0,0-4-1.34c-3-.13-3.92.42-3.92.42S315.05,355.19,315.37,356.08Z" style="fill:#f5f5f5"/><path d="M313.13,358.93c1.25-.79,3.74-.75,5-.66a7.08,7.08,0,0,1,3.46,1.2.81.81,0,0,0,1-.11h0a.75.75,0,0,0-.11-1.15,7.91,7.91,0,0,0-4.09-1.46c-3-.13-3.82.52-3.82.52A2.51,2.51,0,0,0,313.13,358.93Z" style="fill:#f5f5f5"/><path d="M321.46,350.89a7.51,7.51,0,0,0-3.82.43c-.52.32-.85,1.18-.5,1.38a7,7,0,0,1,3.38-.57,10.33,10.33,0,0,1,3.32.81c.26.11.57.26.85.4a.72.72,0,0,0,1-.34h0a.67.67,0,0,0-.29-.86A9.78,9.78,0,0,0,321.46,350.89Z" style="fill:#f5f5f5"/><path d="M267.06,352a3.26,3.26,0,0,0,.21,2.41c.36.69,4.1,2.66,9.07,2.18a20.74,20.74,0,0,0,10.17-3.9c1.86-1.31,3.83-1.61,6.29-1.82s5.65-1.54,6.16-2.71a5.39,5.39,0,0,0-.18-3.13Z" style="fill:#263238"/><path d="M286.59,336.09l-1.3-.43a1.13,1.13,0,0,0-.74-.07c-.32.13-.43.51-.5.84a13,13,0,0,1-.48,2.18,5.55,5.55,0,0,1-1.35,1.51,23.33,23.33,0,0,1-3.91,2.68c-1.6.92-3.17,1.65-4.82,2.45s-3.95,1.36-5.26,2.3c-1.91,1.37-2.07,4.69.2,5.93,1.95,1.06,7,2.13,12.28.48,2.86-.91,6-4.08,9.74-4.49,2.4-.26,6.93-1.07,8.43-3,.55-.82-.29-3.37-1-5.57-.75-2.4-1.13-6.18-1.92-5.94,0,.81-.72,1.29-1.12,2a13.35,13.35,0,0,0-.81,1.95,3.51,3.51,0,0,1-1.21,1.69,1.6,1.6,0,0,1-1.95-.05c-.73-.71-.35-2-.89-2.87a3,3,0,0,0-1.73-1.06Z" style="fill:#455a64"/><path d="M280.52,341.42a2.24,2.24,0,0,1,1.74-1.24c1.09-.24,3.05.51,4.28,1.47a.9.9,0,0,1-.08,1.49h0a.91.91,0,0,1-1-.09A6.93,6.93,0,0,0,280.52,341.42Z" style="fill:#f5f5f5"/><path d="M277.18,343.43a2.59,2.59,0,0,1,2.08-1.15,8,8,0,0,1,4.68,1.59.88.88,0,0,1-.08,1.44h0a.86.86,0,0,1-1-.08A6.87,6.87,0,0,0,277.18,343.43Z" style="fill:#f5f5f5"/><path d="M273.49,345.25a2.88,2.88,0,0,1,2.15-1,7.73,7.73,0,0,1,4.49,1.61.88.88,0,0,1-.08,1.44h0a.86.86,0,0,1-1-.08A6.56,6.56,0,0,0,273.49,345.25Z" style="fill:#f5f5f5"/><path d="M324.07,222.8c1.19,19,3.11,60.8,3.11,60.8.27,2.36,1.14,8,1.57,16.52.63,12.33-.35,39.54-.35,39.54a13.34,13.34,0,0,1-10.52.84s-7-38.81-9.26-50.92c-2-10.63-5.81-30.67-5.81-30.67L301,284.83a85.51,85.51,0,0,1-.42,15.66c-.7,5.62-4.09,30-4.09,30a22.3,22.3,0,0,1-11.9.1s-1.09-39.84-1.34-45c-.29-5.9-1.52-66.61-1.52-66.61Z" style="fill:#BA68C8"/><path d="M324.07,222.8c1.19,19,3.11,60.8,3.11,60.8.27,2.36,1.14,8,1.57,16.52.63,12.33-.35,39.54-.35,39.54a13.34,13.34,0,0,1-10.52.84s-7-38.81-9.26-50.92c-2-10.63-5.81-30.67-5.81-30.67L301,284.83a85.51,85.51,0,0,1-.42,15.66c-.7,5.62-4.09,30-4.09,30a22.3,22.3,0,0,1-11.9.1s-1.09-39.84-1.34-45c-.29-5.9-1.52-66.61-1.52-66.61Z" style="opacity:0.5"/><path d="M302.81,258.91l-3.27-15.47s-7.81-.45-12.23-4.66c0,0,.89,4.23,10.75,6.49l3.27,15.66.33,14.55Z" style="opacity:0.5"/></g><path d="M320.49,166.37c3.72.66,4,2.51,4.79,6.21a30.68,30.68,0,0,1,1,9.08l-2.78,21.86.95,25.17c-6,6.52-30,8.62-43.08-.95,0,0,.14-41.35.74-48,1.06-11.59,6.32-15.71,14-15.68l13.2,1.12Z" style="fill:#BA68C8"/><circle cx="294.83" cy="137.02" r="11.71" transform="translate(144.51 425.3) rotate(-87.39)" style="fill:#263238"/><path d="M310.21,139.35l2.5-6.71a4.36,4.36,0,0,1,3.63,1.29c1.56,1.6.67,6.6-1.29,11.49,0,0-1.93,8.91-2.7,10.38a4,4,0,0,1-2.34,1.87Z" style="fill:#263238"/><path d="M310.4,145.82c.71.43,1.74-.94,2.63-1.87s3.78-2.17,5.21.87-1.3,7.17-3.57,7.87c-3.92,1.22-4.5-1.29-4.5-1.29l-.35,14.12a12.6,12.6,0,0,1-9.53,7.18c-7,.92-5.5-4.8-3.21-7.6l0-4.29a25,25,0,0,1-5.28.25c-2.87-.46-4.68-2.74-5.54-5.86-1.39-5-1.91-9-.68-18.9,1.34-10.79,13.89-10.86,20.66-6.57S310.4,145.82,310.4,145.82Z" style="fill:#ffbda7"/><path d="M310.32,146.77c1.14-.33,2-2.14,2.71-2.82,1.24-1.12-.32-11.31-.32-11.31a4.82,4.82,0,0,0-1.18-5.16c-1.68-1.87-4.51-2.09-9.35-2.87-2.38-.38-5.19-.57-7.55-1a23.68,23.68,0,0,1-7-2.24,2.18,2.18,0,0,0-1.34-.35,1.31,1.31,0,0,0-.85.71,2.46,2.46,0,0,0-.19,1.11,4.29,4.29,0,0,0,.2,1.18c.07.23.54.91.44,1.11-.25.49-2.1-.33-2.47-.45a.45.45,0,0,0-.28,0,.36.36,0,0,0-.15.17,4.5,4.5,0,0,0,.22,3.92,13.23,13.23,0,0,0,6.65,5.66,18.26,18.26,0,0,0,9.07,1.26,17.18,17.18,0,0,0,3.86-.9,10.32,10.32,0,0,0,.85,1.33,6.25,6.25,0,0,0,1.25,1.1,5.32,5.32,0,0,0,1.51.7c.55.14,1.08.07,1.38.67a2.74,2.74,0,0,1,.23,1.24c0,1.25.07,2.5.11,3.75a6.27,6.27,0,0,0,.25,1.88,2.08,2.08,0,0,0,1.27,1.32A1.23,1.23,0,0,0,310.32,146.77Z" style="fill:#263238"/><path d="M309.74,114.18l.19.11a3.25,3.25,0,0,1,1.68-1.83,3.66,3.66,0,0,1,2.9.13,3.44,3.44,0,0,1,2.16,3.47,3.31,3.31,0,0,1,3.14,5.77,2.86,2.86,0,0,1,1,1.12,4,4,0,0,1,.09,1.92,2.72,2.72,0,0,1-1.65,2,4.27,4.27,0,0,1-2,.16,2.68,2.68,0,0,0-1.29,0,3.9,3.9,0,0,0-.84.52,3.49,3.49,0,0,1-3.29.25,2.48,2.48,0,0,1-1.22-3.15c-1.7.71-4.88.9-5.59-1.41a2.19,2.19,0,0,1,.07-1.74c.12-.24.94-1.33,1.3-1.13a3.51,3.51,0,0,1,3.33-6.17Z" style="fill:#455a64"/><path d="M294.49,124.49c3.11.45,16.63,5.39,17.73,20.45,1.6-2,4-2.23,4.92-1.53,0,0,3.92-10.67-.77-18.1s-18.09-10.1-26.49-3A10.32,10.32,0,0,0,294.49,124.49Z" style="fill:#BA68C8"/><path d="M297.1,160.81s6.44-1.28,8.69-2.46a7.44,7.44,0,0,0,3.12-3.07,10.13,10.13,0,0,1-1.78,3.62c-1.65,2.1-10,3.62-10,3.62Z" style="fill:#f0997a"/><path d="M298.06,143.87a1.3,1.3,0,0,0,1.28,1.34,1.34,1.34,0,1,0-1.28-1.34Z" style="fill:#263238"/><path d="M299.59,139.9l2.86,1.85a1.78,1.78,0,0,0-.53-2.41A1.66,1.66,0,0,0,299.59,139.9Z" style="fill:#263238"/><path d="M300.2,151.71l-4.53,1.94A2.51,2.51,0,0,0,299,155,2.39,2.39,0,0,0,300.2,151.71Z" style="fill:#f0997a"/><path d="M286.24,141.31l2.71-1.65a1.51,1.51,0,0,0-2.13-.57A1.66,1.66,0,0,0,286.24,141.31Z" style="fill:#263238"/><path d="M287.31,143.47a1.3,1.3,0,0,0,1.28,1.34,1.34,1.34,0,1,0-1.28-1.34Z" style="fill:#263238"/><polygon points="294.49 142.77 293.39 151 289.19 149.19 294.49 142.77" style="fill:#f0997a"/><path d="M303.75,231.66l.18,3.63a1.34,1.34,0,0,0,1.18,1.27,27.61,27.61,0,0,0,12.61-1.62c7.6-2.83,7.72-5.24,7.72-5.24l0-4.94Z" style="fill:#263238"/><path d="M286.47,228v2.81a.87.87,0,0,1-1.13.84,17.64,17.64,0,0,1-3.12-1.27,7,7,0,0,1-2.28-1.86l-.15-4.26Z" style="fill:#263238"/><path d="M279.79,224.23c1.58,2.55,6.68,3.74,6.68,3.74s-.11-1.83,0-11.92.5-28.81,2.7-37.2a44.86,44.86,0,0,1,5.86-13,2.92,2.92,0,0,1,2.18-1.29v-.48c-7.62-.13-9.35.65-12.56,4.69s-3.86,11.67-4.25,20.3C280,197.46,277.61,217.92,279.79,224.23Zm24-22c-.61,23.16-.34,27.56-.06,29.46,0,0,16.23,1.56,21.67-6.9,1.84-3.82-.25-12.65-.69-20.92l2.49-28.27a9.14,9.14,0,0,0-5.28-9.11l-12-1.56c-1,2.34-3.25,5.37-4.33,10C304.25,180.73,304.16,189.16,303.81,202.2Z" style="fill:#455a64"/><path d="M312.87,165.27c1.1,1.83.94,9,1,18.63s0,16.75,0,16.75c0,2.24-13.15,2.24-13.15,0l1.65-28.42Z" style="fill:#BA68C8"/><path d="M312.87,165.27c1.1,1.83.94,9,1,18.63s0,16.75,0,16.75c0,2.24-13.15,2.24-13.15,0l1.65-28.42Z" style="opacity:0.30000000000000004"/><path d="M297.1,161.79a4.29,4.29,0,0,0-3,1.2c-1.18,1.26-2.3,5.16-2.3,7.27s2,5,7.14,5.41c4.9.39,9.68-1.53,11.83-4a8,8,0,0,0,2.06-6.38s-.58-3.1-1.21-3.69a6.51,6.51,0,0,0-1.72-1l0,1.7s-1.32,3.73-8.12,3.7c-5.23,0-4.68-3.43-4.68-3.43Z" style="fill:#BA68C8"/><path d="M297.1,161.79a4.29,4.29,0,0,0-3,1.2c-1.18,1.26-2.3,5.16-2.3,7.27s2,5,7.14,5.41c4.9.39,9.68-1.53,11.83-4a8,8,0,0,0,2.06-6.38s-.58-3.1-1.21-3.69a6.51,6.51,0,0,0-1.72-1l0,1.7s-1.32,3.73-8.12,3.7c-5.23,0-4.68-3.43-4.68-3.43Z" style="opacity:0.2"/><path d="M301.78,166c-4.28,0-4.69-2.3-4.7-3.13h0c-1.25.49-3.33,2.19-1,4.53,2.15,2.19,7.82,1.83,11,.24s3.15-4.67,2.8-5.34C309.9,162.25,308.58,166,301.78,166Z" style="opacity:0.1"/><path d="M302.36,243s5.18-1.58,6.9-3-.75-2.48-4.2-2.12a44.91,44.91,0,0,0,5.85-5.55c2-2.48-2.64,0-2.64,0s2.92-7.5.87-8.43-7.13,5.95-7.13,5.95-1.2-4.2-2-2.52-.9,5.29-.9,5.29-2.89-5-3.92-5.93-1.22,2.53-1.22,2.53-7.61-5.2-8.69-4.43,1.76,6.89,2.79,8.86c0,0-3.72,0-3.18,1.14s3.44,3.07,5.85,4.18c0,0-5.38.25-6,1s1.69,2.11,1.69,2.11-5.18,2.7-4.87,4.89,7.79-.58,7.79-.58-1.7,2.25-.36,2.69,7.64-4.58,7.64-4.58-.38,5.2,1,5.58C299.61,250.68,302.36,243,302.36,243Z" style="fill:#BA68C8"/><path d="M311.92,257.39a.26.26,0,0,1-.25-.17c0-.05-2.29-5.39-9.52-14s-15.38-16.53-15.46-16.61a.28.28,0,1,1,.38-.4c.08.08,8.23,8,15.5,16.66s9.58,14.09,9.6,14.14a.28.28,0,0,1-.15.36Z" style="fill:#455a64"/><path d="M297.7,237.75l-9.69-2a.27.27,0,0,1,.11-.53l9,1.87a16.88,16.88,0,0,0-1.78-6.86.26.26,0,0,1,.11-.37.28.28,0,0,1,.37.11,17.28,17.28,0,0,1,1.86,7.46Z" style="fill:#455a64"/><path d="M284.15,246.08a.26.26,0,0,1-.24-.15.28.28,0,0,1,.12-.37,64.2,64.2,0,0,1,15.88-5.32c.65-6.18,6.72-13.51,7-13.82a.28.28,0,0,1,.39,0,.27.27,0,0,1,0,.38c-.06.08-6.37,7.68-6.88,13.73v.22l-.22,0c-7.7,1.18-15.84,5.26-15.92,5.3A.28.28,0,0,1,284.15,246.08Z" style="fill:#455a64"/><path d="M290.93,247.13a.26.26,0,0,1-.19-.07.27.27,0,0,1,0-.39,22.6,22.6,0,0,0,3.55-4.73l-5.92-.91a.29.29,0,0,1-.23-.32.27.27,0,0,1,.31-.22l6.59,1-.11.31c-.52,1.48-2.61,4-3.8,5.23A.32.32,0,0,1,290.93,247.13Z" style="fill:#455a64"/><path d="M301.14,236.48l-.51-5.11a.28.28,0,1,1,.55-.05l.44,4.54a21.38,21.38,0,0,0,5.48-2.18.26.26,0,0,1,.37.11.27.27,0,0,1-.12.37,19.11,19.11,0,0,1-5.94,2.29Z" style="fill:#455a64"/><path d="M298.45,247.22h-.07a.27.27,0,0,1-.2-.33l1.76-6.65,7.17-1a.27.27,0,1,1,.07.54l-6.8.95-1.67,6.3A.27.27,0,0,1,298.45,247.22Z" style="fill:#455a64"/><path d="M304.09,245.55a28.71,28.71,0,0,0,4.52-2.31.78.78,0,0,0,.2-.16c.34-.46-.45-.22-.59-.21a10.11,10.11,0,0,1-1.23,0,5.81,5.81,0,0,1-2.33-.47,2.56,2.56,0,0,1-1.2-1.05c-.18-.37-.45-.88-.2-1.27a1.38,1.38,0,0,1,1-.46c.93-.16,1.85-.35,2.77-.56a58.88,58.88,0,0,0,6.76-2,9.85,9.85,0,0,0,2.78-1.36,15,15,0,0,0,1.91-1.62c1.83-2.49,12.71-17.51,12.71-17.51L320,184.31s-4.65-13.65,0-18c5.21-.43,10.18,1.55,13.58,10.51S344.24,210.56,345,214c.55,2.36,1.65,4.61-1.91,8.9-3.77,4.54-4.19,4.87-17.48,18.22a90.72,90.72,0,0,1-7.64,7.67c-7.36,5.76-11.4,6.09-14.74,3.87-1-.65-1.6-1.62-2.54-2.3a7.64,7.64,0,0,1-1.52-1.18,1.36,1.36,0,0,1-.1-1.75,1.91,1.91,0,0,1,.79-.4C301.3,246.56,302.71,246.09,304.09,245.55Z" style="fill:#ffbda7"/><path d="M319.28,166.11c4.39.32,9,.17,11.88,3.43,4.49,5.13,4.73,9.79,7,17.25s8,27.86,8.37,30.41-2.64,5.81-4.88,8.1c-3.36,3.42-9.39,9.12-9.39,9.12-1.48-2.84-5.75-6.76-9.12-7l7.08-11.17-10.59-29.78S314.14,173.18,319.28,166.11Z" style="fill:#37474f"/><path d="M323.17,227.38s2.47-.39,5.77,2.39,3.35,4.65,3.35,4.65l-6,6.06s-2.76-5.91-7.53-7.07Z" style="fill:#263238"/></g></g></svg>