<svg xmlns="http://www.w3.org/2000/svg" viewBox="179.73 97.02 181.05 319.26"><g id="freepik--Character--inject-11"><path d="M353.63,195.27c.23-.36-2.77-5.79-8.45-9.41s-11.89-4-12.12-3.67c.23-.36-3.6-6.32-10.29-10.57s-13.72-5.2-13.95-4.84c.23-.36-5.3-7.4-14.1-13s-17.52-7.61-17.75-7.25c.23-.36-3.6-6.32-10.3-10.58s-13.72-5.2-14-4.84c.23-.36-2.78-5.79-8.46-9.41s-11.88-4-12.11-3.67c7.69-12.09,47.17-15.35,80.36,5.48l1,.65c.35.22.7.44,1,.67C347.53,146.05,361.32,183.18,353.63,195.27Z" style="fill:#263238"/><path d="M192.16,175.25l-8.73-3.43,7.77-4.2s4.69,3,4.4,6.62Z" style="fill:#263238"/><polygon points="179.73 165.52 186.43 162.36 192.33 168.47 183.43 171.81 179.73 165.52" style="fill:#263238"/><path d="M239.4,186.31,238,187.88c-.46.49-.94,1-1.41,1.44-.93,1-1.91,1.86-2.9,2.77a74.34,74.34,0,0,1-6.35,5.17,47.66,47.66,0,0,1-7.56,4.58,27.29,27.29,0,0,1-4.9,1.82,16.75,16.75,0,0,1-6.95.42,12.55,12.55,0,0,1-1.67-.4,13.65,13.65,0,0,1-1.41-.46,19.33,19.33,0,0,1-2.65-1.21,22.53,22.53,0,0,1-7.66-7.17,27.94,27.94,0,0,1-2.3-4,38.56,38.56,0,0,1-2.71-8.17c-.3-1.36-.5-2.72-.67-4.08-.08-.68-.14-1.37-.19-2.06s0-1.33-.08-2.16l8.22-1.34.67,1.48c.23.52.47,1,.72,1.55.48,1,1,2,1.53,3a35.81,35.81,0,0,0,3.45,5.34,16.07,16.07,0,0,0,3.77,3.6,6.87,6.87,0,0,0,1.74.81,6.33,6.33,0,0,0,.79.18,1.72,1.72,0,0,0,.39,0c.11,0,.33.05.14,0-.38-.1-.1-.13.38-.37a17.9,17.9,0,0,0,2-1,46.4,46.4,0,0,0,4.86-3.56c1.66-1.38,3.35-2.87,5-4.43l2.48-2.36,2.36-2.31Z" style="fill:#407BFF"/><path d="M253.11,167.65c12.82,7.85,34.46-.07,41.29,10.11,0,0-7.94,4.23-7.69,13.43,0,0-9.14-11.63-27.75-13.26C246.65,176.86,253.11,167.65,253.11,167.65Z" style="fill:#263238"/><path d="M233.75,170.94c-2.08-7.64,23.22-6.64,29.55-6.25s5.66,10.34,2.87,19.5S238.74,189.28,233.75,170.94Z" style="fill:#407BFF"/><path d="M226.41,178.88c-.14,6.29.74,19.39,5.17,46.6h35.26c-.52-12.74-1.13-21.25,3.53-43.59a8.94,8.94,0,0,0-7.86-10.72c-1.39-.14-2.88-.26-4.39-.33a111.12,111.12,0,0,0-16,0c-3.44.32-7.13.87-9.94,1.35A6.93,6.93,0,0,0,226.41,178.88Z" style="fill:#407BFF"/><path d="M226.41,178.88c-.14,6.29.74,19.39,5.17,46.6h35.26c-.52-12.74-1.13-21.25,3.53-43.59a8.94,8.94,0,0,0-7.86-10.72c-1.39-.14-2.88-.26-4.39-.33a111.12,111.12,0,0,0-16,0c-3.44.32-7.13.87-9.94,1.35A6.93,6.93,0,0,0,226.41,178.88Z" style="fill:#fff;opacity:0.30000000000000004"/><path d="M244,130.94c-3,1.49-8.8,6.5-9.41,16-.29,4.63-1.11,11.69-5.78,10.41,6.08,9.11,13.61,2.16,13.93-.58,2.77,3,25,9.55,22.44-3.23C266.52,143.38,265.51,130.3,244,130.94Z" style="fill:#263238"/><path d="M256.53,152.81c-1,5.15-2,14.59,1.59,18,0,0-2.65,3.31-11.41,7-6.9-4.32-4.61-7-4.61-7,5.75-1.37,5.6-5.63,4.6-9.64Z" style="fill:#ffc3bd"/><path d="M252.52,156.23l-5.81,5a16.73,16.73,0,0,1,.49,2.84c2.19-.32,5.21-2.73,5.44-5A7.57,7.57,0,0,0,252.52,156.23Z" style="opacity:0.2"/><path d="M263.69,145.31c-2.93,8.1-4,11.6-9.41,14.61-8.14,4.53-17.45-.84-17-9.65.4-7.94,5.12-19.86,14.16-20.78A11.76,11.76,0,0,1,263.69,145.31Z" style="fill:#ffc3bd"/><path d="M249.5,131.72c2.8,6.39,7.17,12.26,14.92,12.17C265.08,140.69,263.73,132.81,249.5,131.72Z" style="fill:#263238"/><path d="M243.51,131c.53,3.77,8.66,8.75,14.61,8.33-4.36-.56-10.35-5.7-10.8-8.33A21.3,21.3,0,0,0,243.51,131Z" style="fill:#263238"/><path d="M259.74,150.59c-1.14-4-.22-9.72,1.92-11.39s6.08,7.54,5.8,10.38S259.74,150.59,259.74,150.59Z" style="fill:#263238"/><path d="M231.58,225.48s3,65.39,3.54,91.87c.6,27.54,16.23,91.87,16.23,91.87h7s-4.28-53.46-7.56-91.87c5-29.5,8.32-91.87,8.32-91.87Z" style="fill:#ffc3bd"/><path d="M231.58,225.48s3,65.39,3.54,91.87c.6,27.54,16.23,91.87,16.23,91.87h7s-4.28-53.46-7.56-91.87c5-29.5,8.32-91.87,8.32-91.87Z" style="fill:#263238;opacity:0.9"/><path d="M250.33,405.66l11.1,2,1.29,6.95a1.5,1.5,0,0,1-1.5,1.65c-3.64-.06-5.4-.28-10-.28-2.83,0-10.38.3-14.29.3s-4.12-3.87-2.49-4.22c7.3-1.56,11.87-3.73,14.33-5.79A2.44,2.44,0,0,1,250.33,405.66Z" style="fill:#407BFF"/><path d="M240.79,225.48s16.56,68.47,23.34,94.08c7.11,26.9,37.9,74,38.65,75.81l5.63-2.11S288.8,339,279.29,315.13c0-29.9-12.45-89.65-12.45-89.65Z" style="fill:#ffc3bd"/><path d="M240.79,225.48s16.56,68.47,23.34,94.08c7.11,26.9,37.9,74,38.65,75.81l5.63-2.11S288.8,339,279.29,315.13c0-29.9-12.45-89.65-12.45-89.65Z" style="fill:#263238;opacity:0.9"/><path d="M249.51,142.79c-.2.67-.71,1.11-1.15,1s-.64-.77-.44-1.45.71-1.11,1.15-1S249.71,142.12,249.51,142.79Z" style="fill:#263238"/><path d="M241.91,140.56c-.19.67-.71,1.11-1.15,1s-.63-.78-.44-1.45.72-1.12,1.16-1S242.11,139.89,241.91,140.56Z" style="fill:#263238"/><path d="M241.66,139.21l-1.48-.94S240.64,139.77,241.66,139.21Z" style="fill:#263238"/><path d="M244.57,143.46a18.46,18.46,0,0,1-3.66,3.58,3,3,0,0,0,2.27,1.16Z" style="fill:#ed847e"/><path d="M245.92,151.77a7.66,7.66,0,0,1-1.16-.23.22.22,0,0,1-.14-.26.22.22,0,0,1,.26-.14,5.51,5.51,0,0,0,5-.81.21.21,0,0,1,.29,0,.2.2,0,0,1,0,.29A5.76,5.76,0,0,1,245.92,151.77Z" style="fill:#263238"/><path d="M264.71,152a6.3,6.3,0,0,1-4.55,1.58c-2.2-.14-2.57-2.29-1.35-4,1.1-1.53,3.57-3.29,5.49-2.31A2.83,2.83,0,0,1,264.71,152Z" style="fill:#ffc3bd"/><path d="M252.32,141.22a.43.43,0,0,1-.22-.24,3.26,3.26,0,0,0-2.09-2.11.42.42,0,0,1-.3-.5.41.41,0,0,1,.5-.3,4.11,4.11,0,0,1,2.67,2.64.41.41,0,0,1-.56.51Z" style="fill:#263238"/><path d="M241,136.76a.37.37,0,0,1-.25-.18.41.41,0,0,1,.13-.56,4.08,4.08,0,0,1,3.73-.45.42.42,0,0,1-.34.76,3.22,3.22,0,0,0-3,.38A.4.4,0,0,1,241,136.76Z" style="fill:#263238"/><path d="M249.26,141.43l-1.48-.93S248.24,142,249.26,141.43Z" style="fill:#263238"/><path d="M231.58,225.48l1.32,73.61,48.5-6c1.89-38.26-7.47-59.5-14.56-67.6Z" style="fill:#263238"/><polygon points="257.3 285.3 251.12 261.77 242.56 251.47 257.3 285.3" style="opacity:0.2"/><path d="M242.5,385.29c.94,3,7.14,19.14,5.21,21.88l13.72.45s-2-15.41-1.62-19.3S241.57,382.25,242.5,385.29Z" style="fill:#407BFF"/><path d="M300,392.61l11.28-2.13,2.82,4.45a1.43,1.43,0,0,1-.3,2.16,50.44,50.44,0,0,0-6.23,4.3c-3.61,2.85-6.56,8-10.15,9.59s-5.15-1.55-4.11-2.81c2.42-2.93,5.17-11.5,5.45-14.48C298.81,393.12,299.47,392.81,300,392.61Z" style="fill:#407BFF"/><path d="M288.36,376.7c5.55,5.83,10.55,15.35,10.29,18.38l12.62-4.6s-4.26-12.94-7-20.64C302.94,366.15,286,374.2,288.36,376.7Z" style="fill:#407BFF"/><path d="M237.26,164.55c2.45,2.45-1.69,2.77-.64,5.81.56,1.62-5.63-1-2.27,7.36,1.66,4.11,3.07,7.14,9.93,6.86s10.82-4.9,15.63-6.26,9.15-1.61,7.18-4.68-5.16-4.22-4.16-7,0-5.81-4.37-4.16S233.39,160.69,237.26,164.55Z" style="fill:#263238"/><path d="M259.25,165c18,6.83,42.53-4.9,53.89,7.13,0,0-7.15,5.46-5.4,14.5,0,0-15.88-13.37-41-12.44C254.35,174.69,259.25,165,259.25,165Z" style="fill:#263238"/><path d="M268.64,169.41c-5.5.13-14.11,5.26-14.5,9.55-1,10.56,1.06,57.82,4.68,65.64a34,34,0,0,0,17.53-5.92c4.61-3.4,5.72-6,3.73-10s-5.29-27.7-4.71-36.81S278.8,169.18,268.64,169.41Z" style="fill:#407BFF"/><path d="M266.82,213.93l-7.75-5.29.9,8.79s5.13,2.18,7.95-.09Z" style="fill:#263238"/><path d="M256.37,209.66,255,215.17a1.17,1.17,0,0,0,.9,1.42l4,.84-.9-8.79-1.65.13A1.18,1.18,0,0,0,256.37,209.66Z" style="fill:#263238"/><path d="M273.68,171.44c1.19,1,2.21,1.86,3.27,2.83s2.06,1.91,3.07,2.89c2,2,4,4,5.89,6.18a79.14,79.14,0,0,1,5.5,7A47.61,47.61,0,0,1,294,194.4a26.64,26.64,0,0,1,2.26,5.19,17.07,17.07,0,0,1,.73,3.69c0,.35,0,.74,0,1.14v.29l0,.22,0,.45a15.31,15.31,0,0,1-3.54,8.75,16.57,16.57,0,0,1-5.36,4.11A23.6,23.6,0,0,1,282.8,220a35.29,35.29,0,0,1-9.44.55c-1.5-.08-3-.28-4.41-.5s-2.82-.54-4.38-.95l.88-8.28c4.78-.65,10-1.53,13.67-3.21,1.81-.79,3-1.94,2.93-2.32,0-.2-.13-.19-.17-.37s-.07-.43-.09-.09c0,.13-.07,0-.19-.22a21.09,21.09,0,0,0-1.23-2c-.56-.82-1.23-1.69-1.95-2.57-1.47-1.75-3.09-3.57-4.83-5.33s-3.53-3.55-5.36-5.31l-2.77-2.62-2.72-2.54Z" style="fill:#407BFF"/><path d="M231.14,171.24c4.82-2.66,3.37-.29,3.22,4-.37,10.6,5.55,61.53,1.93,69.35-2.56.29-7,.1-8.12-3.33s-1.22-5.6-1.22-11.35c0-16-3-37.62-2.33-46.72S228.65,172.63,231.14,171.24Z" style="fill:#407BFF"/><path d="M260.66,192c-.15,2-1.41,3.49-2.82,3.38s-2.41-1.8-2.26-3.78,1.41-3.49,2.81-3.38S260.81,190.05,260.66,192Z" style="fill:#263238;opacity:0.4"/><path d="M261.61,208.15c0,2-1.11,3.6-2.52,3.61s-2.56-1.58-2.58-3.56,1.11-3.6,2.52-3.62S261.59,206.17,261.61,208.15Z" style="fill:#263238;opacity:0.4"/><path d="M262.82,224.74c.2,2-.78,3.68-2.18,3.82s-2.7-1.35-2.89-3.32.78-3.69,2.18-3.83S262.63,222.76,262.82,224.74Z" style="fill:#263238;opacity:0.4"/><path d="M235.17,239.48l-.53,0c.51-8.74-.54-22.87-1.56-36.54-.73-9.78-1.41-19-1.41-25.09h.52c0,6.05.69,15.28,1.42,25.05C234.62,216.56,235.68,230.71,235.17,239.48Z" style="fill:#263238;opacity:0.2"/><path d="M278.32,133.5c1.84-1.9,5.33-.27,6.9,3.26s-1.56,7.43-5.65,7.13-6.38-4.71-3.91-6.29S277.07,134.77,278.32,133.5Z" style="fill:#407BFF"/><path d="M246.71,128.74c-.25-3.66,5.88-4.27,12.54-4.42s14.66,6,18.79,8.72,3.79,9.2-2,9.6-3.77,8.89-7,7.64S266.86,131.08,246.71,128.74Z" style="fill:#407BFF"/><path d="M246.71,128.74c-.25-3.66,5.88-4.27,12.54-4.42s14.66,6,18.79,8.72,3.79,9.2-2,9.6-3.77,8.89-7,7.64S266.86,131.08,246.71,128.74Z" style="fill:#fff;opacity:0.30000000000000004"/><path d="M246.43,127.21c-2.55,1.17-6.09,3.85-4.9,4.78,1.56,1.22,7.23-.54,13.85,3.68,7.39,4.73,8.67,12.25,9.24,17.62a1.09,1.09,0,0,0,1.47.9c2.3-.81,3.87-2.61,3.82-3.91-.06-1.53.74-8.22-6.32-16.5C259.28,128.71,248,126.48,246.43,127.21Z" style="fill:#407BFF"/><path d="M251.49,220.2a7.88,7.88,0,0,1-6.74-11.93,1.06,1.06,0,0,1,1.45-.35,1,1,0,0,1,.35,1.44,5.77,5.77,0,1,0,9.89,5.94l67.09-110.76a1.05,1.05,0,0,1,1.8,1.09L258.24,216.39A7.86,7.86,0,0,1,251.49,220.2Z" style="fill:#263238"/><path d="M353.63,195.27c.36-.14,1.14-7.92-1.91-15.35s-8.43-11-8.72-10.72c.34-.2-.85-8.51-6.26-15.54s-12.44-9.49-12.67-9.15c.3-.25-4.24-9.11-13.81-15.17s-19.5-6.45-19.6-6.07c.21-.35-5-5.69-13.65-7.59s-16.7.53-16.74.92c.13-.38-5.39-3.76-13.4-3.35s-14.75,4.4-14.72,4.78c-1.72-12.87,45.82-35,89.06-8.74l1.29.8,1.28.83C365.93,138.92,366,191.37,353.63,195.27Z" style="fill:#407BFF"/></g></svg>