<svg xmlns="http://www.w3.org/2000/svg" xmlns:xlink="http://www.w3.org/1999/xlink" viewBox="82.24 111.27 348.82 334.73"><defs><clipPath id="freepik--clip-path--inject-2"><rect x="82.74" y="111.77" width="160.62" height="259.87" style="fill:#263238;stroke:#263238;stroke-linecap:round;stroke-linejoin:round"/></clipPath><clipPath id="freepik--clip-path-2--inject-2"><path d="M292,301.65s-1.36,6.11,1.19,16.14,6.28,23.11,6.11,24.3-.85,18.36,0,21.76,5.61,4.75,11.22,4.24,7.48-2.38,8.5-5.94,2.72-28.38,2.72-28.38,11,21.41,12.23,25,8.33,5.61,13.77,4.42,7.3-8.16,7.14-12.58-12.41-25.83-12.41-25.83l4.25-23.11-36-18.53Z" style="fill:#fff;stroke:#263238;stroke-linecap:round;stroke-linejoin:round"/></clipPath><clipPath id="freepik--clip-path-3--inject-2"><path d="M312.94,173.34s-6.63,1.36-9.69,5.27-24.3,33-24.3,33a2.18,2.18,0,0,0-2.38,0l-1,.85s-25.15-18.53-26.17-18.19S238.5,207.5,238.84,209s31.61,26,36,26.34,5.44,0,6.29-.68,15-10.54,15-10.54l1,13.43s-14.78,31.27-14.95,61c0,0,3.23,8.66,22.43,12.23a9.57,9.57,0,0,0,1.87-2.89c.68-1.69,2.72-9.34,2.72-9.34s1,11.72,2.38,12.74,16.65-.51,31.27-3.74,17.5-6.11,17.5-8.83-5.43-42.66-12.23-59.31l5.1-7.31s6.62,10.37,10,11.56,37.22-5.95,40.28-7.31,2.72-1.53,2.72-2.72-.85-16-3.06-16.48-25.32,3.05-26.17,3.05-2.55-1.36-3.06-1.36h-.51s0-23.45-3.74-31.43-12.07-13.09-22.77-15.81S312.94,173.34,312.94,173.34Z" style="fill:#92E3A9;stroke:#263238;stroke-linecap:round;stroke-linejoin:round"/></clipPath><clipPath id="freepik--clip-path-4--inject-2"><path d="M324.33,190.5s-6.46,3.4-14.62-5.77-1.53-24.81,6.46-30.42,21.41-7.65,29.57-6.46,11.72,8.5,11.21,20.22-10.19,12.24-20.05,14.79S324.33,190.5,324.33,190.5Z" style="fill:#fff;stroke:#263238;stroke-linecap:round;stroke-linejoin:round"/></clipPath><clipPath id="freepik--clip-path-5--inject-2"><path d="M347.61,162.12s3.06,3.4-5.78,8.67-15.3,6-18.18,14.62,5.94,9.85,17.84,8.32,24.3-4.58,30.25-15.29,2.38-24.13-6.29-27.36S350.5,155.33,347.61,162.12Z" style="fill:#fff;stroke:#263238;stroke-linecap:round;stroke-linejoin:round"/></clipPath></defs><g id="freepik--Character--inject-2"><ellipse cx="335" cy="436" rx="51" ry="10" style="fill:#92E3A9"/><ellipse cx="335" cy="436" rx="51" ry="10" style="fill:#fff;opacity:0.5"/><path d="M296.63,360.28a52.1,52.1,0,0,1,13.93-3.57c8.33-1,10.88,1.87,10.88,1.87S308.69,372,296.63,360.28Z" style="fill:#fff;stroke:#263238;stroke-linecap:round;stroke-linejoin:round"/><path d="M330.44,356.2s8.67-7,15.81-10.54,8.83-1.19,8.83-1.19,0,4.59-5.09,10-9.69,4.76-13.09,4.42A14.53,14.53,0,0,1,330.44,356.2Z" style="fill:#fff;stroke:#263238;stroke-linecap:round;stroke-linejoin:round"/><path d="M292,301.65s-1.36,6.11,1.19,16.14,6.28,23.11,6.11,24.3-.85,18.36,0,21.76,5.61,4.75,11.22,4.24,7.48-2.38,8.5-5.94,2.72-28.38,2.72-28.38,11,21.41,12.23,25,8.33,5.61,13.77,4.42,7.3-8.16,7.14-12.58-12.41-25.83-12.41-25.83l4.25-23.11-36-18.53Z" style="fill:#fff"/><g style="clip-path:url(#freepik--clip-path-2--inject-2)"><path d="M343.79,317.78l3-16.13-36-18.53L292,301.65s-1.2,5.4.77,14.38a43.45,43.45,0,0,0,7.84,1.29c11.22,1,16,.64,16,.64S323.22,323.07,343.79,317.78Z" style="fill:#92E3A9"/><path d="M343.79,317.78l3-16.13-36-18.53L292,301.65s-1.2,5.4.77,14.38a43.45,43.45,0,0,0,7.84,1.29c11.22,1,16,.64,16,.64S323.22,323.07,343.79,317.78Z" style="fill:#fff;opacity:0.5"/></g><path d="M292,301.65s-1.36,6.11,1.19,16.14,6.28,23.11,6.11,24.3-.85,18.36,0,21.76,5.61,4.75,11.22,4.24,7.48-2.38,8.5-5.94,2.72-28.38,2.72-28.38,11,21.41,12.23,25,8.33,5.61,13.77,4.42,7.3-8.16,7.14-12.58-12.41-25.83-12.41-25.83l4.25-23.11-36-18.53Z" style="fill:none;stroke:#263238;stroke-linecap:round;stroke-linejoin:round"/><path d="M320.76,331.05s-3.4-11.05-3.23-16.49" style="fill:#fff;stroke:#263238;stroke-linecap:round;stroke-linejoin:round"/><path d="M296.63,360.28s3.9,3.23,11.89,2.55a27.65,27.65,0,0,0,12.92-4.25s-3.91,50.3-3.91,52.51-.51,10-.51,11.73.68,1.69.68,4.24,0,4.25-.85,5.27-4.08.68-7.14.68-5.1,2.55-9.52,3.74-13.76.51-14.44-1.36,6.46-5.61,10-9.52,6.11-9.51,6.11-11.89S296.63,360.28,296.63,360.28Z" style="fill:#263238;stroke:#263238;stroke-linecap:round;stroke-linejoin:round"/><path d="M330.44,356.2s28,49.79,28,50.47-.51,6.8-1.36,11.9-3.39,12.57-1.36,12.57,10-4.93,12.75-9.51,3.06-10.2,3.74-11.9,2.21-1.7,3.23-4.76.51-6.12-1.19-7.48-8.33-3.57-8.33-3.57l-10.88-49.45S351.52,357.05,330.44,356.2Z" style="fill:#263238;stroke:#263238;stroke-linecap:round;stroke-linejoin:round"/><circle cx="370.55" cy="127.46" r="10.37" transform="translate(18.41 299.35) rotate(-45)" style="fill:#92E3A9;stroke:#263238;stroke-linecap:round;stroke-linejoin:round"/><path d="M402.84,218s4.76-5.61,6.63-6.46,7.13-.51,9-1.87,3.91,1,3.23,3.4-3.23,3.74-4.25,4.08,6.29,1,6.29,1,4.42-7.14,6.29-5.27-1.7,11.89-3.57,13.76-4.59,3.23-12.24,3.06a81.44,81.44,0,0,1-11.38-.85Z" style="fill:#fff;stroke:#263238;stroke-linecap:round;stroke-linejoin:round"/><path d="M248,198c-.51-.68-2.72-4.93-7.14-6.8s-9.34-.68-11.38-1-4.08.85-3.57,2.72,2.72,2,3.91,2.72-3.74,2.38-5.1,2.38-3.91-6.46-7-4.25,1.53,8.33,4.08,11.39,8,3.4,11.56,3.06,10.7-.51,10.7-.51Z" style="fill:#fff;stroke:#263238;stroke-linecap:round;stroke-linejoin:round"/><path d="M312.94,173.34s-6.63,1.36-9.69,5.27-24.3,33-24.3,33a2.18,2.18,0,0,0-2.38,0l-1,.85s-25.15-18.53-26.17-18.19S238.5,207.5,238.84,209s31.61,26,36,26.34,5.44,0,6.29-.68,15-10.54,15-10.54l1,13.43s-14.78,31.27-14.95,61c0,0,3.23,8.66,22.43,12.23a9.57,9.57,0,0,0,1.87-2.89c.68-1.69,2.72-9.34,2.72-9.34s1,11.72,2.38,12.74,16.65-.51,31.27-3.74,17.5-6.11,17.5-8.83-5.43-42.66-12.23-59.31l5.1-7.31s6.62,10.37,10,11.56,37.22-5.95,40.28-7.31,2.72-1.53,2.72-2.72-.85-16-3.06-16.48-25.32,3.05-26.17,3.05-2.55-1.36-3.06-1.36h-.51s0-23.45-3.74-31.43-12.07-13.09-22.77-15.81S312.94,173.34,312.94,173.34Z" style="fill:#92E3A9"/><g style="clip-path:url(#freepik--clip-path-3--inject-2)"><g style="opacity:0.2"><path d="M294.92,219.78l-.36-6.35s-2.47,4.24-5.64,6-6,4.23-9.17,4.23S242,208.85,244.12,213.08,264.93,235,272.69,236a25.26,25.26,0,0,0,13.06-1.41L296,226.48Z"/><path d="M406.23,234.52c-7,1.57-18.54,4.08-25.6,5-10.58,1.41-19.4-1.42-22.22-3.18s-8.47-10.23-8.47-12,2.12-7.41,0-1.77a69.55,69.55,0,0,1-8.81,16.23c-2.83,3.53,2.11,9.52,6,25,3.07,12.28,2.39,33.36,2,42.17,9.23-2.61,11.26-5,11.26-7.28,0-2.72-5.43-42.66-12.23-59.31l5.1-7.31s6.62,10.37,10,11.56,37.22-5.95,40.28-7.31C405.66,235.44,406.14,235.07,406.23,234.52Z"/><path d="M346.06,195.44c11.29-.7,18.35-6.35,19.76-2.47s2.47,13.05,2.82,18.7.35,9.52.35,9.52a2.27,2.27,0,0,1,3.18,1.41l1.06,2.47,31.52-4.59c-.42-1.83-.94-3.15-1.57-3.29-2.21-.51-25.32,3.05-26.17,3.05s-2.55-1.36-3.06-1.36h-.51s0-23.45-3.74-31.43-12.07-13.09-22.77-15.81a25.63,25.63,0,0,0-2.6-.49,33.63,33.63,0,0,0-15.2,22.18S334.78,196.15,346.06,195.44Z"/></g></g><path d="M312.94,173.34s-6.63,1.36-9.69,5.27-24.3,33-24.3,33a2.18,2.18,0,0,0-2.38,0l-1,.85s-25.15-18.53-26.17-18.19S238.5,207.5,238.84,209s31.61,26,36,26.34,5.44,0,6.29-.68,15-10.54,15-10.54l1,13.43s-14.78,31.27-14.95,61c0,0,3.23,8.66,22.43,12.23a9.57,9.57,0,0,0,1.87-2.89c.68-1.69,2.72-9.34,2.72-9.34s1,11.72,2.38,12.74,16.65-.51,31.27-3.74,17.5-6.11,17.5-8.83-5.43-42.66-12.23-59.31l5.1-7.31s6.62,10.37,10,11.56,37.22-5.95,40.28-7.31,2.72-1.53,2.72-2.72-.85-16-3.06-16.48-25.32,3.05-26.17,3.05-2.55-1.36-3.06-1.36h-.51s0-23.45-3.74-31.43-12.07-13.09-22.77-15.81S312.94,173.34,312.94,173.34Z" style="fill:none;stroke:#263238;stroke-linecap:round;stroke-linejoin:round"/><path d="M323.65,187.11s-11.56,20.56-13.77,31.44-.68,80-.68,80" style="fill:none;stroke:#263238;stroke-linecap:round;stroke-linejoin:round"/><path d="M296.12,224.15s-3.4-17.33-.34-24.47" style="fill:none;stroke:#263238;stroke-linecap:round;stroke-linejoin:round"/><path d="M298.83,240s20.4,4.59,36.54,1.53" style="fill:none;stroke:#263238;stroke-linecap:round;stroke-linejoin:round"/><path d="M353.22,232.14s-4.93-8.67-5.27-17.5" style="fill:none;stroke:#263238;stroke-linecap:round;stroke-linejoin:round"/><path d="M349.65,207.84S359.16,190.5,368,192" style="fill:none;stroke:#263238;stroke-linecap:round;stroke-linejoin:round"/><path d="M373.44,218.88s-6.12.51-8.84,9" style="fill:none;stroke:#263238;stroke-linecap:round;stroke-linejoin:round"/><path d="M279,211.58s4.93,2.89,4.08,10.87" style="fill:none;stroke:#263238;stroke-linecap:round;stroke-linejoin:round"/><polygon points="298.66 257.29 286.77 269.87 286.6 272.93 299.51 261.03 298.66 257.29" style="fill:#263238;stroke:#263238;stroke-linecap:round;stroke-linejoin:round"/><polygon points="331.46 259.16 328.23 262.39 345.06 285.16 348.97 281.25 331.46 259.16" style="fill:#263238;stroke:#263238;stroke-linecap:round;stroke-linejoin:round"/><path d="M291.7,271.91a120.72,120.72,0,0,0,13.76,1" style="fill:none;stroke:#263238;stroke-linecap:round;stroke-linejoin:round"/><path d="M313.79,273.44a95.65,95.65,0,0,0,18.18-1" style="fill:none;stroke:#263238;stroke-linecap:round;stroke-linejoin:round"/><path d="M285.92,286.18s7,6.46,20.73,7.65" style="fill:none;stroke:#263238;stroke-linecap:round;stroke-linejoin:round"/><path d="M314,294.17s15.63.34,27.53-3.4" style="fill:none;stroke:#263238;stroke-linecap:round;stroke-linejoin:round"/><path d="M324.33,190.5s-6.46,3.4-14.62-5.77-1.53-24.81,6.46-30.42,21.41-7.65,29.57-6.46,11.72,8.5,11.21,20.22-10.19,12.24-20.05,14.79S324.33,190.5,324.33,190.5Z" style="fill:#fff"/><g style="clip-path:url(#freepik--clip-path-4--inject-2)"><path d="M319,163.31,320.4,169l-3.26-1.9,1.36,2.44-2.72.27,3.81,3-3.27,1.09,3,2.72L318,178.26l6,3.53L328,184s20.66-7.34,22.83-8.7,6.52-10.87,5.71-13.59-6.8-7.07-10.33-8.15S325.84,147.55,319,163.31Z" style="fill:#92E3A9"/><path d="M319,163.31,320.4,169l-3.26-1.9,1.36,2.44-2.72.27,3.81,3-3.27,1.09,3,2.72L318,178.26l6,3.53L328,184s20.66-7.34,22.83-8.7,6.52-10.87,5.71-13.59-6.8-7.07-10.33-8.15S325.84,147.55,319,163.31Z" style="fill:#fff;opacity:0.5"/></g><path d="M324.33,190.5s-6.46,3.4-14.62-5.77-1.53-24.81,6.46-30.42,21.41-7.65,29.57-6.46,11.72,8.5,11.21,20.22-10.19,12.24-20.05,14.79S324.33,190.5,324.33,190.5Z" style="fill:none;stroke:#263238;stroke-linecap:round;stroke-linejoin:round"/><path d="M326.53,170.62s0,3.91-.51,9.69a32.59,32.59,0,0,1-1.86,9s13.93-8,17.5-12.58,2.72-16.82,2.72-16.82a77.17,77.17,0,0,1-9.86,6.28Z" style="fill:#fff;stroke:#263238;stroke-linecap:round;stroke-linejoin:round"/><path d="M347.61,162.12s3.06,3.4-5.78,8.67-15.3,6-18.18,14.62,5.94,9.85,17.84,8.32,24.3-4.58,30.25-15.29,2.38-24.13-6.29-27.36S350.5,155.33,347.61,162.12Z" style="fill:#fff"/><g style="clip-path:url(#freepik--clip-path-5--inject-2)"><path d="M365.45,151.08c-4.69-1.75-8.68-.36-11.82,2.37-1.47,1.69-2.83,3.33-4,4.73a27,27,0,0,0-1.81,3.38,38.66,38.66,0,0,1,4.88-2.05c1.91-.55,3.26-.55,4.7-1.26s5.36.71,7,.71a28.66,28.66,0,0,1,4.89.82l2.72,4.07a2.86,2.86,0,0,0-.82,1.63c0,.82,0,4.08-1.08,5.44l-.55,5.16-1.63-.54s-3,4.08-3.8,4.35-1.63-1.36-1.63-1.36l-2.72,3.53L359,180.7a85.84,85.84,0,0,0-6,6.53c-1.36,1.9-.28-2.45-.28-2.45L347.58,188v-3l-5.44,3.81-.81-1.63-6.8,3.8-.27-3.26-7.34,1.9-.27-1.9-3.5,1.4c.68,5.22,8.45,5.84,18.34,4.56,11.9-1.53,24.3-4.58,30.25-15.29S374.12,154.31,365.45,151.08Z" style="fill:#92E3A9"/><path d="M365.45,151.08c-4.69-1.75-8.68-.36-11.82,2.37-1.47,1.69-2.83,3.33-4,4.73a27,27,0,0,0-1.81,3.38,38.66,38.66,0,0,1,4.88-2.05c1.91-.55,3.26-.55,4.7-1.26s5.36.71,7,.71a28.66,28.66,0,0,1,4.89.82l2.72,4.07a2.86,2.86,0,0,0-.82,1.63c0,.82,0,4.08-1.08,5.44l-.55,5.16-1.63-.54s-3,4.08-3.8,4.35-1.63-1.36-1.63-1.36l-2.72,3.53L359,180.7a85.84,85.84,0,0,0-6,6.53c-1.36,1.9-.28-2.45-.28-2.45L347.58,188v-3l-5.44,3.81-.81-1.63-6.8,3.8-.27-3.26-7.34,1.9-.27-1.9-3.5,1.4c.68,5.22,8.45,5.84,18.34,4.56,11.9-1.53,24.3-4.58,30.25-15.29S374.12,154.31,365.45,151.08Z" style="fill:#fff;opacity:0.5"/></g><path d="M347.61,162.12s3.06,3.4-5.78,8.67-15.3,6-18.18,14.62,5.94,9.85,17.84,8.32,24.3-4.58,30.25-15.29,2.38-24.13-6.29-27.36S350.5,155.33,347.61,162.12Z" style="fill:none;stroke:#263238;stroke-linecap:round;stroke-linejoin:round"/><path d="M357,155.16s7.48-6.29,9.69-15.13-3.23-17-9.35-18.52-16.65-1.36-24.3,3.57-8,6.79-8,6.79,18.18-5.94,24.47,5.1S357,155.16,357,155.16Z" style="fill:#263238;stroke:#263238;stroke-linecap:round;stroke-linejoin:round"/><path d="M322.8,141.73c-1.19-.34-3.91-.34-4.08-3.4s5.27-9.34,10-10.87,17.17-.34,23.12,7.13A30.13,30.13,0,0,1,358,155.33c-.51,3.91-4.75,7.13-8.66,8a6.43,6.43,0,0,1-6.63-2.38c-.51-.67,4.59-2.54,2-9.17s-9.52-12.41-14.79-13.09S322.8,141.73,322.8,141.73Z" style="fill:#92E3A9;stroke:#263238;stroke-linecap:round;stroke-linejoin:round"/><path d="M324.16,136s-4.76,7.31-5.27,15-.51,20.39,5.61,21.07a19.75,19.75,0,0,0,14.95-4.93,40.8,40.8,0,0,0,5.61-5.78,3.32,3.32,0,0,0,3.74-1.18c1.7-2,1.19-3.74.85-6.29S343.87,131.53,324.16,136Z" style="fill:#fff;stroke:#263238;stroke-linecap:round;stroke-linejoin:round"/><path d="M349.65,153.85v0a25.6,25.6,0,0,0-2.64-7.23c-.9,1.5-1.95,4-.39,6A2.93,2.93,0,0,0,349.65,153.85Z" style="fill:#263238"/><path d="M346.36,145.41c-3-5.1-8.46-10.46-17.67-10.06-.27,1.78,0,5.15,4.83,7.57A26.83,26.83,0,0,0,346.36,145.41Z" style="fill:#263238"/><path d="M328.91,143.94s-1.36,2.38-2.72,2.72-4.75,1.87-3.22,3.4,4.92.17,4.92.17" style="fill:none;stroke:#263238;stroke-linecap:round;stroke-linejoin:round"/><path d="M322.29,153.29s2.38,2.72,7.47.85" style="fill:none;stroke:#263238;stroke-linecap:round;stroke-linejoin:round"/><path d="M332.14,147s3.57-2,5.27,1.19" style="fill:none;stroke:#263238;stroke-linecap:round;stroke-linejoin:round"/><path d="M326,145.3a2.5,2.5,0,0,0-3.56.34" style="fill:none;stroke:#263238;stroke-linecap:round;stroke-linejoin:round"/></g></svg>