<svg xmlns="http://www.w3.org/2000/svg" viewBox="84.48 172.98 324.95 277.99"><g id="freepik--Floor--inject-44"><polygon points="382.44 428.34 375.41 424.48 367.89 428.48 360.37 424.48 352.85 428.48 345.32 424.48 337.8 428.48 330.28 424.48 322.76 428.48 315.24 424.48 307.72 428.48 300.2 424.48 292.68 428.48 285.16 424.48 277.49 428.93 270.13 424.48 262.61 428.48 255.09 424.48 247.57 428.48 240.06 424.48 232.54 428.48 225.03 424.48 217.51 428.48 210 424.48 202.48 428.48 194.96 424.48 187.44 428.48 179.92 424.48 172.41 428.48 164.89 424.48 157.37 428.48 149.85 424.48 142.33 428.48 134.82 424.48 127.3 428.48 119.78 424.48 112.26 428.48 104.75 424.48 88.42 433.24 393.08 433.24 382.44 428.34" style="fill:#92E3A9"/><polygon points="382.44 428.34 375.41 424.48 367.89 428.48 360.37 424.48 352.85 428.48 345.32 424.48 337.8 428.48 330.28 424.48 322.76 428.48 315.24 424.48 307.72 428.48 300.2 424.48 292.68 428.48 285.16 424.48 277.49 428.93 270.13 424.48 262.61 428.48 255.09 424.48 247.57 428.48 240.06 424.48 232.54 428.48 225.03 424.48 217.51 428.48 210 424.48 202.48 428.48 194.96 424.48 187.44 428.48 179.92 424.48 172.41 428.48 164.89 424.48 157.37 428.48 149.85 424.48 142.33 428.48 134.82 424.48 127.3 428.48 119.78 424.48 112.26 428.48 104.75 424.48 88.42 433.24 393.08 433.24 382.44 428.34" style="fill:#fff;opacity:0.5"/><polyline points="97.23 428.48 104.75 424.48 112.26 428.48 119.78 424.48 127.3 428.48 134.82 424.48 142.33 428.48 149.85 424.48 157.37 428.48 164.89 424.48 172.41 428.48 179.92 424.48 187.44 428.48 194.96 424.48 202.48 428.48 210 424.48 217.51 428.48 225.03 424.48 232.54 428.48 240.06 424.48 247.57 428.48 255.09 424.48 262.61 428.48 270.13 424.48 277.64 428.48 285.16 424.48 292.68 428.48 300.2 424.48 307.72 428.48 315.24 424.48 322.76 428.48 330.28 424.48 337.8 428.48 345.32 424.48 352.85 428.48 360.37 424.48 367.89 428.48 375.41 424.48 382.93 428.48 390.45 424.48 397.98 428.48" style="fill:none;stroke:#263238;stroke-miterlimit:10"/><line x1="84.98" y1="433.17" x2="384.6" y2="433.17" style="fill:none;stroke:#263238;stroke-miterlimit:10"/></g><g id="freepik--Character--inject-44"><ellipse cx="166.19" cy="444.29" rx="45.12" ry="6.68" style="fill:#92E3A9"/><ellipse cx="166.19" cy="444.29" rx="45.12" ry="6.68" style="fill:#fff;opacity:0.5"/><path d="M307.47,334.06s-6.64,20.41-4.58,40.82" style="fill:none;stroke:#263238;stroke-linecap:round;stroke-linejoin:round;stroke-width:3px"/><path d="M169.34,334.06s-6.64,20.41-4.59,40.82" style="fill:none;stroke:#263238;stroke-linecap:round;stroke-linejoin:round;stroke-width:3px"/><path d="M169.82,431.37s-4.75-40.67-4.75-52.06-3.48-13.29-5.86-13-17.24,7.28-18,20.1,8.22,36.23,5.38,41.61-12.35,6.33-13.93-4,8.39-7.6,8.7-4-2.05,6.65-3.79,4.75" style="fill:none;stroke:#263238;stroke-linecap:round;stroke-linejoin:round;stroke-width:3px"/><polygon points="151.97 340.15 312.41 340.15 320.82 303.83 160.37 303.83 151.97 340.15" style="fill:#999;stroke:#263238;stroke-linecap:round;stroke-linejoin:round"/><polygon points="148.21 340.15 308.65 340.15 317.06 303.83 156.61 303.83 148.21 340.15" style="fill:#fff;stroke:#263238;stroke-linecap:round;stroke-linejoin:round"/><polygon points="150.63 329.69 311.07 329.69 314.64 314.29 154.19 314.29 150.63 329.69" style="fill:#fff;stroke:#263238;stroke-linecap:round;stroke-linejoin:round"/><path d="M308,431.37s-4.75-40.67-4.75-52.06-3.48-13.29-5.85-13-17.25,7.28-18,20.1,8.23,36.23,5.38,41.61-12.34,6.33-13.93-4,8.39-7.6,8.71-4-2.06,6.65-3.8,4.75" style="fill:none;stroke:#263238;stroke-linecap:round;stroke-linejoin:round;stroke-width:3px"/><path d="M216.49,273.22a14.13,14.13,0,0,0-4.74,0c-2,.47-4.28,2.61-4.28,10.2s2,33.59,2.61,41.78-.47,32.87-.47,32.87-5.22,1.18-9.61,2-4.63,3.45-4.63,3.45,16.49.71,17.68.23,1.31-3.08,2-6.4.12-26,1.66-33.94,1.42-25.64,2.25-33.35.36-14.36-.47-15.67A2.28,2.28,0,0,0,216.49,273.22Z" style="fill:#263238;stroke:#263238;stroke-linecap:round;stroke-linejoin:round"/><path d="M227.89,229.67s-6.89-7.12-14.36-7.36-8.31,6.41-5.58,12.1,5.34,8.43-2.61,8.67-10.09-5.94-20.06-2.62-6.52,12.94-10.08,14.48-6.65-1.3-5.46-3.44,3-.83,2.84.12-.47,1.9.36,1.19.83-2.38,0-4.16-5.93-1.3-8.19,1.66-3,11.16,5.94,14.84,14.47,2.13,21.83-.83,12.34-1.78,15.67,1.66,3.32,5.1,10.68,6.64,21.71-.23,26.93-8.66-6.88-28.24-10.91-31.68S227.89,229.67,227.89,229.67Z" style="fill:#92E3A9;stroke:#263238;stroke-linecap:round;stroke-linejoin:round"/><path d="M224.24,231.72s-8.19-7.48-11.23-4,7,11.93,2.34,19.18-9.12,4.68-19.64,2.34-15-3-16.84,4.67-14.73,9.36-15-1.87" style="fill:none;stroke:#263238;stroke-linecap:round;stroke-linejoin:round;stroke-width:0.75px"/><path d="M228.68,238s-10.29,4-9.12,10.53S217,261.18,208.8,260.72s-18.71-9.83-23.62-6.79-2.33,12.14-14.49,11.22" style="fill:none;stroke:#263238;stroke-linecap:round;stroke-linejoin:round;stroke-width:0.75px"/><path d="M199.92,262.59s2.57-2.34,7.48.23,10.42,7.65,20.41,1.14" style="fill:none;stroke:#263238;stroke-linecap:round;stroke-linejoin:round;stroke-width:0.75px"/><path d="M238.45,364.24H215.07c-3.44,0-11-.24-11-.24s-7.12,25.87-9.37,37-3.68,21.12-3.56,22,2.61,3,2.13,7.6a91.19,91.19,0,0,0-.12,11.27l-1.3.59-1.31-.23-1.06-4.28s-.95,3.92-1.31,5.7-3,3.92-5.58,4.75-11.75,1.3-13.17.71,5.7-6.65,6.17-7.36,7.12-10.92,7.6-16.73,1.54-59.1,1.54-63.14.47-12.69,3.91-16.61,7.72-2,10.92-.47,19.46,13.64,27.53,15.9S239.4,363.76,238.45,364.24Z" style="fill:#fff;stroke:#263238;stroke-linecap:round;stroke-linejoin:round"/><path d="M227.05,360.68a34.22,34.22,0,0,1-6.14-2.63l-2,2.2a20.06,20.06,0,0,1-5.47,4h25C239.4,363.76,235.12,362.93,227.05,360.68Z" style="fill:#92E3A9;stroke:#263238;stroke-linecap:round;stroke-linejoin:round"/><path d="M193.83,361.63c-5.28-.29-7.9.45-9.15,1.09-.09,8-1.08,56.73-1.53,62.28-.48,5.81-7.12,16-7.6,16.73s-7.59,6.76-6.17,7.36,10.56.12,13.17-.71,5.22-3,5.58-4.75,1.31-5.7,1.31-5.7l1.06,4.28,1.31.23,1.3-.59a91.19,91.19,0,0,1,.12-11.27c.48-4.63-2-6.77-2.13-7.6s1.3-10.8,3.56-22S204,364,204,364,202.61,362.1,193.83,361.63Z" style="fill:#fff;stroke:#263238;stroke-linecap:round;stroke-linejoin:round"/><path d="M222.19,265.5s2.25,2.85,1.78,5.58-4.27,2.26-6.29,2-2.73.35-4.15,3.68-2,7.47-2.85,12.46-3.92,8.42-2,13.17S218.75,315,218.75,315.7a102.87,102.87,0,0,1-2.49,13.06C215,333.38,210.2,341,209.85,346s7.83,11.4,19.22,14.12,15,.6,19.7-3.08,4.51-11.51,3.92-18.63-8.67-20.89-8.9-23.85,2.25-16.38,3.68-25.4S246,272.74,241.65,271s-8.78.36-9.85-.95.48-10.68.48-10.68Z" style="fill:#263238;stroke:#263238;stroke-linecap:round;stroke-linejoin:round"/><path d="M252.69,338.37c-.6-7.12-8.67-20.89-8.9-23.85a42.75,42.75,0,0,1,.67-6.88h-.08c-5.81,0-10.21-3.08-10.8-5.69s-1.42-13.89,1.54-21.6c2.21-5.74,4.35-8.65,5.3-9.77a11.43,11.43,0,0,0-2-.32c-5.31,6.27-9.63,21.72-9.63,21.72l-16.37-1s2.85-11,4-14.36a11.89,11.89,0,0,1,1.94-3.48l-.75-.08c-2-.24-2.73.35-4.15,3.68s-2,7.47-2.85,12.46-3.92,8.42-2,13.17S218.75,315,218.75,315.7a102.87,102.87,0,0,1-2.49,13.06C215,333.38,210.2,341,209.85,346s7.83,11.4,19.22,14.12,15,.6,19.7-3.08S253.28,345.49,252.69,338.37Z" style="fill:#92E3A9;stroke:#263238;stroke-linecap:round;stroke-linejoin:round"/><path d="M221.36,309.17a23.84,23.84,0,0,0,9.37,4.28" style="fill:#fff;stroke:#263238;stroke-linecap:round;stroke-linejoin:round"/><path d="M245,338.84s-13.29-5.57-33.46-7.24-26.11-1.89-27.65-.23-8.19,17-8.19,17l11,6.17s5.1-5.11,6.52-9.38c0,0,12.11,7.12,19.82,12.58s26.7,8.19,32,5.34,8.43-10.44,7-17.09" style="fill:#92E3A9;stroke:#263238;stroke-linecap:round;stroke-linejoin:round"/><path d="M183.86,331.37c-1.54,1.66-8.19,17-8.19,17l11,6.17s5.1-5.11,6.52-9.38c0,0,12.11,7.12,19.82,12.58a25.59,25.59,0,0,0,5.57,2.84c2.54-2.2,5.65-6.29,5.94-13.16a21.48,21.48,0,0,0-5.25-14.92c-2.47-.34-5.07-.64-7.8-.87C191.33,329.94,185.4,329.71,183.86,331.37Z" style="fill:#fff;stroke:#263238;stroke-linecap:round;stroke-linejoin:round"/><path d="M226.17,231.43a7.25,7.25,0,0,0-6.72,3c-3,3.73-7.46,14.18-7.75,17s2.08,11.19,2.53,13.58,4.48,3.58,5.52,3.13a81.55,81.55,0,0,1,8.06-4.17c4.33-1.79,7.16-4.48,8.65-8.06s3.59-14.33-1.19-20S226.17,231.43,226.17,231.43Z" style="fill:#fff;stroke:#263238;stroke-linecap:round;stroke-linejoin:round"/><path d="M216.18,241.18s1.66-2.14,3.64-.79" style="fill:none;stroke:#263238;stroke-linecap:round;stroke-linejoin:round"/><path d="M223.61,241.18s3.72-1.66,6.17,3.16" style="fill:none;stroke:#263238;stroke-linecap:round;stroke-linejoin:round"/><path d="M219.16,244.56s-.45,1.49-2.84,2.83-2.83.75-1.79,1.94a3.23,3.23,0,0,0,2.24,1.2" style="fill:#fff;stroke:#263238;stroke-linecap:round;stroke-linejoin:round"/><path d="M215.28,253.36a8.07,8.07,0,0,0,6.11,0" style="fill:none;stroke:#263238;stroke-linecap:round;stroke-linejoin:round"/><line x1="224.98" y1="244.11" x2="222.91" y2="246.9" style="fill:none;stroke:#263238;stroke-linecap:round;stroke-linejoin:round"/><path d="M227.81,248.14s-5.67-.75-6.12-2.09" style="fill:none;stroke:#263238;stroke-linecap:round;stroke-linejoin:round"/><line x1="215.57" y1="243.51" x2="214.08" y2="245.97" style="fill:none;stroke:#263238;stroke-linecap:round;stroke-linejoin:round"/><path d="M217.22,246.35a3.71,3.71,0,0,1-3.73-.9" style="fill:none;stroke:#263238;stroke-linecap:round;stroke-linejoin:round"/><path d="M238.09,296.48A159.23,159.23,0,0,0,241.18,320c2.61,12.23,11.51,40.71,11.86,41.89s3,2.85,6.53,3,17.09.12,17.09.12-2.14-2.73-3.68-5.1-4.15-2-6.29-1.31-6.41,1.54-7.36.6-1.66-2-3.68-12.58-4.15-30-4.15-41.66.83-20.65-2.14-28.12-8.9-6-11.39-4.87" style="fill:#263238;stroke:#263238;stroke-linecap:round;stroke-linejoin:round"/><path d="M273,359.85c-1.54-2.38-4.15-2-6.29-1.31s-6.41,1.54-7.36.6-1.54-1.85-3.2-10.17L249.74,351c1.79,6,3.17,10.37,3.3,10.82.36,1.19,3,2.85,6.53,3s17.09.12,17.09.12S274.52,362.22,273,359.85Z" style="fill:#fff;stroke:#263238;stroke-linecap:round;stroke-linejoin:round"/><path d="M267.4,360.68s1.66,1.18,5.22.47,6.41-1.66,5.46.36-2.25,2.37-4.63,2.73c0,0-5.57.12-8.18.12" style="fill:#fff;stroke:#263238;stroke-linecap:round;stroke-linejoin:round"/><rect x="127.88" y="363.33" width="178.8" height="3.96" style="fill:#fff;stroke:#263238;stroke-linecap:round;stroke-linejoin:round"/><rect x="259.38" y="363.33" width="47.31" height="3.96" style="fill:#999;stroke:#263238;stroke-linecap:round;stroke-linejoin:round"/><path d="M175.91,341s3,.35,7.83,3.8,8.54,8.3,8.07,9.25S166.06,385.6,162,393.79a118.74,118.74,0,0,1-7,12.93c-1.42,2.26-5.1,5.22-6.53,6.29s-3.44,2.49-3.44,2.49l-1.18-.83,3.32-6.4s-7.48-1.43-10.68-4.28-9.73-14-10.56-15.9.12-4,1.18-3.56,3.21,5.34,10.45,7,11.74,2.61,11.74,2.61,1.55-.12,4.87-5.57S175.91,341,175.91,341Z" style="fill:#263238;stroke:#263238;stroke-linecap:round;stroke-linejoin:round"/><path d="M183.76,299.93a41.38,41.38,0,0,0-6.65,7.89l9.21,5.77c.48-2.4,1.89-5.44,5.34-8.76Z" style="fill:#263238;stroke:#263238;stroke-linecap:round;stroke-linejoin:round"/><path d="M200.16,291c-2.57,1.08-5.06,2.17-7.32,3.24l5.87,5.3.33-.21q2.75-1.64,5.42-3.1Z" style="fill:#263238;stroke:#263238;stroke-linecap:round;stroke-linejoin:round"/><path d="M216.05,284.28c-2.16,1-4.67,2.08-7.32,3.18l5,3.94c2.29-1.16,4.47-2.23,6.5-3.24Z" style="fill:#263238;stroke:#263238;stroke-linecap:round;stroke-linejoin:round"/><path d="M234.41,279.76l-6.93-4a34.54,34.54,0,0,1-3.34,3.43l5.59,3.95A21.54,21.54,0,0,0,234.41,279.76Z" style="fill:#263238;stroke:#263238;stroke-linecap:round;stroke-linejoin:round"/><path d="M231.51,266.74a4,4,0,0,1-.22,3.8c-1.73,2.82-5.47,8.13-10.8,11.41-7.53,4.64-28.55,11.31-35.22,16.67a41,41,0,0,0-10.15,12.62l11.6,7.68s-4.78-9.42,12.32-19.57,32.76-15.66,36-20.29,2.61-9.14,1.59-10.44-5.07-1.88-5.07-1.88Z" style="fill:#fff;stroke:#263238;stroke-linecap:round;stroke-linejoin:round"/><path d="M183.76,299.93a41.38,41.38,0,0,0-6.65,7.89l9.21,5.77c.48-2.4,1.89-5.44,5.34-8.76Z" style="fill:#263238;stroke:#263238;stroke-linecap:round;stroke-linejoin:round"/><path d="M200.16,291c-2.57,1.08-5.06,2.17-7.32,3.24l5.87,5.3.33-.21q2.75-1.64,5.42-3.1Z" style="fill:#263238;stroke:#263238;stroke-linecap:round;stroke-linejoin:round"/><path d="M216.05,284.28c-2.16,1-4.67,2.08-7.32,3.18l5,3.94c2.29-1.16,4.47-2.23,6.5-3.24Z" style="fill:#263238;stroke:#263238;stroke-linecap:round;stroke-linejoin:round"/><path d="M234.41,279.76l-6.93-4a34.54,34.54,0,0,1-3.34,3.43l5.59,3.95A21.54,21.54,0,0,0,234.41,279.76Z" style="fill:#263238;stroke:#263238;stroke-linecap:round;stroke-linejoin:round"/><path d="M223.55,267.76s1,5.58-10.5,6.88-21.48-6.88-31.45-2.25S171,284,163.68,291.14s-17.08,8.42-19.46,8.54,5.7,7.12,6.65,7.12,11.86.48,19-6.88,10-18.16,19-21.48,20.41,2,27.53-.59S225.27,272.74,223.55,267.76Z" style="fill:#fff;stroke:#263238;stroke-linecap:round;stroke-linejoin:round"/><path d="M188.84,278.44c.34-.13.69-.21,1-.32l-4.18-7a15.19,15.19,0,0,0-4.09,1.23c-.78.36-1.48.74-2.15,1.13l5.52,7.05A15.59,15.59,0,0,1,188.84,278.44Z" style="fill:#263238;stroke:#263238;stroke-linecap:round;stroke-linejoin:round"/><path d="M165.26,303.44l-6.54-8.5a33.17,33.17,0,0,1-8.81,3.74l7.32,7.6A25.81,25.81,0,0,0,165.26,303.44Z" style="fill:#263238;stroke:#263238;stroke-linecap:round;stroke-linejoin:round"/><path d="M172.75,296.47c1.66-2.21,3.12-4.56,4.59-6.83l-6.8-7.2a62.59,62.59,0,0,1-5.11,6.86Z" style="fill:#263238;stroke:#263238;stroke-linecap:round;stroke-linejoin:round"/><path d="M201.87,277.71l-.68-4.3c-1.79-.44-3.56-.93-5.3-1.35l2.32,5.32C199.44,277.45,200.66,277.57,201.87,277.71Z" style="fill:#263238;stroke:#263238;stroke-linecap:round;stroke-linejoin:round"/><path d="M225.63,224.21s-2.14,11.39.12,18.27,5.58,10.68,5.58,17.21-4.28,10.32-9.14,10.8-11.87-.24-18.51,5.34-4,11.63-1.07,12.81,4.51-.11,4.51-.11a2.86,2.86,0,0,1-2.26-3.45c.6-2.84,2-5.1,12.34-4.86s22.67-4,33.71-10.09,5.69-23.49,1.78-31.68-18.16-14.6-22.43-15.67S225.63,224.21,225.63,224.21Z" style="fill:#92E3A9;stroke:#263238;stroke-linecap:round;stroke-linejoin:round"/><path d="M245.28,230.32s13.57,23.15,4.21,33.9-18.93,7-31,10.18-13.45,8.3-13.45,9" style="fill:none;stroke:#263238;stroke-linecap:round;stroke-linejoin:round;stroke-width:0.75px"/><path d="M233.36,224.24s-2.81,8.41,5.37,19.87,2.34,24.32-3.5,26.19a111.84,111.84,0,0,1-12.4,3" style="fill:none;stroke:#263238;stroke-linecap:round;stroke-linejoin:round;stroke-width:0.75px"/><path d="M224.47,236.4s1.4,8.41,6.31,15,5.46,16.83.51,19.18" style="fill:none;stroke:#263238;stroke-linecap:round;stroke-linejoin:round;stroke-width:0.75px"/><path d="M193.83,361.63c-5.28-.29-7.9.45-9.15,1.09-.09,8-1.08,56.73-1.53,62.28-.48,5.81-7.12,16-7.6,16.73s-7.59,6.76-6.17,7.36,10.56.12,13.17-.71,5.22-3,5.58-4.75,1.31-5.7,1.31-5.7l1.06,4.28,1.31.23,1.3-.59a91.19,91.19,0,0,1,.12-11.27c.48-4.63-2-6.77-2.13-7.6s1.3-10.8,3.56-22S204,364,204,364,202.61,362.1,193.83,361.63Z" style="fill:#263238;stroke:#263238;stroke-linecap:round;stroke-linejoin:round"/><path d="M204,364a41.51,41.51,0,0,0,.83-7.24" style="fill:#fff;stroke:#263238;stroke-linecap:round;stroke-linejoin:round"/></g><g id="freepik--Wind--inject-44"><path d="M225.79,185.81c-10.56,7.13-21.44,15.44-32.33,19.22-19,6.62-44.66,3.31-66.16-15.71" style="fill:none;stroke:#263238;stroke-linecap:round;stroke-linejoin:round"/><path d="M286.07,186.84s-15.71-14.88-33.9-13.23c-6,.55-12.22,3.38-18.59,7.19" style="fill:none;stroke:#263238;stroke-linecap:round;stroke-linejoin:round"/><path d="M133.42,205.41c-1.5-1.16-3-2.38-4.46-3.68" style="fill:none;stroke:#263238;stroke-linecap:round;stroke-linejoin:round"/><path d="M202.9,214a60.64,60.64,0,0,1-7.79,3.41c-16.39,5.7-37.68,4-57-8.7" style="fill:none;stroke:#263238;stroke-linecap:round;stroke-linejoin:round"/><path d="M373,276.5c-6.29,4.25-12.78,9.2-19.27,11.46-11.33,3.94-26.61,2-39.43-9.36" style="fill:none;stroke:#263238;stroke-linecap:round;stroke-linejoin:round"/><path d="M408.93,277.12s-9.36-8.87-20.2-7.89c-3.58.33-7.29,2-11.08,4.28" style="fill:none;stroke:#263238;stroke-linecap:round;stroke-linejoin:round"/><path d="M318,288.18c-.9-.68-1.79-1.42-2.66-2.19" style="fill:none;stroke:#263238;stroke-linecap:round;stroke-linejoin:round"/><path d="M359.36,293.32a35.34,35.34,0,0,1-4.64,2c-9.77,3.4-22.46,2.41-34-5.18" style="fill:none;stroke:#263238;stroke-linecap:round;stroke-linejoin:round"/></g></svg>